<mxfile host="app.diagrams.net" modified="2020-09-25T08:57:41.658Z" agent="5.0 (Macintosh; Intel Mac OS X 10_15_6) AppleWebKit/605.1.15 (KHTML, like Gecko) Version/14.0 Safari/605.1.15" etag="av0_yVnWGtd4cUd6y-tI" version="13.7.3" type="github">
  <diagram id="SwYtlnrrwVTZzauShGvT" name="Page-1">
    <mxGraphModel dx="1426" dy="763" grid="1" gridSize="10" guides="1" tooltips="1" connect="1" arrows="1" fold="1" page="1" pageScale="1" pageWidth="850" pageHeight="1100" math="0" shadow="0">
      <root>
        <mxCell id="0" />
        <mxCell id="1" parent="0" />
        <mxCell id="a0I209Xn2IAU2qN7jM_M-32" value="" style="rounded=1;whiteSpace=wrap;html=1;fontSize=21;dashed=1;" vertex="1" parent="1">
          <mxGeometry x="136" y="190" width="560" height="200" as="geometry" />
        </mxCell>
        <mxCell id="a0I209Xn2IAU2qN7jM_M-4" value="" style="rounded=1;whiteSpace=wrap;html=1;fontSize=21;dashed=1;" vertex="1" parent="1">
          <mxGeometry x="300" y="502" width="370" height="150" as="geometry" />
        </mxCell>
        <mxCell id="a0I209Xn2IAU2qN7jM_M-9" value="" style="rounded=1;whiteSpace=wrap;html=1;fontSize=21;align=center;" vertex="1" parent="1">
          <mxGeometry x="584" y="577" width="76" height="64" as="geometry" />
        </mxCell>
        <mxCell id="a0I209Xn2IAU2qN7jM_M-3" value="" style="shape=image;html=1;verticalAlign=top;verticalLabelPosition=bottom;labelBackgroundColor=#ffffff;imageAspect=0;aspect=fixed;image=https://cdn4.iconfinder.com/data/icons/technology-83/1000/embedded_device_embedded_system_internet_embedding_embedded_systems_iot_embedded-128.png;fontSize=21;" vertex="1" parent="1">
          <mxGeometry x="292" y="570" width="90" height="90" as="geometry" />
        </mxCell>
        <mxCell id="a0I209Xn2IAU2qN7jM_M-5" value="Bamboo&lt;br&gt;device" style="text;html=1;align=center;verticalAlign=middle;resizable=0;points=[];autosize=1;fontSize=21;" vertex="1" parent="1">
          <mxGeometry x="377" y="585" width="90" height="60" as="geometry" />
        </mxCell>
        <mxCell id="a0I209Xn2IAU2qN7jM_M-8" value="" style="shape=image;verticalLabelPosition=bottom;verticalAlign=top;imageAspect=0;aspect=fixed;image=data:image/x-icon,AAABAAkAAAAAAAEAIADoGQAAlgAAAICAAAABACAAKAgBAH4aAABAQAAAAQAgAChCAACmIgEAMDAAAAEAIACoJQAAzmQBACgoAAABACAAaBoAAHaKAQAgIAAAAQAgAKgQAADepAEAGBgAAAEAIACICQAAhrUBABQUAAABACAAuAYAAA6/AQAQEAAAAQAgAGgEAADGxQEAiVBORw0KGgoAAAANSUhEUgAAAQAAAAEACAYAAABccqhmAAAZr0lEQVR42u2dT2wb153HvxZNSaEsmVasWBv/CRm4hlUXqIQUNbxoWjI+BF60sLxAIOxeIvbkW+xDDjlZOvmgg5XLwqeSORW6NOplgz0YGp0CFDDEAnXldQ+appvUieRmYjeMZIrkHt7QoW1ZIodv5v2Z7+eSxBbf/IbR+877/d77/gYghBBCCCGEEEIIIYRYzT7VAZDoOH27mgGQ8f8zDWAcgAeg3PJj5btvJD3VsZJooABYij/ZcwB+ATHRxzscwoEQhmUADkXBTigAFuFP+vcATOL7J70sHAAfAVikGNgDBcACTt+uTgN4F+KJHwUlAB/efSNZVn3vpDsoAAbjT/xrkP+0bxcHwFUKgblQAAzk9O1qDmLi51TH4lOCEAJPdSCkMygABuHn+NcATKuOZQc8iLRgRnUgpH0oAAZw+nY1DeAKRIEvrTqePXAhVgOLqgMhe0MB0BwN8vygOGB9QHsoAJpy+nZ1HMAN6JPnB6UE1ge0hQKgGf5y/wb0zPOD4oH1AS2hAGjE6dvVGZiR5wfFBVC4+0bSUR0IEVAANOD07eokxFM/ozqWiHAghMBVHUjcoQAoxN/WK8L8PD8o8wBmWR9QBwVAAX6efw1iay/ueBAiMK86kDhCAYiY07erVyAmf1p1LJrhgvWByKEARIR/fLeI+OT5QXHA+kBkUABCxs/zb0BYdEn7zAKYZ30gXCgAIdFyfPea6lgMxoM4RFRSHYitUABCwD++ewPM82VRhhACR3UgtkEBkIif599A5+23SHssQgiBqzoQW6AASEBzm66NsD4gCQpAFxhm07UND6wPdA0FICAG23Rtw4E4SOSoDsREKAAdYpFN1zZKEELgqg7EJCgAbWKpTdc2PAAfgvWBtqEAtEEMbLq24UKsBkqqA9EdCsAu2GrTTVbuo6e2+dSfbfemUetLqw5NNg5YH9gVCsAO2GTT7Xvkou/RGnofukhW/v7cxH+WWl8a1dS/YGswg63BLKqpUdW3IIMS2JZsRygALdhi0+175CK1sYL+r1f3nPB7UetL47v0GP555JzpKwQPbEv2HBQAHxtsuqmNFRz48lMkK/dDGX/zkBCCrcGM6lvtBhdsW/6E2AuADTbdvkcuBj9fQt+jtUiuVzk8gYev5k1fEThg2/L4CoANNt3EloehL5aQ2lhRcv1HR/P455FzqCf6VX8V3VBCjOsDsRMAG2y6PbVNHPjyUwzc/7TrHL9ban1pPHw1j8rhCdVfSzd4iGl9IFYCYINNN7WxgqEvlpDY8lSH8hRbg1k8Opq3oT4Qq7ZksRAAG2y6ycp9HPzsk8jy/KBYVB+IRVsyqwXABptuT20TBz/7RFmeH4R6oh/fjp6zoT4wD8vbllspALbYdIe+WNIizw+KRfUBa9uWWycANth0+79eRfpvn2iX5wdlazCLb05cMP1UoQsL6wPWCIANNt3ElodDax9rn+cHpXJ4At+cuGB6WuDAovqA8QJgg023p7aJwc+XcODLT1WHEjrN+sDDV/OqQ+kWK9qSGS0ANth0D3z5KQY/XzI2zw9KrS8N7/gFbB4aUx1KN3gwvC2ZkQJgg02375GLQ2u/sybPD4ol9YEyDG1bbpQA2GDTTWx5SP/tE/R/vao6FK2wpD6wCMPalhshADbYdJvHdwc/X1IdirbUE/1P/AWGY0x9QHsBsMWme/CzT2KX5wel1pfG19l/N/1YsQcD6gPaCoAtNt2Dn/13aP5829kazOLr7CUbjhVr25ZMOwGgTZc8yz+PnMOjo3nT6wMlaNi2XBsBoE2X7IYl9QEPmrUt10IAaNMl7WJJfcCFJm3JlAqADdt6pth0bWPz0Bi84xdsqA9cUrkaUCYA/mGeIgx96pto07URC9qSeRDegkUVF1ciAP4RXmNzfdNturZRT/TjmxMXTLcdz6poSRa5AJy+XS3CUOOObTZd26imRvHNiX8zuT5QuvtGshDlBSMVAFMnv+02XdswvD4QqQhEJgAmTv442XRtxOD6QGQiEIkAmDj542rTtQ2D25JFIgKhC4C/x18M+zqyoE3XTgxtW14I20sQqgD4+/xGJM606cYDw9qWe3ffSB4K8wJRrABy0LgnP2268cOQtuUlRPDKsiiLgNPQ7LgvbbrxRtP6gIMIX1oa9TZgGho09qBNl7SiSVsyFwr8AapOAmagwANAmy7ZDUVtyTwodAiqNgPlEEHTD9p0SbtE3La8BMU9AnSxA19BSG2/aNMlQQi5bbkDTboEaSEAgPwXfNCmS2QguT7gQbM+gdoIQBMZr/ga+mKJ23pEKo+O5rtNC7TsFKydADQJ8vKPntomDt/9Dav7JBS2BrP4xw/+o9Mi4SIkvyugsl5Ip0aKnoyxpAlAbXVqGsAvAMwmxhak3Wy7r/9KVu7j8N3fsMhHQqXWl8aDk//ZTkpQhuS3BVXWCzmIovlsaqRYkjFmj8Tv5iJE/r5SW52aqa1OpWUM6jdJmIComO4IJz+JisSWt9cq04OY+BOyJn9lvZCprBeWACxBrIgvyrofmSuAxjN/5EKsBkqyruFvG15DS32Ak5+ooJ7ox8bpXz+7EpiHqO57Mq5RWS+k8YKDc6mRopS5K2WQ2upUDkKddsIBcDUxtlCWcS3gybHiaz21zcwrd/6LW3xECdXUKDZO/xr1RL8D4dxzZY1dWS9cwe5b4/nUSNHp9jqyUoDcHn+3UludKkpMC0oAJob/8ttZTn6iimTlvjv8l9/m776RzMua/JX1Qq6yXljB3r6ZnIzryVoBLLUZkAfgw8TYwoyM6wLA+ZsfZGD4m4SIcXgAPrx1+fqMrAEr64UMOvs9dlIjxa6PK8oSgDV0dpzXhUgLFmVcHwDO3/wgB41tx8QaSgCu3rp83ZMxmJ/nX0HnXbLd1Egx2+31ZQlAI+BHHQAFmduG529+MA3NbMfEChyIiV+WNWBlvTCNLn5XZRQCVQtAk3mIHQNPRjznb36Qhga2Y2IFLsTEX5Q1oL+f/9RuVkAOdXsgqGsB2GMHoBM8CBGYlzAWgCf1AaNfPUaU4cG36Upc7mcgJv60pBi73gnQSQCauBBpQVc31opfHwjddkysoQRg9tbl666MwVry/D1PtHaIlQLQxIH8+sAVhGQ7JlbgQEx8R9aAlfXCJDr0tHSA1QLQZBbAvOT6gDTbMbECDyLPL8kasLJeGEeXrtY26FoAZHoBwuIagLWvbx6cljHYrcvXvVuXrxcg/AWO6psjypkFkJU1+RvLSD++969FACswoPZkwgoAjWoV3v/8DvAdVofflzdxz9/8YBLhLdGIvixCPPVdWQM2ljED4L36wGh667ULUdxD1yuA/VFE2S3bD75q/us4gKWNOfE/7/D7cLsd29/eWTx/84MZyC/SEP0oQ0x8R9aAjWXk0FJk7vnWnH4UJqQAqD30nv2jSQArG3OY2ZiTM2H9Y5272o6J0XgQE39C1uRvLCPTWEarTfcJPYY0pTFCAKrfrwBaSUPUB1Y25uQU9G5dvu769YE8WB+wiXmIPH9exmCNZaQby7gB8dq73E4/07P5D9X33BZGpAB7kAFQ3JjDuwBmZdQH/CeE4x8rvgbWB0zFAVCQnOdfQRtbyftqj1Xfe1sYsQLY3nkF8Cw5iPpAUWJaUIJIC2ZVfwekI1wA+VuXr+dlTf7GMnKNZbRj0wUA9FT+rvo7aAsjBKBDpgGsbcxhRsZg/rbhDIAsROWY6IsHcZAnKznP/xgizx9XfYOysVEAAL8+sDGHtY05OX0C/PrAJYj6QFn1DZLnKEHk+TMyBvPz/BmIPH9S9c2FhQ01gN3IAPh4Y05YOQ+/3/3E9Z8sE7Qda4MDyTbdxjKmEZP/t7auAJ4lB7FbcENyfSALUWEm0eMCuOTn+WUZA/p5/hLEnn5a9Q1GQVwEoMkViPrAFRmD+fWBqxBC4Ki+uZjgQRRlJ2R59P08vwiR5+dU32CU2J4C7EQawI2NObwHoCBp29AFkKftOHRKkGjTbSwjjXBsusYQRwFokoHYNnQghMDtdkC/PpCl7Vg6DiTbdBvLmAQ9ILFLAXYiB3/bUGJ9YB4iLSipvjnD8SAO8uQlbuuN+3n+x4j55AcoAK1cgxCCaRmD0XbcNdJtun6eb4RNNyrinALsRBriWPF7kGQ79ivUedqO22YRIdl0wZTsOSgAOzMO2o6jpoyQbbrkeZgC7M4kaDsOGw8R2nTJ01AA9iYN2o7DYh4R23TJ0zAFaJ8MaDuWhQNFNl3yNFwBdE4OtB0HxYVimy55GgpAcKZB23G7eKBNV0soAN2RBm3He1ECbbrawhqAHDKg7fhZHNCmqz1cAcglB9qOXXx/fLcsY8A42nSjggIQDlcQP9uxh+9tuiUZA8bZphsVTAHCI4342I5LoE3XSCgA4ZOBvbbjMuQf350EPRORwRQgOnIIx3asym04K/n4Lm26CqAARI9s27F76/L1PICrEHl42JQh8vwZGYPRpqsWCoAa0hDHilc25uT80vurgbDPDpQgTvJJuUbLfv50iDGTXaAAqGUcoj7w8cZc98veZu8ByHcaehBbe4Vbl6973Q7mb+utgWf3lUMB0INJSLIdt3QiuiopNhfiqV/qdiDadPWDAqAPaUi0HfspQQHd1QXKEPl+uZtYaNPVFwqAfmQg6gNL3dYH/Kd2HsFEoAzx5A/y2Sf4Nt01QM6hKCIXCoC+5CDBdtxSF/A6+JiDLic/bbpmQAHQn2l0eay4QxEoQ7xyq52ffQ5/uU+briFQAMwgDXGs+OOgqwFfBC7t8WNldPHk95tw0qZrEBQAs5iEKBKOB/mwf2qv8IK/9tDd5J+BeOqnlX5DpCMoAOaRgagNTAf5sF8YLO3wV4Emf8tJvmuqvxjSORQAM0lD7BRMB/mwf06g3PJHgRp3+K69JfAkn7FQAMymuDGHYsDPNlMBJ0hb7pbJP676SyDBoQCYz3QQEfCf+Ffx4prAC+Hktwf2A7CD6Y05/PXw+511KOaTn3AFYA/XZFmM94CT3yIoAHZRDLpF2A5+tT+08Un0UADsI/Bhod3wW3VNq745IhcKgH1kgMA7AzvSWJY/JtEDCoCdTMrqNORDQ4+lUADsRcoT2z/fP6n6Zkg4UADsJSNpV4BHfC2GAmA3XU1e/+mfU30TJDwoAHaT6fKtxe+pvgESLhQA+3k3yIf8E3+TqoMn4UIBsJ/JgOcCJlUHTsKHAhAPcgE+c1F10CR8KADx4BcBPpNTHTQJHwpAPMh18sONZYyDB39iAQUgHoyH/PPEUCgAMaFDl2BGdbwkGigA8SHdwc/+WHWwJBooAPEh08HPplUHS6KBAhAfMqoDIPpBASA7Ma46ABINFACyE2nVAZBooAAQEmMoAITEGAoAITGGAkBIjKEAEBJjKACExBgKACExhgJASIyhABASYygAhMQYCgAhMYYCQEiMoQAQEgKNnl7VIbSFEQKw/+VXVIdASEc0+l9WHUJbGCEA+5JJ1SEQ0hGNBFcA0tg/dEh1CIR0RL1/WHUIbWGEACSG0qpDIKQj6qlR1SG0hRECwBoAMYn6gBmTHzBEAPYlk1wFEGOoDb6mOoS2MUIAAKDveFZ1CIS0RW3whOoQ2sYYAUiOHlUdAiF7Uh8YRSN5QHUYbWOMAPS8NIBergKI5mwPn1EdQkfIEAAvqmD7jmWiuhQhHdNIHjBq+Q9IEIDE2EI5qmD3v/wKdwSItjw++mak10uNFJ1uxzAmBWgyMP5T1SEQ8hz1gVFj9v5bkSUA5cgCfmkAL536UVSXI2RPGolePH412qc/JM05WQLgRnnn/afO8FwA0YbtkQkVlX9XxiCyBOCPUd/9wPhZmoSIcmrpk9ge/qGKS0uZc7IEwIn67hNDaQz8+GzUlyXkCfX+YVSPKPsddGQMIkUAEmMLUoLplOToURYFiRLq/cN4/NoFZbZfGTsAgNxdgEUVX0TvsSxFgESK6skPiXNNpgD8PvrvQdAUAdYESNjUBk+onvyAxLlm/AqgSe+xLAbPvYWe1IDKMIjFbI9M4PHx86onP6DjCiAxtuABKEX/XbTEMJTG0Jtv0zhEpFLvH8bW6xdRHRlXHQoAlFIjRU/WYLJPAn4U7XfxPPuSSRz4yc8weC7P1QDpikaiF9XRs9h6/aJOLb6kzjGpAuDvBjgRfhkvZP/Lr+DgW79E6swEawOkY7aHf4itk++o2uN/EY6s6n+T/SEEOQsgF8W30Q592VPoPZbFd/f+hK21e6rDIZpTHxhF9chZnZ74rczKHlC6GUinVUCTfckkUmcmMPTzt+kmJDvSSB7A4+PnsfXaBV0nv/SnPxDOCgAACgDWQv06ApAYSmPwXB7V+5+j8ucV1Cvfqg6JKKaR6EVt+IwuBb7dKIQxaCh24MTYgosQliuySI4excG3fomXTv2I9YEYU0ufxNbJd0yY/LOpkaIbxsCh9QNIjC3MIEKbcBD6T53Bwbd+xVZjMaM+MIqt1y/i8atv6rCnvxdOaqQ4E9bgYaUATS4BWAGQDvk6gdmXTGLgxz9F37EMvrt3B9sPvlIdEgmJRvIAqqNnTWrb5SGkpX+TUDsC+alAqDcgi/0vv4LBc3kMjP+U5wcso5HoxfbIBLZev2jS5AeAS2Et/ZuE3hIsMbawCENEABBHiofefJv1AUuopU8+OcVnwHK/lUIYVf9niaQnYGJsoQSDRGBfMon+U2cw9HMeKzaV+sAotjIXRJ5vUJ9+n0JqpFiK4kKRNQU1TQQA0X+weayYLcjMoJE8gMevvin28w1s0okIJz8QcVdgE0UAEPWBoZ+/TcuxxjyV56dPqg4nKJFOfkBBW3BfBPKI8IUisug9lsXBt37FrsSaURs8YWqe38QDMBH15AcUvRfAPy48Ac2ODLdDsz5w8PwveaxYMfX+YZHnHz9vYp7fxAGQTY0UyyouHvY5gBfibxHma6tTVwBcg8ZnBXai56UBDJ7LY/vBV/j2j3/gseIIaSR6UT1y1uSlPiCe+rOpkeK8yiCUvxkoMbYwD7EaKKmOJQi0HUfL9sgEtk6+Y/rkL0E89edVB6JsBdBK88BQbXXqI4jVQE51TJ1C23G41AZPoDp61uSlPiCW+1dVLfd3QgsBaNK0EtdWp6YB3IBhaUHTdtx3PIvKnRUeK5ZAvX8Y1dGzpm7pNXEhlvsl1YE8i/IUYCf8nYIsNHYU7hq/bzs+8JOf8VhxQJ5qx2Xu5PcgfoeVVPjbYZ/qAPaitjqVgVgNTKqOJSib9+5gc+1/0ahWVYYxe/h9zLTzg41lNFQGuj38Q/G+PTO39JqUEKKNVxZapQA74dcHLtVWp3IAigAyqmPqlP5TZ9CXPYXKn1fw+G/a9UnRhvrAqKlHd1txICa+ozqQdtBeAJr49YGsqduGtB2/mEbyAB4ffdPkpT6gcZ6/G1rWAHbD3zbMAphXHUsQaDv+nmaev/mDd0yf/Frn+bthzAqgFf8lJFdrq1MfQqQFOdUxdUrvsSySR45ha+2eDvWByLEkz1+E2NZzVQcSFCMFoEnLacJJiEJhRnVMndA8Vtx7PIPKnRVU73+uOqTQ0bztdruUISa+ozqQbjFaAJr4TUcWa6tTMwDeg2H1gabtePvBV6jcWUHtoac6JOkY2I5rJzyIiV9SHYgsjKsB7IbfiDQLg48V22Y7btp0N3/wjumTfxbi+G5JdSAysWIF0IpfHyj49YEbMLw+8N29P6kOJzC19ElUj5xlnq8x1glAk8TYQhmiPjANsW2YUR1TJ7TWB74t/8GobUNL8nwXEfXlU4lVKcBO+MeKJyCWcJ7qeDqlaTs24W3HBrxeqx08iCd+1vbJD8RAAACRFvj1AdqOQ8DgttvPMg9NbLpRYW0KsBPP2I5vABhXHVOn6GY7rqVPojoyYcPx3YKtef5uxEoAmjRbktF2HJz6wCiqIxOmn+BzEYM8fzdikQK8CNqOO8eCtttAzPL83dDeDhwVNtiOH//fGr67d+dF/Qm7sgPX+4exPXzG9FZcgKgBXU2NFD3VgehALFOAnbDBdtx7LIveY1nUHnrYXLuH7QdfddWstN4/jPrga6gNnjC5qt/EgWbtuHSAK4AXYKrt+Ln7eOhh+8FXaFSrswMX/zTTzmc2/3qh0egbNv0ATxMXYuIvqg5ER2JdA9gN023HT+5jKI2+7Cn0nzrT9mfqqVEbJr8H4c/PcvK/GArALvjnB65CCIGjOh7SNiWI/fwZ1YHoDmsAbWC67ThGOGCe3xFcAXRAYmxhMTG20Nw29FTHQ57gQuzn5zn5O4MCEADTbccW4cHgdlw6QAEIiF8fKMDQl5xaQAli4s9wTz84rAF0iem2YwNxYFDbbd3hCkASptuODcDF93m+ozoYW6AASMQG27GmMM8PCaYAIWCD7VgTFmFxOy4doACEiOm2Y4WUYUnbbd1hChABptuOI8SDyPMnOPmjgQIQES31gSzE0pY8jZVtt3WHKUDE2GA7lswimOcrgwKgCNPfdiwBFzFvx6UDTAEUY4vtuAM8sB2XNlAANCBGtuN5xKzttu4wBdAIi23HDmLadlt3uALQEItsxy6AvH9811UdDHkeCoDGGGw79sA83wgoAJpjoO24BOb5xsAagCEYYDt2wHZcxsEVgGFoaDt2AVxiOy4zoQAYyDPHilUJgQtR2WfbbYNhCmAwibEFD8BMbXVqHsA0gHcRvvV4EcBHnPR2QAGwAF8I5gHM11anxgHkAFz0/9ktHkR+/3sAi+y/Zxd8NZjl+KajcQBl33+wJ5X1wgzEEr/MvJ4QQgghhBBCCCGEEEIM5v8BRnF7+b+QUYQAAAAASUVORK5CYIIoAAAAgAAAAAABAAABACAAAAAAAAAAAQAAAAAAAAAAAAAAAAAAAAAAAAAAAAAAAAAAAAAAAAAAAAAAAAAAAAAAAAAAAAAAAAAAAAAAAAAAAAAAAAAAAAAAAAAAAAAAAAAAAAAAAAAAAAAAAAAAAAAAAAAAAAAAAAAAAAAAAAAAAAAAAAAAAAAAAAAAAAAAAAAAAAAAAAAAAAAAAAAAAAAAAAAAAAAAAAAAAAAAAAAAAAAAAAAAAAAAAAAAAAAAAAAAAAAAAAAAAAAAAAAAAAAAAAAAAAAAAAAAAAAAAAAAAAAAAAAAAAAAAAAAAAAAAAAAAAAAAAAAAAAAAAAAAAAAAAAAAAAAAAAAAAAAAAAAAAAAAAAAAAAAAAAAAAAAAAAAAAAAAAAAAAAAAAAAAAAAAAAAAAAAAAAAAAAAAAAAAAAAAAAAAAAAAAAAAAAAAAAAAAAAAAAAAAAAAAAAAAAAAAAAAAAAAAAAAAAAAAAAAAAAAAAAAAAAAAAAAAAAAAAAAAAAAAAAAAAAAAAAAAAAAAAAAAAAAAAAAAAAAAAAAAAAAAAAAAAAAAAAAAAAAAAAAAAAAAAAAAAAAAAAAAAAAAAAAAAAAAAAAAAAAAAAAAAAAAAAAAAAAAAAAAAAAAAAAAAAAAAAAAAAAAAAAAAAAAAAAAAAAAAAAAAAAAAAAAAAAAAAAAAAAAAAAAAAAAAAAAAAAAAAAAAAAAAAAAAAAAAAAAAAAAAAAAAAAAAAAAAAAAAAAAAAAAAAAAAAAAAAAAAAAAAAAAAAAAAAAAAAAAAAAAAAAAAAAAAAAAAAAAAAAAAAAAAAAAAAAAAAAAAAAAAAAAAAAAAAAAAAAAAAAAAAAAAAAAAAAAAAAAAAAAAAAAAAAAAAAAAAAAAAAAAAAAAAAAAAAAAAAAAAAAAAAAAAAAAAAAAAAAAAAAAAAAAAAAAAAAAAAAAAAAAAAAAAAAAAAAAAAAAAAAAAAAAAAAAAAAAAAAAAAAAAAAAAAAAAAAAAAAAAAAAAAAAAAAAAAAAAAAAAAAAAAAAAAAAAAAAAAAAAAAAAAAAAAAAAAAAAAAAAAAAAAAAAAAAAAAAAAAAAAAAAAAAAAAAAAAAAAAAAAAAAAAAAAAAAAAAAAAAAAAAAAAAAAAAAAAAAAAAAAAAAAAAAAAAAAAAAAAAAAAAAAAAAAAAAAAAAAAAAAAAAAAAAAAAAAAAAAAAAAAAAAAAAAAAAAAAAAAAAAAAAAAAAAAAAAAAAAAAAAAAAAAAAAAAAAAAAAAAAAAAAAAAAAAAAAAAAAAAAAAAAAAAAAAAAAAAAAAAAAAAAAAAAAAAAAAAAAAAAAAAAAAAAAAAAAAAAAAAAAAAAAAAAAAAAAAAAAAAAAAAAAAAAAAAAAAAAAAAAAAAAAAAAAAAAAAAAAAAAAAAAAAAAAAAAAAAAAAAAAAAAAAAAAAAAAAAAAAAAAAAAAAAAAAAAAAAAAAAAAAAAAAAAAAAAAAAAAAAAAAAAAAAAAAAAAAAAAAAAAAAAAAAAAAAAAAAAAAAAAAAAAAAAAAAAAAAAAAAAAAAAAAAAAAAAAAAAAAAAAAAAAAAAAAAAAAAAAAAAAAAAAAAAAAAAAAAAAAAAAAAAAAAAAAAAAAAAAAAAAAAAAAAAAAAAAAAAAAAAAAAAAAAAAAAAAAAAAAAAAAAAAAAAAAAAAAAAAAAAAAAAAAAAAAAAAAAAAAAAAAAAAAAAAAAAAAAAAAAAAAAAAFfX/SxX1/0QAAAAAAAAAAAAAAAAAAAAAGHr9iBh6/YkAAAAAAAAAAAAAAAAAAAAAAAAAAAAAAAAAAAAAAAAAAAAAAAAAAAAAAAAAAAAAAAAAAAAAAAAAAAAAAAAAAAAAAAAAAAAAAAAAAAAAAAAAAAAAAAAAAAAAAAAAAAAAAAAAAAAAAAAAAAAAAAAAAAAAAAAAAAAAAAAAAAAAAAAAAAAAAAAAAAAAAAAAAAAAAAAAAAAAAAAAAAAAAAAAAAAAAAAAAAAAAAAAAAAAAAAAAAAAAAAAAAAAAAAAAAAAAAAAAAAAAAAAAAAAAAAAAAAAAAAAAAAAAAAAAAAAAAAAAAAAAAAAAAAAAAAAAAAAAAAAAAAAAAAAAAAAAAAAAAAAAAAAAAAAAAAAAAAAAAAAAAAAAAAAAAAAAAAAAAAAAAAAAAAAAAAAAAAAAAAAAAAAAAAAAAAAAAAAAAAAAAAAAAAAAAAAAAAAAAAAAAAAAAAAAAAAAAAAAAAAAAAAAAAAAAAAAAAAAAAAAAAAAAAAAAAAAAAAAAAAAAAAAAAAAAAAAAAAAAAAAAAAAAAAAAAAAAAAAAAAAAAAAAAAAAAAAAAAAAAAAAAAAAAAAAAAAAAAAAAAAAAAAAAAAAAAAAAAAAAAAAAAAAAAAAAAAAAAABX1/0EV9f9UFfX/ahX1/3vV9f9/1fX/UAAAAAAAAAAAAAAAAAAAAAAYev2gGHr9v9h6/bnYev2nGHr9kAAAAAAAAAAAAAAAAAAAAAAAAAAAAAAAAAAAAAAAAAAAAAAAAAAAAAAAAAAAAAAAAAAAAAAAAAAAAAAAAAAAAAAAAAAAAAAAAAAAAAAAAAAAAAAAAAAAAAAAAAAAAAAAAAAAAAAAAAAAAAAAAAAAAAAAAAAAAAAAAAAAAAAAAAAAAAAAAAAAAAAAAAAAAAAAAAAAAAAAAAAAAAAAAAAAAAAAAAAAAAAAAAAAAAAAAAAAAAAAAAAAAAAAAAAAAAAAAAAAAAAAAAAAAAAAAAAAAAAAAAAAAAAAAAAAAAAAAAAAAAAAAAAAAAAAAAAAAAAAAAAAAAAAAAAAAAAAAAAAAAAAAAAAAAAAAAAAAAAAAAAAAAAAAAAAAAAAAAAAAAAAAAAAAAAAAAAAAAAAAAAAAAAAAAAAAAAAAAAAAAAAAAAAAAAAAAAAAAAAAAAAAAAAAAAAAAAAAAAAAAAAAAAAAAAAAAAAAAAAAAAAAAAAAAAAAAAAAAAAAAAAAAAAAAAAAAAAAAAAAAAAAAAAAAAAAAAAAAAAAAAAAAAAAAAAAAAAAAAAAAAAAAAAAAAAAAAAAAAAAAAAAAAAAAAAABX1/0EV9f9YFfX/dtX1/3/V9f9/1fX/f9X1/3/V9f9QAAAAAAAAAAAAAAAAAAAAABh6/aAYev2/2Hr9v9h6/b/Yev2/2Hr9s9h6/ZMAAAAAAAAAAAAAAAAAAAAAAAAAAAAAAAAAAAAAAAAAAAAAAAAAAAAAAAAAAAAAAAAAAAAAAAAAAAAAAAAAAAAAAAAAAAAAAAAAAAAAAAAAAAAAAAAAAAAAAAAAAAAAAAAAAAAAAAAAAAAAAAAAAAAAAAAAAAAAAAAAAAAAAAAAAAAAAAAAAAAAAAAAAAAAAAAAAAAAAAAAAAAAAAAAAAAAAAAAAAAAAAAAAAAAAAAAAAAAAAAAAAAAAAAAAAAAAAAAAAAAAAAAAAAAAAAAAAAAAAAAAAAAAAAAAAAAAAAAAAAAAAAAAAAAAAAAAAAAAAAAAAAAAAAAAAAAAAAAAAAAAAAAAAAAAAAAAAAAAAAAAAAAAAAAAAAAAAAAAAAAAAAAAAAAAAAAAAAAAAAAAAAAAAAAAAAAAAAAAAAAAAAAAAAAAAAAAAAAAAAAAAAAAAAAAAAAAAAAAAAAAAAAAAAAAAAAAAAAAAAAAAAAAAAAAAAAAAAAAAAAAAAAAAAAAAAAAAAAAAAAAAAAAAAAAAAAAAAAAAAAAAAAAAAAAAAAAAAAAAAAAAAAAAAAAAAAAAAV9f9PFfX/c9X1/3/V9f9/1fX/f9X1/3/V9f9/1fX/f9X1/1AAAAAAAAAAAAAAAAAAAAAAGHr9oBh6/b/Yev2/2Hr9v9h6/b/Yev2/2Hr9v9h6/a7Yev2LAAAAAAAAAAAAAAAAAAAAAAAAAAAAAAAAAAAAAAAAAAAAAAAAAAAAAAAAAAAAAAAAAAAAAAAAAAAAAAAAAAAAAAAAAAAAAAAAAAAAAAAAAAAAAAAAAAAAAAAAAAAAAAAAAAAAAAAAAAAAAAAAAAAAAAAAAAAAAAAAAAAAAAAAAAAAAAAAAAAAAAAAAAAAAAAAAAAAAAAAAAAAAAAAAAAAAAAAAAAAAAAAAAAAAAAAAAAAAAAAAAAAAAAAAAAAAAAAAAAAAAAAAAAAAAAAAAAAAAAAAAAAAAAAAAAAAAAAAAAAAAAAAAAAAAAAAAAAAAAAAAAAAAAAAAAAAAAAAAAAAAAAAAAAAAAAAAAAAAAAAAAAAAAAAAAAAAAAAAAAAAAAAAAAAAAAAAAAAAAAAAAAAAAAAAAAAAAAAAAAAAAAAAAAAAAAAAAAAAAAAAAAAAAAAAAAAAAAAAAAAAAAAAAAAAAAAAAAAAAAAAAAAAAAAAAAAAAAAAAAAAAAAAAAAAAAAAAAAAAAAAAAAAAAAAAAAAAAAAAAAAAAAAAAAAAAAAAV9f9IFfX/adX1/3/V9f9/1fX/f9X1/3/V9f9/1fX/f9X1/3/V9f9/1fX/UAAAAAAAAAAAAAAAAAAAAAAYev2gGHr9v9h6/b/Yev2/2Hr9v9h6/b/Yev2/2Hr9v9h6/b7Yev2lGHr9hAAAAAAAAAAAAAAAAAAAAAAAAAAAAAAAAAAAAAAAAAAAAAAAAAAAAAAAAAAAAAAAAAAAAAAAAAAAAAAAAAAAAAAAAAAAAAAAAAAAAAAAAAAAAAAAAAAAAAAAAAAAAAAAAAAAAAAAAAAAAAAAAAAAAAAAAAAAAAAAAAAAAAAAAAAAAAAAAAAAAAAAAAAAAAAAAAAAAAAAAAAAAAAAAAAAAAAAAAAAAAAAAAAAAAAAAAAAAAAAAAAAAAAAAAAAAAAAAAAAAAAAAAAAAAAAAAAAAAAAAAAAAAAAAAAAAAAAAAAAAAAAAAAAAAAAAAAAAAAAAAAAAAAAAAAAAAAAAAAAAAAAAAAAAAAAAAAAAAAAAAAAAAAAAAAAAAAAAAAAAAAAAAAAAAAAAAAAAAAAAAAAAAAAAAAAAAAAAAAAAAAAAAAAAAAAAAAAAAAAAAAAAAAAAAAAAAAAAAAAAAAAAAAAAAAAAAAAAAAAAAAAAAAAAAAAAAAAAAAAAAAAAAAAAAAAAAAAAAAAAAAAAAAAAAAAAAAV9f9CFfX/YRX1/33V9f9/1fX/f9X1/3/V9f9/1fX/f9X1/3/V9f9/1fX/f9X1/3/V9f9QAAAAAAAAAAAAAAAAAAAAABh6/aAYev2/2Hr9v9h6/b/Yev2/2Hr9v9h6/b/Yev2/2Hr9v9h6/b/Yev272Hr9mxh6/YEAAAAAAAAAAAAAAAAAAAAAAAAAAAAAAAAAAAAAAAAAAAAAAAAAAAAAAAAAAAAAAAAAAAAAAAAAAAAAAAAAAAAAAAAAAAAAAAAAAAAAAAAAAAAAAAAAAAAAAAAAAAAAAAAAAAAAAAAAAAAAAAAAAAAAAAAAAAAAAAAAAAAAAAAAAAAAAAAAAAAAAAAAAAAAAAAAAAAAAAAAAAAAAAAAAAAAAAAAAAAAAAAAAAAAAAAAAAAAAAAAAAAAAAAAAAAAAAAAAAAAAAAAAAAAAAAAAAAAAAAAAAAAAAAAAAAAAAAAAAAAAAAAAAAAAAAAAAAAAAAAAAAAAAAAAAAAAAAAAAAAAAAAAAAAAAAAAAAAAAAAAAAAAAAAAAAAAAAAAAAAAAAAAAAAAAAAAAAAAAAAAAAAAAAAAAAAAAAAAAAAAAAAAAAAAAAAAAAAAAAAAAAAAAAAAAAAAAAAAAAAAAAAAAAAAAAAAAAAAAAAAAAAAAAAAAAAAAAAAAAAAAAAAAAAAAAAAAAAFfX/VxX1/3jV9f9/1fX/f9X1/3/V9f9/1fX/f9X1/3/V9f9/1fX/f9X1/3/V9f9/1fX/f9X1/1AAAAAAAAAAAAAAAAAAAAAAGHr9oBh6/b/Yev2/2Hr9v9h6/b/Yev2/2Hr9v9h6/b/Yev2/2Hr9v9h6/b/Yev2/2Hr9tdh6/ZIAAAAAAAAAAAAAAAAAAAAAAAAAAAAAAAAAAAAAAAAAAAAAAAAAAAAAAAAAAAAAAAAAAAAAAAAAAAAAAAAAAAAAAAAAAAAAAAAAAAAAAAAAAAAAAAAAAAAAAAAAAAAAAAAAAAAAAAAAAAAAAAAAAAAAAAAAAAAAAAAAAAAAAAAAAAAAAAAAAAAAAAAAAAAAAAAAAAAAAAAAAAAAAAAAAAAAAAAAAAAAAAAAAAAAAAAAAAAAAAAAAAAAAAAAAAAAAAAAAAAAAAAAAAAAAAAAAAAAAAAAAAAAAAAAAAAAAAAAAAAAAAAAAAAAAAAAAAAAAAAAAAAAAAAAAAAAAAAAAAAAAAAAAAAAAAAAAAAAAAAAAAAAAAAAAAAAAAAAAAAAAAAAAAAAAAAAAAAAAAAAAAAAAAAAAAAAAAAAAAAAAAAAAAAAAAAAAAAAAAAAAAAAAAAAAAAAAAAAAAAAAAAAAAAAAAAAAAAAAAAAAAAAAAAAAAAAAAAAAAAAFfX/TRX1/3HV9f9/1fX/f9X1/3/V9f9/1fX/f9X1/3/V9f9/1fX/f9X1/3/V9f9/1fX/f9X1/3/V9f9/1fX/UAAAAAAAAAAAAAAAAAAAAAAYev2gGHr9v9h6/b/Yev2/2Hr9v9h6/b/Yev2/2Hr9v9h6/b/Yev2/2Hr9v9h6/b/Yev2/2Hr9v9h6/azYev2JAAAAAAAAAAAAAAAAAAAAAAAAAAAAAAAAAAAAAAAAAAAAAAAAAAAAAAAAAAAAAAAAAAAAAAAAAAAAAAAAAAAAAAAAAAAAAAAAAAAAAAAAAAAAAAAAAAAAAAAAAAAAAAAAAAAAAAAAAAAAAAAAAAAAAAAAAAAAAAAAAAAAAAAAAAAAAAAAAAAAAAAAAAAAAAAAAAAAAAAAAAAAAAAAAAAAAAAAAAAAAAAAAAAAAAAAAAAAAAAAAAAAAAAAAAAAAAAAAAAAAAAAAAAAAAAAAAAAAAAAAAAAAAAAAAAAAAAAAAAAAAAAAAAAAAAAAAAAAAAAAAAAAAAAAAAAAAAAAAAAAAAAAAAAAAAAAAAAAAAAAAAAAAAAAAAAAAAAAAAAAAAAAAAAAAAAAAAAAAAAAAAAAAAAAAAAAAAAAAAAAAAAAAAAAAAAAAAAAAAAAAAAAAAAAAAAAAAAAAAAAAAAAAAAAAAAAAAAAAAAFfX/RhX1/2gV9f9/1fX/f9X1/3/V9f9/1fX/f9X1/3/V9f9/1fX/f9X1/3/V9f9/1fX/f9X1/3/V9f9/1fX/f9X1/3/V9f9QAAAAAAAAAAAAAAAAAAAAABh6/aAYev2/2Hr9v9h6/b/Yev2/2Hr9v9h6/b/Yev2/2Hr9v9h6/b/Yev2/2Hr9v9h6/b/Yev2/2Hr9v9h6/b7Yev2jGHr9hAAAAAAAAAAAAAAAAAAAAAAAAAAAAAAAAAAAAAAAAAAAAAAAAAAAAAAAAAAAAAAAAAAAAAAAAAAAAAAAAAAAAAAAAAAAAAAAAAAAAAAAAAAAAAAAAAAAAAAAAAAAAAAAAAAAAAAAAAAAAAAAAAAAAAAAAAAAAAAAAAAAAAAAAAAAAAAAAAAAAAAAAAAAAAAAAAAAAAAAAAAAAAAAAAAAAAAAAAAAAAAAAAAAAAAAAAAAAAAAAAAAAAAAAAAAAAAAAAAAAAAAAAAAAAAAAAAAAAAAAAAAAAAAAAAAAAAAAAAAAAAAAAAAAAAAAAAAAAAAAAAAAAAAAAAAAAAAAAAAAAAAAAAAAAAAAAAAAAAAAAAAAAAAAAAAAAAAAAAAAAAAAAAAAAAAAAAAAAAAAAAAAAAAAAAAAAAAAAAAAAAAAAAAAAAAAAAAAAAAAAAAAAAAAAAAAAAAAAAAFfX/QhX1/14V9f981fX/f9X1/3/V9f9/1fX/f9X1/3/V9f9/1fX/f9X1/3/V9f9/1fX/f9X1/3/V9f9/1fX/f9X1/3/V9f9/1fX/f9X1/1AAAAAAAAAAAAAAAAAAAAAAGHr9oBh6/b/Yev2/2Hr9v9h6/b/Yev2/2Hr9v9h6/b/Yev2/2Hr9v9h6/b/Yev2/2Hr9v9h6/b/Yev2/2Hr9v9h6/b/Yev262Hr9mhh6/YEAAAAAAAAAAAAAAAAAAAAAAAAAAAAAAAAAAAAAAAAAAAAAAAAAAAAAAAAAAAAAAAAAAAAAAAAAAAAAAAAAAAAAAAAAAAAAAAAAAAAAAAAAAAAAAAAAAAAAAAAAAAAAAAAAAAAAAAAAAAAAAAAAAAAAAAAAAAAAAAAAAAAAAAAAAAAAAAAAAAAAAAAAAAAAAAAAAAAAAAAAAAAAAAAAAAAAAAAAAAAAAAAAAAAAAAAAAAAAAAAAAAAAAAAAAAAAAAAAAAAAAAAAAAAAAAAAAAAAAAAAAAAAAAAAAAAAAAAAAAAAAAAAAAAAAAAAAAAAAAAAAAAAAAAAAAAAAAAAAAAAAAAAAAAAAAAAAAAAAAAAAAAAAAAAAAAAAAAAAAAAAAAAAAAAAAAAAAAAAAAAAAAAAAAAAAAAAAAAAAAAAAAAAAAAAAAAAAAAAAAAABX1/1UV9f921fX/f9X1/3/V9f9/1fX/f9X1/3/V9f9/1fX/f9X1/3/V9f9/1fX/f9X1/3/V9f9/1fX/f9X1/3/V9f9/1fX/f9X1/3/V9f9/1fX/UAAAAAAAAAAAAAAAAAAAAAAYev2gGHr9v9h6/b/Yev2/2Hr9v9h6/b/Yev2/2Hr9v9h6/b/Yev2/2Hr9v9h6/b/Yev2/2Hr9v9h6/b/Yev2/2Hr9v9h6/b/Yev2/2Hr9s9h6/ZAAAAAAAAAAAAAAAAAAAAAAAAAAAAAAAAAAAAAAAAAAAAAAAAAAAAAAAAAAAAAAAAAAAAAAAAAAAAAAAAAAAAAAAAAAAAAAAAAAAAAAAAAAAAAAAAAAAAAAAAAAAAAAAAAAAAAAAAAAAAAAAAAAAAAAAAAAAAAAAAAAAAAAAAAAAAAAAAAAAAAAAAAAAAAAAAAAAAAAAAAAAAAAAAAAAAAAAAAAAAAAAAAAAAAAAAAAAAAAAAAAAAAAAAAAAAAAAAAAAAAAAAAAAAAAAAAAAAAAAAAAAAAAAAAAAAAAAAAAAAAAAAAAAAAAAAAAAAAAAAAAAAAAAAAAAAAAAAAAAAAAAAAAAAAAAAAAAAAAAAAAAAAAAAAAAAAAAAAAAAAAAAAAAAAAAAAAAAAAAAAAAAAAAAAAAAAAAAAAAAAAAAAAABX1/0sV9f9u1fX/f9X1/3/V9f9/1fX/f9X1/3/V9f9/1fX/f9X1/3/V9f9/1fX/f9X1/3/V9f9/1fX/f9X1/3/V9f9/1fX/f9X1/3/V9f9/1fX/f9X1/3/V9f9QAAAAAAAAAAAAAAAAAAAAABh6/aAYev2/2Hr9v9h6/b/Yev2/2Hr9v9h6/b/Yev2/2Hr9v9h6/b/Yev2/2Hr9v9h6/b/Yev2/2Hr9v9h6/b/Yev2/2Hr9v9h6/b/Yev2/2Hr9v9h6/arYev2JAAAAAAAAAAAAAAAAAAAAAAAAAAAAAAAAAAAAAAAAAAAAAAAAAAAAAAAAAAAAAAAAAAAAAAAAAAAAAAAAAAAAAAAAAAAAAAAAAAAAAAAAAAAAAAAAAAAAAAAAAAAAAAAAAAAAAAAAAAAAAAAAAAAAAAAAAAAAAAAAAAAAAAAAAAAAAAAAAAAAAAAAAAAAAAAAAAAAAAAAAAAAAAAAAAAAAAAAAAAAAAAAAAAAAAAAAAAAAAAAAAAAAAAAAAAAAAAAAAAAAAAAAAAAAAAAAAAAAAAAAAAAAAAAAAAAAAAAAAAAAAAAAAAAAAAAAAAAAAAAAAAAAAAAAAAAAAAAAAAAAAAAAAAAAAAAAAAAAAAAAAAAAAAAAAAAAAAAAAAAAAAAAAAAAAAAAAAAAAAAAAAAABX1/0UV9f9mFfX/ftX1/3/V9f9/1fX/f9X1/3/V9f9/1fX/f9X1/3/V9f9/1fX/f9X1/3/V9f9/1fX/f9X1/3/V9f9/1fX/f9X1/3/V9f9/1fX/f9X1/3/V9f9/1fX/f9X1/1AAAAAAAAAAAAAAAAAAAAAAGHr9oBh6/b/Yev2/2Hr9v9h6/b/Yev2/2Hr9v9h6/b/Yev2/2Hr9v9h6/b/Yev2/2Hr9v9h6/b/Yev2/2Hr9v9h6/b/Yev2/2Hr9v9h6/b/Yev2/2Hr9v9h6/b3Yev2iGHr9gwAAAAAAAAAAAAAAAAAAAAAAAAAAAAAAAAAAAAAAAAAAAAAAAAAAAAAAAAAAAAAAAAAAAAAAAAAAAAAAAAAAAAAAAAAAAAAAAAAAAAAAAAAAAAAAAAAAAAAAAAAAAAAAAAAAAAAAAAAAAAAAAAAAAAAAAAAAAAAAAAAAAAAAAAAAAAAAAAAAAAAAAAAAAAAAAAAAAAAAAAAAAAAAAAAAAAAAAAAAAAAAAAAAAAAAAAAAAAAAAAAAAAAAAAAAAAAAAAAAAAAAAAAAAAAAAAAAAAAAAAAAAAAAAAAAAAAAAAAAAAAAAAAAAAAAAAAAAAAAAAAAAAAAAAAAAAAAAAAAAAAAAAAAAAAAAAAAAAAAAAAAAAAAAAAAAAAAAAAAAAAAABX1/0EV9f9bFfX/e9X1/3/V9f9/1fX/f9X1/3/V9f9/1fX/f9X1/3/V9f9/1fX/f9X1/3/V9f9/1fX/f9X1/3/V9f9/1fX/f9X1/3/V9f9/1fX/f9X1/3/V9f9/1fX/f9X1/3/V9f9/1fX/UAAAAAAAAAAAAAAAAAAAAAAYev2gGHr9v9h6/b/Yev2/2Hr9v9h6/b/Yev2/2Hr9v9h6/b/Yev2/2Hr9v9h6/b/Yev2/2Hr9v9h6/b/Yev2/2Hr9v9h6/b/Yev2/2Hr9v9h6/b/Yev2/2Hr9v9h6/b/Yev252Hr9mAAAAAAAAAAAAAAAAAAAAAAAAAAAAAAAAAAAAAAAAAAAAAAAAAAAAAAAAAAAAAAAAAAAAAAAAAAAAAAAAAAAAAAAAAAAAAAAAAAAAAAAAAAAAAAAAAAAAAAAAAAAAAAAAAAAAAAAAAAAAAAAAAAAAAAAAAAAAAAAAAAAAAAAAAAAAAAAAAAAAAAAAAAAAAAAAAAAAAAAAAAAAAAAAAAAAAAAAAAAAAAAAAAAAAAAAAAAAAAAAAAAAAAAAAAAAAAAAAAAAAAAAAAAAAAAAAAAAAAAAAAAAAAAAAAAAAAAAAAAAAAAAAAAAAAAAAAAAAAAAAAAAAAAAAAAAAAAAAAAAAAAAAAAAAAAAAAAAAAAAAAAAAAAAAAAAAAV9f9SFfX/ddX1/3/V9f9/1fX/f9X1/3/V9f9/1fX/f9X1/3/V9f9/1fX/f9X1/3/V9f9/1fX/f9X1/3/V9f9/1fX/f9X1/3/V9f9/1fX/f9X1/3/V9f9/1fX/f9X1/3/U9T8/ze79/8epfL/Fp7xQAAAAAAAAAAAAAAAAAAAAAAl0fyANNf6/1Hk+P9h6/b/Yev2/2Hr9v9h6/b/Yev2/2Hr9v9h6/b/Yev2/2Hr9v9h6/b/Yev2/2Hr9v9h6/b/Yev2/2Hr9v9h6/b/Yev2/2Hr9v9h6/b/Yev2/2Hr9v9h6/b/Yev2/2Hr9sth6/Y8AAAAAAAAAAAAAAAAAAAAAAAAAAAAAAAAAAAAAAAAAAAAAAAAAAAAAAAAAAAAAAAAAAAAAAAAAAAAAAAAAAAAAAAAAAAAAAAAAAAAAAAAAAAAAAAAAAAAAAAAAAAAAAAAAAAAAAAAAAAAAAAAAAAAAAAAAAAAAAAAAAAAAAAAAAAAAAAAAAAAAAAAAAAAAAAAAAAAAAAAAAAAAAAAAAAAAAAAAAAAAAAAAAAAAAAAAAAAAAAAAAAAAAAAAAAAAAAAAAAAAAAAAAAAAAAAAAAAAAAAAAAAAAAAAAAAAAAAAAAAAAAAAAAAAAAAAAAAAAAAAAAAAAAAAAAAAAAAAAAAAAAAAAAAAAAAV9f9JFfX/bNX1/3/V9f9/1fX/f9X1/3/V9f9/1fX/f9X1/3/V9f9/1fX/f9X1/3/V9f9/1fX/f9X1/3/V9f9/1fX/f9X1/3/V9f9/1fX/f9X1/3/V9f9/1fX/f9X1/3/UNH8/yat9P8Dju3/AIvs/wCL7P8Ai+xAAAAAAAAAAAAAAAAAAAAAAADB/4AAwf//AMH//xTK/f9D3vn/Yev2/2Hr9v9h6/b/Yev2/2Hr9v9h6/b/Yev2/2Hr9v9h6/b/Yev2/2Hr9v9h6/b/Yev2/2Hr9v9h6/b/Yev2/2Hr9v9h6/b/Yev2/2Hr9v9h6/b/Yev2/2Hr9v9h6/anYev2HAAAAAAAAAAAAAAAAAAAAAAAAAAAAAAAAAAAAAAAAAAAAAAAAAAAAAAAAAAAAAAAAAAAAAAAAAAAAAAAAAAAAAAAAAAAAAAAAAAAAAAAAAAAAAAAAAAAAAAAAAAAAAAAAAAAAAAAAAAAAAAAAAAAAAAAAAAAAAAAAAAAAAAAAAAAAAAAAAAAAAAAAAAAAAAAAAAAAAAAAAAAAAAAAAAAAAAAAAAAAAAAAAAAAAAAAAAAAAAAAAAAAAAAAAAAAAAAAAAAAAAAAAAAAAAAAAAAAAAAAAAAAAAAAAAAAAAAAAAAAAAAAAAAAAAAAAAAAAAAAAAAAAAAAAAAV9f9EFfX/YxX1/37V9f9/1fX/f9X1/3/V9f9/1fX/f9X1/3/V9f9/1fX/f9X1/3/V9f9/1fX/f9X1/3/V9f9/1fX/f9X1/3/V9f9/1fX/f9X1/3/V9f9/1fX/f9X1/3/Vtb9/zG29v8GkO3/AIvs/wCL7P8Ai+z/AIvs/wCL7EAAAAAAAAAAAAAAAAAAAAAAAMH/gADB//8Awf//AMH//wDB//8YzP3/T+P4/2Hr9v9h6/b/Yev2/2Hr9v9h6/b/Yev2/2Hr9v9h6/b/Yev2/2Hr9v9h6/b/Yev2/2Hr9v9h6/b/Yev2/2Hr9v9h6/b/Yev2/2Hr9v9h6/b/Yev2/2Hr9v9h6/b3Yev2gGHr9ggAAAAAAAAAAAAAAAAAAAAAAAAAAAAAAAAAAAAAAAAAAAAAAAAAAAAAAAAAAAAAAAAAAAAAAAAAAAAAAAAAAAAAAAAAAAAAAAAAAAAAAAAAAAAAAAAAAAAAAAAAAAAAAAAAAAAAAAAAAAAAAAAAAAAAAAAAAAAAAAAAAAAAAAAAAAAAAAAAAAAAAAAAAAAAAAAAAAAAAAAAAAAAAAAAAAAAAAAAAAAAAAAAAAAAAAAAAAAAAAAAAAAAAAAAAAAAAAAAAAAAAAAAAAAAAAAAAAAAAAAAAAAAAAAAAAAAAAAAAAAAAAAAAAAAV9f9BFfX/WRX1/3nV9f9/1fX/f9X1/3/V9f9/1fX/f9X1/3/V9f9/1fX/f9X1/3/V9f9/1fX/f9X1/3/V9f9/1fX/f9X1/3/V9f9/1fX/f9X1/3/V9f9/1fX/f9X1/3/V9f9/z/C+P8Ol+//AIvs/wCL7P8Ai+z/AIvs/wCL7P8Ai+z/AIvsQAAAAAAAAAAAAAAAAAAAAAAAwf+AAMH//wDB//8Awf//AMH//wDB//8Cwv//JtH8/1ro9/9h6/b/Yev2/2Hr9v9h6/b/Yev2/2Hr9v9h6/b/Yev2/2Hr9v9h6/b/Yev2/2Hr9v9h6/b/Yev2/2Hr9v9h6/b/Yev2/2Hr9v9h6/b/Yev2/2Hr9v9h6/b/Yev242Hr9lwAAAAAAAAAAAAAAAAAAAAAAAAAAAAAAAAAAAAAAAAAAAAAAAAAAAAAAAAAAAAAAAAAAAAAAAAAAAAAAAAAAAAAAAAAAAAAAAAAAAAAAAAAAAAAAAAAAAAAAAAAAAAAAAAAAAAAAAAAAAAAAAAAAAAAAAAAAAAAAAAAAAAAAAAAAAAAAAAAAAAAAAAAAAAAAAAAAAAAAAAAAAAAAAAAAAAAAAAAAAAAAAAAAAAAAAAAAAAAAAAAAAAAAAAAAAAAAAAAAAAAAAAAAAAAAAAAAAAAAAAAAAAAAAAAAAAAAAAAAFfX/TxX1/3PV9f9/1fX/f9X1/3/V9f9/1fX/f9X1/3/V9f9/1fX/f9X1/3/V9f9/1fX/f9X1/3/V9f9/1fX/f9X1/3/V9f9/1fX/f9X1/3/V9f9/1fX/f9X1/3/V9f9/0vM+/8ZofH/AIvs/wCL7P8Ai+z/AIvs/wCL7P8Ai+z/AIvs/wCL7P8Ai+xAAAAAAAAAAAAAAAAAAAAAAADB/4AAwf//AMH//wDB//8Awf//AMH//wDB//8Awf//BsT//zXY+v9g6vb/Yev2/2Hr9v9h6/b/Yev2/2Hr9v9h6/b/Yev2/2Hr9v9h6/b/Yev2/2Hr9v9h6/b/Yev2/2Hr9v9h6/b/Yev2/2Hr9v9h6/b/Yev2/2Hr9v9h6/b/Yev2/2Hr9sdh6/Y0AAAAAAAAAAAAAAAAAAAAAAAAAAAAAAAAAAAAAAAAAAAAAAAAAAAAAAAAAAAAAAAAAAAAAAAAAAAAAAAAAAAAAAAAAAAAAAAAAAAAAAAAAAAAAAAAAAAAAAAAAAAAAAAAAAAAAAAAAAAAAAAAAAAAAAAAAAAAAAAAAAAAAAAAAAAAAAAAAAAAAAAAAAAAAAAAAAAAAAAAAAAAAAAAAAAAAAAAAAAAAAAAAAAAAAAAAAAAAAAAAAAAAAAAAAAAAAAAAAAAAAAAAAAAAAAAAAAAAFfX/SBX1/2nV9f9/1fX/f9X1/3/V9f9/1fX/f9X1/3/V9f9/1fX/f9X1/3/V9f9/1fX/f9X1/3/V9f9/1fX/f9X1/3/V9f9/1fX/f9X1/3/V9f9/1fX/f9X1/3/V9f9/1LS/P8nrvT/AYzs/wCL7P8Ai+z/AIvs/wCL7P8Ai+z/AIvs/wCL7P8Ai+z/AIvs/wCL7EAAAAAAAAAAAAAAAAAAAAAAAMH/gADB//8Awf//AMH//wDB//8Awf//AMH//wDB//8Awf//AMH//w7H/v9E3/n/Yev2/2Hr9v9h6/b/Yev2/2Hr9v9h6/b/Yev2/2Hr9v9h6/b/Yev2/2Hr9v9h6/b/Yev2/2Hr9v9h6/b/Yev2/2Hr9v9h6/b/Yev2/2Hr9v9h6/b/Yev2/2Hr9v9h6/agYev2GAAAAAAAAAAAAAAAAAAAAAAAAAAAAAAAAAAAAAAAAAAAAAAAAAAAAAAAAAAAAAAAAAAAAAAAAAAAAAAAAAAAAAAAAAAAAAAAAAAAAAAAAAAAAAAAAAAAAAAAAAAAAAAAAAAAAAAAAAAAAAAAAAAAAAAAAAAAAAAAAAAAAAAAAAAAAAAAAAAAAAAAAAAAAAAAAAAAAAAAAAAAAAAAAAAAAAAAAAAAAAAAAAAAAAAAAAAAAAAAAAAAAAAAAAAAAAAAAFfX/QhX1/2EV9f991fX/f9X1/3/V9f9/1fX/f9X1/3/V9f9/1fX/f9X1/3/V9f9/1fX/f9X1/3/V9f9/1fX/f9X1/3/V9f9/1fX/f9X1/3/V9f9/1fX/f9X1/3/V9f9/1bW/f81uvf/B5Ht/wCL7P8Ai+z/AIvs/wCL7P8Ai+z/AIvs/wCL7P8Ai+z/AIvs/wCL7P8Ai+z/AIvsQAAAAAAAAAAAAAAAAAAAAAAAwf+AAMH//wDB//8Awf//AMH//wDB//8Awf//AMH//wDB//8Awf//AMH//wDB//8azP3/UuT4/2Hr9v9h6/b/Yev2/2Hr9v9h6/b/Yev2/2Hr9v9h6/b/Yev2/2Hr9v9h6/b/Yev2/2Hr9v9h6/b/Yev2/2Hr9v9h6/b/Yev2/2Hr9v9h6/b/Yev2/2Hr9v9h6/bzYev2fGHr9ggAAAAAAAAAAAAAAAAAAAAAAAAAAAAAAAAAAAAAAAAAAAAAAAAAAAAAAAAAAAAAAAAAAAAAAAAAAAAAAAAAAAAAAAAAAAAAAAAAAAAAAAAAAAAAAAAAAAAAAAAAAAAAAAAAAAAAAAAAAAAAAAAAAAAAAAAAAAAAAAAAAAAAAAAAAAAAAAAAAAAAAAAAAAAAAAAAAAAAAAAAAAAAAAAAAAAAAAAAAAAAAAAAAAAAAAAAAAAAAABX1/1cV9f941fX/f9X1/3/V9f9/1fX/f9X1/3/V9f9/1fX/f9X1/3/V9f9/1fX/f9X1/3/V9f9/1fX/f9X1/3/V9f9/1fX/f9X1/3/V9f9/1fX/f9X1/3/V9f9/1fX/f9BxPn/EJrv/wCL7P8Ai+z/AIvs/wCL7P8Ai+z/AIvs/wCL7P8Ai+z/AIvs/wCL7P8Ai+z/AIvs/wCL7P8Ai+xAAAAAAAAAAAAAAAAAAAAAAADB/4AAwf//AMH//wDB//8Awf//AMH//wDB//8Awf//AMH//wDB//8Awf//AMH//wDB//8Cwv//KdP7/1vp9/9h6/b/Yev2/2Hr9v9h6/b/Yev2/2Hr9v9h6/b/Yev2/2Hr9v9h6/b/Yev2/2Hr9v9h6/b/Yev2/2Hr9v9h6/b/Yev2/2Hr9v9h6/b/Yev2/2Hr9v9h6/b/Yev232Hr9lQAAAAAAAAAAAAAAAAAAAAAAAAAAAAAAAAAAAAAAAAAAAAAAAAAAAAAAAAAAAAAAAAAAAAAAAAAAAAAAAAAAAAAAAAAAAAAAAAAAAAAAAAAAAAAAAAAAAAAAAAAAAAAAAAAAAAAAAAAAAAAAAAAAAAAAAAAAAAAAAAAAAAAAAAAAAAAAAAAAAAAAAAAAAAAAAAAAAAAAAAAAAAAAAAAAAAAAAAAAAAAAABX1/00V9f9x1fX/f9X1/3/V9f9/1fX/f9X1/3/V9f9/1fX/f9X1/3/V9f9/1fX/f9X1/3/V9f9/1fX/f9X1/3/V9f9/1fX/f9X1/3/V9f9/1fX/f9X1/3/V9f9/1fX/f9Mzvv/HqXy/wCL7P8Ai+z/AIvs/wCL7P8Ai+z/AIvs/wCL7P8Ai+z/AIvs/wCL7P8Ai+z/AIvs/wCL7P8Ai+z/AIvs/wCL7EAAAAAAAAAAAAAAAAAAAAAAAMH/gADB//8Awf//AMH//wDB//8Awf//AMH//wDB//8Awf//AMH//wDB//8Awf//AMH//wDB//8Awf//BsT//zjZ+v9g6vb/Yev2/2Hr9v9h6/b/Yev2/2Hr9v9h6/b/Yev2/2Hr9v9h6/b/Yev2/2Hr9v9h6/b/Yev2/2Hr9v9h6/b/Yev2/2Hr9v9h6/b/Yev2/2Hr9v9h6/b/Yev2/2Hr9r9h6/YwAAAAAAAAAAAAAAAAAAAAAAAAAAAAAAAAAAAAAAAAAAAAAAAAAAAAAAAAAAAAAAAAAAAAAAAAAAAAAAAAAAAAAAAAAAAAAAAAAAAAAAAAAAAAAAAAAAAAAAAAAAAAAAAAAAAAAAAAAAAAAAAAAAAAAAAAAAAAAAAAAAAAAAAAAAAAAAAAAAAAAAAAAAAAAAAAAAAAAAAAAABX1/0YV9f9oFfX/f9X1/3/V9f9/1fX/f9X1/3/V9f9/1fX/f9X1/3/V9f9/1fX/f9X1/3/V9f9/1fX/f9X1/3/V9f9/1fX/f9X1/3/V9f9/1fX/f9X1/3/V9f9/1fX/f9T1Pz/KrD0/wOO7f8Ai+z/AIvs/wCL7P8Ai+z/AIvs/wCL7P8Ai+z/AIvs/wCL7P8Ai+z/AIvs/wCL7P8Ai+z/AIvs/wCL7P8Ai+z/AIvsQAAAAAAAAAAAAAAAAAAAAAAAwf+AAMH//wDB//8Awf//AMH//wDB//8Awf//AMH//wDB//8Awf//AMH//wDB//8Awf//AMH//wDB//8Awf//AMH//w/I/v9H4Pj/Yev2/2Hr9v9h6/b/Yev2/2Hr9v9h6/b/Yev2/2Hr9v9h6/b/Yev2/2Hr9v9h6/b/Yev2/2Hr9v9h6/b/Yev2/2Hr9v9h6/b/Yev2/2Hr9v9h6/b/Yev2/2Hr9vth6/acYev2GAAAAAAAAAAAAAAAAAAAAAAAAAAAAAAAAAAAAAAAAAAAAAAAAAAAAAAAAAAAAAAAAAAAAAAAAAAAAAAAAAAAAAAAAAAAAAAAAAAAAAAAAAAAAAAAAAAAAAAAAAAAAAAAAAAAAAAAAAAAAAAAAAAAAAAAAAAAAAAAAAAAAAAAAAAAAAAAAAAAAABX1/0IV9f9eFfX/e9X1/3/V9f9/1fX/f9X1/3/V9f9/1fX/f9X1/3/V9f9/1fX/f9X1/3/V9f9/1fX/f9X1/3/V9f9/1fX/f9X1/3/V9f9/1fX/f9X1/3/V9f9/1fX/f9X1/3/OLz3/wqT7v8Ai+z/AIvs/wCL7P8Ai+z/AIvs/wCL7P8Ai+z/AIvs/wCL7P8Ai+z/AIvs/wCL7P8Ai+z/AIvs/wCL7P8Ai+z/AIvs/wCL7P8Ai+xAAAAAAAAAAAAAAAAAAAAAAADB/4AAwf//AMH//wDB//8Awf//AMH//wDB//8Awf//AMH//wDB//8Awf//AMH//wDB//8Awf//AMH//wDB//8Awf//AMH//wDB//8dzvz/VOX4/2Hr9v9h6/b/Yev2/2Hr9v9h6/b/Yev2/2Hr9v9h6/b/Yev2/2Hr9v9h6/b/Yev2/2Hr9v9h6/b/Yev2/2Hr9v9h6/b/Yev2/2Hr9v9h6/b/Yev2/2Hr9v9h6/bvYev2dGHr9gQAAAAAAAAAAAAAAAAAAAAAAAAAAAAAAAAAAAAAAAAAAAAAAAAAAAAAAAAAAAAAAAAAAAAAAAAAAAAAAAAAAAAAAAAAAAAAAAAAAAAAAAAAAAAAAAAAAAAAAAAAAAAAAAAAAAAAAAAAAAAAAAAAAAAAAAAAAAAAAAAAAAAAV9f9OFfX/ddX1/3/V9f9/1fX/f9X1/3/V9f9/1fX/f9X1/3/V9f9/1fX/f9X1/3/V9f9/1fX/f9X1/3/V9f9/1fX/f9X1/3/V9f9/1fX/f9X1/3/V9f9/1fX/f9X1/3/RMf5/xOc8P8Ai+z/AIvs/wCL7P8Ai+z/AIvs/wCL7P8Ai+z/AIvs/wCL7P8Ai+z/AIvs/wCL7P8Ai+z/AIvs/wCL7P8Ai+z/AIvs/wCL7P8Ai+z/AIvs/wCL7EAAAAAAAAAAAAAAAAAAAAAAAMH/gADB//8Awf//AMH//wDB//8Awf//AMH//wDB//8Awf//AMH//wDB//8Awf//AMH//wDB//8Awf//AMH//wDB//8Awf//AMH//wDB//8Cwv//LNT7/1vp9/9h6/b/Yev2/2Hr9v9h6/b/Yev2/2Hr9v9h6/b/Yev2/2Hr9v9h6/b/Yev2/2Hr9v9h6/b/Yev2/2Hr9v9h6/b/Yev2/2Hr9v9h6/b/Yev2/2Hr9v9h6/b/Yev212Hr9jQAAAAAAAAAAAAAAAAAAAAAAAAAAAAAAAAAAAAAAAAAAAAAAAAAAAAAAAAAAAAAAAAAAAAAAAAAAAAAAAAAAAAAAAAAAAAAAAAAAAAAAAAAAAAAAAAAAAAAAAAAAAAAAAAAAAAAAAAAAAAAAAAAAAAAAAAAAFfX/WhX1/37V9f9/1fX/f9X1/3/V9f9/1fX/f9X1/3/V9f9/1fX/f9X1/3/V9f9/1fX/f9X1/3/V9f9/1fX/f9X1/3/V9f9/1fX/f9X1/3/V9f9/1fX/f9X1/3/T9D8/yGo8/8Ai+z/AIvs/wCL7P8Ai+z/AIvs/wCL7P8Ai+z/AIvs/wCL7P8Ai+z/AIvs/wCL7P8Ai+z/AIvs/wCL7P8Ai+z/AIvs/wCL7P8Ai+z/AIvs/wCL7P8Ai+z/AIvsQAAAAAAAAAAAAAAAAAAAAAAAwf+AAMH//wDB//8Awf//AMH//wDB//8Awf//AMH//wDB//8Awf//AMH//wDB//8Awf//AMH//wDB//8Awf//AMH//wDB//8Awf//AMH//wDB//8Awf//CMT+/zvb+v9g6vb/Yev2/2Hr9v9h6/b/Yev2/2Hr9v9h6/b/Yev2/2Hr9v9h6/b/Yev2/2Hr9v9h6/b/Yev2/2Hr9v9h6/b/Yev2/2Hr9v9h6/b/Yev2/2Hr9v9h6/b/Yev2+2Hr9mQAAAAAAAAAAAAAAAAAAAAAAAAAAAAAAAAAAAAAAAAAAAAAAAAAAAAAAAAAAAAAAAAAAAAAAAAAAAAAAAAAAAAAAAAAAAAAAAAAAAAAAAAAAAAAAAAAAAAAAAAAAAAAAAAAAAAAAAAAAAAAAABX1/1wV9f9/1fX/f9X1/3/V9f9/1fX/f9X1/3/V9f9/1fX/f9X1/3/V9f9/1fX/f9X1/3/V9f9/1fX/f9X1/3/V9f9/1fX/f9X1/3/V9f9/1fX/f9X1/3/VNX9/y2y9f8Ej+3/AIvs/wCL7P8Ai+z/AIvs/wCL7P8Ai+z/AIvs/wCL7P8Ai+z/AIvs/wCL7P8Ai+z/AIvs/wCL7P8Ai+z/AIvs/wCL7P8Ai+z/AIvs/wCL7P8Ai+z/AIvs/wCL7P8Ai+xAAAAAAAAAAAAAAAAAAAAAAADB/4AAwf//AMH//wDB//8Awf//AMH//wDB//8Awf//AMH//wDB//8Awf//AMH//wDB//8Awf//AMH//wDB//8Awf//AMH//wDB//8Awf//AMH//wDB//8Awf//AMH//xLJ/f9J4fj/Yev2/2Hr9v9h6/b/Yev2/2Hr9v9h6/b/Yev2/2Hr9v9h6/b/Yev2/2Hr9v9h6/b/Yev2/2Hr9v9h6/b/Yev2/2Hr9v9h6/b/Yev2/2Hr9v9h6/b/Yev2/2Hr9nAAAAAAAAAAAAAAAAAAAAAAAAAAAAAAAAAAAAAAAAAAAAAAAAAAAAAAAAAAAAAAAAAAAAAAAAAAAAAAAAAAAAAAAAAAAAAAAAAAAAAAAAAAAAAAAAAAAAAAAAAAAAAAAAAAAAAAV9f9bFfX/f9X1/3/V9f9/1fX/f9X1/3/V9f9/1fX/f9X1/3/V9f9/1fX/f9X1/3/V9f9/1fX/f9X1/3/V9f9/1fX/f9X1/3/V9f9/1fX/f9X1/3/V9f9/zu++P8Mlu//AIvs/wCL7P8Ai+z/AIvs/wCL7P8Ai+z/AIvs/wCL7P8Ai+z/AIvs/wCL7P8Ai+z/AIvs/wCL7P8Ai+z/AIvs/wCL7P8Ai+z/AIvs/wCL7P8Ai+z/AIvs/wCL7P8Ai+z/AIvs/wCL7EAAAAAAAAAAAAAAAAAAAAAAAMH/gADB//8Awf//AMH//wDB//8Awf//AMH//wDB//8Awf//AMH//wDB//8Awf//AMH//wDB//8Awf//AMH//wDB//8Awf//AMH//wDB//8Awf//AMH//wDB//8Awf//AMH//wDB//8gz/z/VOX4/2Hr9v9h6/b/Yev2/2Hr9v9h6/b/Yev2/2Hr9v9h6/b/Yev2/2Hr9v9h6/b/Yev2/2Hr9v9h6/b/Yev2/2Hr9v9h6/b/Yev2/2Hr9v9h6/b/Yev2/2Hr9mgAAAAAAAAAAAAAAAAAAAAAAAAAAAAAAAAAAAAAAAAAAAAAAAAAAAAAAAAAAAAAAAAAAAAAAAAAAAAAAAAAAAAAAAAAAAAAAAAAAAAAAAAAAAAAAAAAAAAAAAAAAFfX/TxX1/37V9f9/1fX/f9X1/3/V9f9/1fX/f9X1/3/V9f9/1fX/f9X1/3/V9f9/1fX/f9X1/3/V9f9/1fX/f9X1/3/V9f9/1fX/f9X1/3/V9f9/0jK+v8WnvD/AIvs/wCL7P8Ai+z/AIvs/wCL7P8Ai+z/AIvs/wCL7P8Ai+z/AIvs/wCL7P8Ai+z/AIvs/wCL7P8Ai+z/AIvs/wCL7P8Ai+z/AIvs/wCL7P8Ai+z/AIvs/wCL7P8Ai+z/AIvs/wCL7P8Ai+z/AIvsQAAAAAAAAAAAAAAAAAAAAAAAwf+AAMH//wDB//8Awf//AMH//wDB//8Awf//AMH//wDB//8Awf//AMH//wDB//8Awf//AMH//wDB//8Awf//AMH//wDB//8Awf//AMH//wDB//8Awf//AMH//wDB//8Awf//AMH//wDB//8Dwv//L9b7/13p9/9h6/b/Yev2/2Hr9v9h6/b/Yev2/2Hr9v9h6/b/Yev2/2Hr9v9h6/b/Yev2/2Hr9v9h6/b/Yev2/2Hr9v9h6/b/Yev2/2Hr9v9h6/b/Yev2+2Hr9jgAAAAAAAAAAAAAAAAAAAAAAAAAAAAAAAAAAAAAAAAAAAAAAAAAAAAAAAAAAAAAAAAAAAAAAAAAAAAAAAAAAAAAAAAAAAAAAAAAAAAAAAAAAAAAAABX1/0IV9f931fX/f9X1/3/V9f9/1fX/f9X1/3/V9f9/1fX/f9X1/3/V9f9/1fX/f9X1/3/V9f9/1fX/f9X1/3/V9f9/1fX/f9X1/3/V9f9/1DR/P8kqvP/AYzs/wCL7P8Ai+z/AIvs/wCL7P8Ai+z/AIvs/wCL7P8Ai+z/AIvs/wCL7P8Ai+z/AIvs/wCL7P8Ai+z/AIvs/wCL7P8Ai+z/AIvs/wCL7P8Ai+z/AIvs/wCL7P8Ai+z/AIvs/wCL7P8Ai+z/AIvs/wCL7P8Ai+xAAAAAAAAAAAAAAAAAAAAAAADB/4AAwf//AMH//wDB//8Awf//AMH//wDB//8Awf//AMH//wDB//8Awf//AMH//wDB//8Awf//AMH//wDB//8Awf//AMH//wDB//8Awf//AMH//wDB//8Awf//AMH//wDB//8Awf//AMH//wDB//8Awf//CcX+/z3b+v9h6/b/Yev2/2Hr9v9h6/b/Yev2/2Hr9v9h6/b/Yev2/2Hr9v9h6/b/Yev2/2Hr9v9h6/b/Yev2/2Hr9v9h6/b/Yev2/2Hr9v9h6/b/Yev232Hr9ggAAAAAAAAAAAAAAAAAAAAAAAAAAAAAAAAAAAAAAAAAAAAAAAAAAAAAAAAAAAAAAAAAAAAAAAAAAAAAAAAAAAAAAAAAAAAAAAAAAAAAAAAAAFfX/YBX1/3/V9f9/1fX/f9X1/3/V9f9/1fX/f9X1/3/V9f9/1fX/f9X1/3/V9f9/1fX/f9X1/3/V9f9/1fX/f9X1/3/V9f9/1bW/f8xtvb/BpDt/wCL7P8Ai+z/AIvs/wCL7P8Ai+z/AIvs/wCL7P8Ai+z/AIvs/wCL7P8Ai+z/AIvs/wCL7P8Ai+z/AIvs/wCL7P8Ai+z/AIvs/wCL7P8Ai+z/AIvs/wCL7P8Ai+z/AIvs/wCL7P8Ai+z/AIvs/wCL7P8Ai+z/AIvs/wCL7EAAAAAAAAAAAAAAAAAAAAAAAMH/gADB//8Awf//AMH//wDB//8Awf//AMH//wDB//8Awf//AMH//wDB//8Awf//AMH//wDB//8Awf//AMH//wDB//8Awf//AMH//wDB//8Awf//AMH//wDB//8Awf//AMH//wDB//8Awf//AMH//wDB//8Awf//AMH//xTK/f9K4fj/Yev2/2Hr9v9h6/b/Yev2/2Hr9v9h6/b/Yev2/2Hr9v9h6/b/Yev2/2Hr9v9h6/b/Yev2/2Hr9v9h6/b/Yev2/2Hr9v9h6/b/Yev2gAAAAAAAAAAAAAAAAAAAAAAAAAAAAAAAAAAAAAAAAAAAAAAAAAAAAAAAAAAAAAAAAAAAAAAAAAAAAAAAAAAAAAAAAAAAAAAAAAAAAABX1/0QV9f971fX/f9X1/3/V9f9/1fX/f9X1/3/V9f9/1fX/f9X1/3/V9f9/1fX/f9X1/3/V9f9/1fX/f9X1/3/V9f9/1fX/f8/wvj/Dpfv/wCL7P8Ai+z/AIvs/wCL7P8Ai+z/AIvs/wCL7P8Ai+z/AIvs/wCL7P8Ai+z/AIvs/wCL7P8Ai+z/AIvs/wCL7P8Ai+z/AIvs/wCL7P8Ai+z/AIvs/wCL7P8Ai+z/AIvs/wCL7P8Ai+z/AIvs/wCL7P8Ai+z/AIvs/wCL7P8Ai+z/AIvsQAAAAAAAAAAAAAAAAAAAAAAAwf+AAMH//wDB//8Awf//AMH//wDB//8Awf//AMH//wDB//8Awf//AMH//wDB//8Awf//AMH//wDB//8Awf//AMH//wDB//8Awf//AMH//wDB//8Awf//AMH//wDB//8Awf//AMH//wDB//8Awf//AMH//wDB//8Awf//AMH//wDB//8j0Pz/V+f3/2Hr9v9h6/b/Yev2/2Hr9v9h6/b/Yev2/2Hr9v9h6/b/Yev2/2Hr9v9h6/b/Yev2/2Hr9v9h6/b/Yev2/2Hr9v9h6/bvYev2EAAAAAAAAAAAAAAAAAAAAAAAAAAAAAAAAAAAAAAAAAAAAAAAAAAAAAAAAAAAAAAAAAAAAAAAAAAAAAAAAAAAAAAAAAAAAAAAAFfX/WxX1/3/V9f9/1fX/f9X1/3/V9f9/1fX/f9X1/3/V9f9/1fX/f9X1/3/V9f9/1fX/f9X1/3/V9f9/1fX/f9T1Pz/HqXy/wCL7P8Ai+z/AIvs/wCL7P8Ai+z/AIvs/wCL7P8Ai+z/AIvs/wCL7P8Ai+z/AIvs/wCL7P8Ai+z/AIvs/wCL7P8Ai+z/AIvs/wCL7P8Ai+z/AIvs/wCL7P8Ai+z/AIvs/wCL7P8Ai+z/AIvs/wCL7P8Ai+z/AIvs/wCL7P8Ai+z/AIvs/wCL7P8Ai+xAAAAAAAAAAAAAAAAAAAAAAADB/4AAwf//AMH//wDB//8Awf//AMH//wDB//8Awf//AMH//wDB//8Awf//AMH//wDB//8Awf//AMH//wDB//8Awf//AMH//wDB//8Awf//AMH//wDB//8Awf//AMH//wDB//8Awf//AMH//wDB//8Awf//AMH//wDB//8Awf//AMH//wDB//8Fw///ONn6/2Hr9v9h6/b/Yev2/2Hr9v9h6/b/Yev2/2Hr9v9h6/b/Yev2/2Hr9v9h6/b/Yev2/2Hr9v9h6/b/Yev2/2Hr9v9h6/ZsAAAAAAAAAAAAAAAAAAAAAAAAAAAAAAAAAAAAAAAAAAAAAAAAAAAAAAAAAAAAAAAAAAAAAAAAAAAAAAAAAAAAAAAAAAAAAAAAV9f9w1fX/f9X1/3/V9f9/1fX/f9X1/3/V9f9/1fX/f9X1/3/V9f9/1fX/f9X1/3/V9f9/1fX/f9X1/3/T9D8/w+Y7/8Ai+z/AIvs/wCL7P8Ai+z/AIvs/wCL7P8Ai+z/AIvs/wCL7P8Ai+z/AIvs/wCL7P8Ai+z/AIvs/wCL7P8Ai+z/AIvs/wCL7P8Ai+z/AIvs/wCL7P8Ai+z/AIvs/wCL7P8Ai+z/AIvs/wCL7P8Ai+z/AIvs/wCL7P8Ai+z/AIvs/wCL7P8Ai+z/AIvs/wCL7EAAAAAAAAAAAAAAAAAAAAAAAMH/gADB//8Awf//AMH//wDB//8Awf//AMH//wDB//8Awf//AMH//wDB//8Awf//AMH//wDB//8Awf//AMH//wDB//8Awf//AMH//wDB//8Awf//AMH//wDB//8Awf//AMH//wDB//8Awf//AMH//wDB//8Awf//AMH//wDB//8Awf//AMH//wDB//8Awf//I9D8/2Dq9v9h6/b/Yev2/2Hr9v9h6/b/Yev2/2Hr9v9h6/b/Yev2/2Hr9v9h6/b/Yev2/2Hr9v9h6/b/Yev2/2Hr9sMAAAAAAAAAAAAAAAAAAAAAAAAAAAAAAAAAAAAAAAAAAAAAAAAAAAAAAAAAAAAAAAAAAAAAAAAAAAAAAAAAAAAAAAAAAFfX/RBX1/3/V9f9/1fX/f9X1/3/V9f9/1fX/f9X1/3/V9f9/1fX/f9X1/3/V9f9/1fX/f9X1/3/V9f9/1DR/P8Ol+//AIvs/wCL7P8Ai+z/AIvs/wCL7P8Ai+z/AIvs/wCL7P8Ai+z/AIvs/wCL7P8Ai+z/AIvs/wCL7P8Ai+z/AIvs/wCL7P8Ai+z/AIvs/wCL7P8Ai+z/AIvs/wCL7P8Ai+z/AIvs/wCL7P8Ai+z/AIvs/wCL7P8Ai+z/AIvs/wCL7P8Ai+z/AIvs/wCL7P8Ai+z/AIvsQAAAAAAAAAAAAAAAAAAAAAAAwf+AAMH//wDB//8Awf//AMH//wDB//8Awf//AMH//wDB//8Awf//AMH//wDB//8Awf//AMH//wDB//8Awf//AMH//wDB//8Awf//AMH//wDB//8Awf//AMH//wDB//8Awf//AMH//wDB//8Awf//AMH//wDB//8Awf//AMH//wDB//8Awf//AMH//wDB//8Awf//IM/8/2Dq9v9h6/b/Yev2/2Hr9v9h6/b/Yev2/2Hr9v9h6/b/Yev2/2Hr9v9h6/b/Yev2/2Hr9v9h6/b/Yev2/2Hr9hAAAAAAAAAAAAAAAAAAAAAAAAAAAAAAAAAAAAAAAAAAAAAAAAAAAAAAAAAAAAAAAAAAAAAAAAAAAAAAAAAAAAAAV9f9TFfX/f9X1/3/V9f9/1fX/f9X1/3/V9f9/1fX/f9X1/3/V9f9/1fX/f9X1/3/V9f9/1fX/f9X1/3/F5/x/wCL7P8Ai+z/AIvs/wCL7P8Ai+z/AIvs/wCL7P8Ai+z/AIvs/wCL7P8Ai+z/AIvs/wCL7P8Ai+z/AIvs/wCL7P8Ai+z/AIvs/wCL7P8Ai+z/AIvs/wCL7P8Ai+z/AIvs/wCL7P8Ai+z/AIvs/wCL7P8Ai+z/AIvs/wCL7P8Ai+z/AIvs/wCL7P8Ai+z/AIvs/wCL7P8Ai+xAAAAAAAAAAAAAAAAAAAAAAADB/4AAwf//AMH//wDB//8Awf//AMH//wDB//8Awf//AMH//wDB//8Awf//AMH//wDB//8Awf//AMH//wDB//8Awf//AMH//wDB//8Awf//AMH//wDB//8Awf//AMH//wDB//8Awf//AMH//wDB//8Awf//AMH//wDB//8Awf//AMH//wDB//8Awf//AMH//wDB//8Awf//L9b7/2Hr9v9h6/b/Yev2/2Hr9v9h6/b/Yev2/2Hr9v9h6/b/Yev2/2Hr9v9h6/b/Yev2/2Hr9v9h6/b/Yev2TAAAAAAAAAAAAAAAAAAAAAAAAAAAAAAAAAAAAAAAAAAAAAAAAAAAAAAAAAAAAAAAAAAAAAAAAAAAAAAAAAAAAABX1/10V9f9/1fX/f9X1/3/V9f9/1fX/f9X1/3/V9f9/1fX/f9X1/3/V9f9/1fX/f9X1/3/V9f9/zS49v8Ai+z/AIvs/wCL7P8Ai+z/AIvs/wCL7P8Ai+z/AIvs/wCL7P8Ai+z/AIvs/wCL7P8Ai+z/AIvs/wCL7P8Ai+z/AIvs/wCL7P8Ai+z/AIvs/wCL7P8Ai+z/AIvs/wCL7P8Ai+z/AIvs/wCL7P8Ai+z/AIvs/wCL7P8Ai+z/AIvs/wCL7P8Ai+z/AIvs/wCL7P8Ai+z/AIvs/wCL7EAAAAAAAAAAAAAAAAAAAAAAAMH/gADB//8Awf//AMH//wDB//8Awf//AMH//wDB//8Awf//AMH//wDB//8Awf//AMH//wDB//8Awf//AMH//wDB//8Awf//AMH//wDB//8Awf//AMH//wDB//8Awf//AMH//wDB//8Awf//AMH//wDB//8Awf//AMH//wDB//8Awf//AMH//wDB//8Awf//AMH//wDB//8Cwv//TOL4/2Hr9v9h6/b/Yev2/2Hr9v9h6/b/Yev2/2Hr9v9h6/b/Yev2/2Hr9v9h6/b/Yev2/2Hr9v9h6/Z0AAAAAAAAAAAAAAAAAAAAAAAAAAAAAAAAAAAAAAAAAAAAAAAAAAAAAAAAAAAAAAAAAAAAAAAAAAAAAAAAAAAAAFfX/YxX1/3/V9f9/1fX/f9X1/3/V9f9/1fX/f9X1/3/V9f9/1fX/f9X1/3/V9f9/1fX/f9S0vz/BpDt/wCL7P8Ai+z/AIvs/wCL7P8Ai+z/AIvs/wCL7P8Ai+z/AIvs/wCL7P8Ai+z/AIvs/wCL7P8Ai+z/AIvs/wCL7P8Ai+z/AIvs/wCL7P8Ai+z/AIvs/wCL7P8Ai+z/AIvs/wCL7P8Ai+z/AIvs/wCL7P8Ai+z/AIvs/wCL7P8Ai+z/AIvs/wCL7P8Ai+z/AIvs/wCL7P8Ai+z/AIvsQAAAAAAAAAAAAAAAAAAAAAAAwf+AAMH//wDB//8Awf//AMH//wDB//8Awf//AMH//wDB//8Awf//AMH//wDB//8Awf//AMH//wDB//8Awf//AMH//wDB//8Awf//AMH//wDB//8Awf//AMH//wDB//8Awf//AMH//wDB//8Awf//AMH//wDB//8Awf//AMH//wDB//8Awf//AMH//wDB//8Awf//AMH//wDB//8Vyv3/Yev2/2Hr9v9h6/b/Yev2/2Hr9v9h6/b/Yev2/2Hr9v9h6/b/Yev2/2Hr9v9h6/b/Yev2/2Hr9pAAAAAAAAAAAAAAAAAAAAAAAAAAAAAAAAAAAAAAAAAAAAAAAAAAAAAAAAAAAAAAAAAAAAAAAAAAAAAAAAAAAAAAV9f9oFfX/f9X1/3/V9f9/1fX/f9X1/3/V9f9/1fX/f9X1/3/V9f9/1fX/f9X1/3/V9f9/zG29v8Ai+z/AIvs/wCL7P8Ai+z/AIvs/wCL7P8Ai+z/AIvs/wCL7P8Ai+z/AIvs/wCL7P8Ai+z/AIvs/wCL7P8Ai+z/AIvs/wCL7P8Ai+z/AIvs/wCL7P8Ai+z/AIvs/wCL7P8Ai+z/AIvs/wCL7P8Ai+z/AIvs/wCL7P8Ai+z/AIvs/wCL7P8Ai+z/AIvs/wCL7P8Ai+z/AIvs/wCL7P8Ai+xAAAAAAAAAAAAAAAAAAAAAAADB/4AAwf//AMH//wDB//8Awf//AMH//wDB//8Awf//AMH//wDB//8Awf//AMH//wDB//8Awf//AMH//wDB//8Awf//AMH//wDB//8Awf//AMH//wDB//8Awf//AMH//wDB//8Awf//AMH//wDB//8Awf//AMH//wDB//8Awf//AMH//wDB//8Awf//AMH//wDB//8Awf//AMH//wDB//9H4Pn/Yev2/2Hr9v9h6/b/Yev2/2Hr9v9h6/b/Yev2/2Hr9v9h6/b/Yev2/2Hr9v9h6/b/Yev2oAAAAAAAAAAAAAAAAAAAAAAAAAAAAAAAAAAAAAAAAAAAAAAAAAAAAAAAAAAAAAAAAAAAAAAAAAAAAAAAAAAAAABX1/2gV9f9/1fX/f9X1/3/V9f9/1fX/f9X1/3/V9f9/1fX/f9X1/3/V9f9/1fX/f9X1/3/EJnv/wCL7P8Ai+z/AIvs/wCL7P8Ai+z/AIvs/wCL7P8Ai+z/AIvs/wCL7P8Ai+z/AIvs/wCL7P8Ai+z/AIvs/wCL7P8Ai+z/AIvs/wCL7P8Ai+z/AIvs/wCL7P8Ai+z/AIvs/wCL7P8Ai+z/AIvs/wCL7P8Ai+z/AIvs/wCL7P8Ai+z/AIvs/wCL7P8Ai+z/AIvs/wCL7P8Ai+z/AIvs/wCL7EAAAAAAAAAAAAAAAAAAAAAAAMH/gADB//8Awf//AMH//wDB//8Awf//AMH//wDB//8Awf//AMH//wDB//8Awf//AMH//wDB//8Awf//AMH//wDB//8Awf//AMH//wDB//8Awf//AMH//wDB//8Awf//AMH//wDB//8Awf//AMH//wDB//8Awf//AMH//wDB//8Awf//AMH//wDB//8Awf//AMH//wDB//8Awf//AMH//yPQ/P9h6/b/Yev2/2Hr9v9h6/b/Yev2/2Hr9v9h6/b/Yev2/2Hr9v9h6/b/Yev2/2Hr9v9h6/agAAAAAAAAAAAAAAAAAAAAAAAAAAAAAAAAAAAAAAAAAAAAAAAAAAAAAAAAAAAAAAAAAAAAAAAAAAAAAAAAAAAAAFfX/aBX1/3/V9f9/1fX/f9X1/3/V9f9/1fX/f9X1/3/V9f9/1fX/f9X1/3/V9f9/0/Q/P8Ai+z/AIvs/wCL7P8Ai+z/AIvs/wCL7P8Ai+z/AIvs/wCL7P8Ai+z/AIvs/wCL7P8Ai+z/AIvs/wCL7P8Ai+z/AIvs/wCL7P8Ai+z/AIvs/wCL7P8Ai+z/AIvs/wCL7P8Ai+z/AIvs/wCL7P8Ai+z/AIvs/wCL7P8Ai+z/AIvs/wCL7P8Ai+z/AIvs/wCL7P8Ai+z/AIvs/wCL7P8Ai+z/AIvsQAAAAAAAAAAAAAAAAAAAAAAAwf+AAMH//wDB//8Awf//AMH//wDB//8Awf//AMH//wDB//8Awf//AMH//wDB//8Awf//AMH//wDB//8Awf//AMH//wDB//8Awf//AMH//wDB//8Awf//AMH//wDB//8Awf//AMH//wDB//8Awf//AMH//wDB//8Awf//AMH//wDB//8Awf//AMH//wDB//8Awf//AMH//wDB//8Awf//BsT//2Hr9v9h6/b/Yev2/2Hr9v9h6/b/Yev2/2Hr9v9h6/b/Yev2/2Hr9v9h6/b/Yev2/2Hr9qAAAAAAAAAAAAAAAAAAAAAAAAAAAAAAAAAAAAAAAAAAAAAAAAAAAAAAAAAAAAAAAAAAAAAAAAAAAAAAAAAAAAAAV9f9oFfX/f9X1/3/V9f9/1fX/f9X1/3/V9f9/1fX/f9X1/3/V9f9/1fX/f9X1/3/PcH4/wCL7P8Ai+z/AIvs/wCL7P8Ai+z/AIvs/wCL7P8Ai+z/AIvs/wCL7P8Ai+z/AIvs/wCL7P8Ai+z/AIvs/wCL7P8Ai+z/AIvs/wCL7P8Ai+z/AIvs/wCL7P8Ai+z/AIvs/wCL7P8Ai+z/AIvs/wCL7P8Ai+z/AIvs/wCL7P8Ai+z/AIvs/wCL7P8Ai+z/AIvs/wCL7P8Ai+z/AIvs/wCL7P8Ai+xAAAAAAAAAAAAAAAAAAAAAAADB/4AAwf//AMH//wDB//8Awf//AMH//wDB//8Awf//AMH//wDB//8Awf//AMH//wDB//8Awf//AMH//wDB//8Awf//AMH//wDB//8Awf//AMH//wDB//8Awf//AMH//wDB//8Awf//AMH//wDB//8Awf//AMH//wDB//8Awf//AMH//wDB//8Awf//AMH//wDB//8Awf//AMH//wDB//8Awf//UeT4/2Hr9v9h6/b/Yev2/2Hr9v9h6/b/Yev2/2Hr9v9h6/b/Yev2/2Hr9v9h6/b/Yev2oAAAAAAAAAAAAAAAAAAAAAAAAAAAAAAAAAAAAAAAAAAAAAAAAAAAAAAAAAAAAAAAAAAAAAAAAAAAAAAAAAAAAABX1/2gV9f9/1fX/f9X1/3/V9f9/1fX/f9X1/3/V9f9/1fX/f9X1/3/V9f9/1fX/f8xtvb/AIvs/wCL7P8Ai+z/AIvs/wCL7P8Ai+z/AIvs/wCL7P8Ai+z/AIvs/wCL7P8Ai+z/AIvs/wCL7P8Ai+z/AIvs/wCL7P8Ai+z/AIvs/wCL7P8Ai+z/AIvs/wCL7P8Ai+z/AIvs/wCL7P8Ai+z/AIvs/wCL7P8Ai+z/AIvs/wCL7P8Ai+z/AIvs/wCL7P8Ai+z/AIvs/wCL7P8Ai+z/AIvs/wCL7EAAAAAAAAAAAAAAAAAAAAAAAMH/gADB//8Awf//AMH//wDB//8Awf//AMH//wDB//8Awf//AMH//wDB//8Awf//AMH//wDB//8Awf//AMH//wDB//8Awf//AMH//wDB//8Awf//AMH//wDB//8Awf//AMH//wDB//8Awf//AMH//wDB//8Awf//AMH//wDB//8Awf//AMH//wDB//8Awf//AMH//wDB//8Awf//AMH//wDB//9E3/n/Yev2/2Hr9v9h6/b/Yev2/2Hr9v9h6/b/Yev2/2Hr9v9h6/b/Yev2/2Hr9v9h6/agAAAAAAAAAAAAAAAAAAAAAAAAAAAAAAAAAAAAAAAAAAAAAAAAAAAAAAAAAAAAAAAAAAAAAAAAAAAAAAAAAAAAAFfX/aBX1/3/V9f9/1fX/f9X1/3/V9f9/1fX/f9X1/3/V9f9/1fX/f9X1/3/V9f9/yyx9f8Ai+z/AIvs/wCL7P8Ai+z/AIvs/wCL7P8Ai+z/AIvs/wCL7P8Ai+z/AIvs/wCL7P8Ai+z/AIvs/wCL7P8Ai+z/AIvs/wCL7P8Ai+z/AIvs/wCL7P8Ai+z/AIvs/wCL7P8Ai+z/AIvs/wCL7P8Ai+z/AIvs/wCL7P8Ai+z/AIvs/wCL7P8Ai+z/AIvs/wCL7P8Ai+z/AIvs/wCL7P8Ai+z/AIvsQAAAAAAAAAAAAAAAAAAAAAAAwf+AAMH//wDB//8Awf//AMH//wDB//8Awf//AMH//wDB//8Awf//AMH//wDB//8Awf//AMH//wDB//8Awf//AMH//wDB//8Awf//AMH//wDB//8Awf//AMH//wDB//8Awf//AMH//wDB//8Awf//AMH//wDB//8Awf//AMH//wDB//8Awf//AMH//wDB//8Awf//AMH//wDB//8Awf//AMH//z3c+v9h6/b/Yev2/2Hr9v9h6/b/Yev2/2Hr9v9h6/b/Yev2/2Hr9v9h6/b/Yev2/2Hr9qAAAAAAAAAAAAAAAAAAAAAAAAAAAAAAAAAAAAAAAAAAAAAAAAAAAAAAAAAAAAAAAAAAAAAAAAAAAAAAAAAAAAAAV9f9oFfX/f9X1/3/V9f9/1fX/f9X1/3/V9f9/1fX/f9X1/3/V9f9/1fX/f9X1/3/LLH1/wCL7P8Ai+z/AIvs/wCL7P8Ai+z/AIvs/wCL7P8Ai+z/AIvs/wCL7P8Ai+z/AIvs/wCL7P8Ai+z/AIvs/wCL7P8Ai+z/AIvs/wCL7P8Ai+z/AIvs/wCL7P8Ai+z/AIvs/wCL7P8Ai+z/AIvs/wCL7P8Ai+z/AIvs/wCL7P8Ai+z/AIvs/wCL7P8Ai+z/AIvs/wCL7P8Ai+z/AIvs/wCL7P8Ai+xAAAAAAAAAAAAAAAAAAAAAAADB/4AAwf//AMH//wDB//8Awf//AMH//wDB//8Awf//AMH//wDB//8Awf//AMH//wDB//8Awf//AMH//wDB//8Awf//AMH//wDB//8Awf//AMH//wDB//8Awf//AMH//wDB//8Awf//AMH//wDB//8Awf//AMH//wDB//8Awf//AMH//wDB//8Awf//AMH//wDB//8Awf//AMH//wDB//8Awf//Pdz6/2Hr9v9h6/b/Yev2/2Hr9v9h6/b/Yev2/2Hr9v9h6/b/Yev2/2Hr9v9h6/b/Yev2oAAAAAAAAAAAAAAAAAAAAAAAAAAAAAAAAAAAAAAAAAAAAAAAAAAAAAAAAAAAAAAAAAAAAAAAAAAAAAAAAAAAAABX1/2gV9f9/1fX/f9X1/3/V9f9/1fX/f9X1/3/V9f9/1fX/f9X1/3/V9f9/1fX/f8ssfX/AIvs/wCL7P8Ai+z/AIvs/wCL7P8Ai+z/AIvs/wCL7P8Ai+z/AIvs/wCL7P8Ai+z/AIvs/wCL7P8Ai+z/AIvs/wCL7P8Ai+z/AIvs/wCL7P8Ai+z/AIvs/wCL7P8Ai+z/AIvs/wCL7P8Ai+z/AIvs/wCL7P8Ai+z/AIvs/wCL7P8Ai+z/AIvs/wCL7P8Ai+z/AIvs/wCL7P8Ai+z/AIvs/wCL7EAAAAAAAAAAAAAAAAAAAAAAAMH/gADB//8Awf//AMH//wDB//8Awf//AMH//wDB//8Awf//AMH//wDB//8Awf//AMH//wDB//8Awf//AMH//wDB//8Awf//AMH//wDB//8Awf//AMH//wDB//8Awf//AMH//wDB//8Awf//AMH//wDB//8Awf//AMH//wDB//8Awf//AMH//wDB//8Awf//AMH//wDB//8Awf//AMH//wDB//893Pr/Yev2/2Hr9v9h6/b/Yev2/2Hr9v9h6/b/Yev2/2Hr9v9h6/b/Yev2/2Hr9v9h6/agAAAAAAAAAAAAAAAAAAAAAAAAAAAAAAAAAAAAAAAAAAAAAAAAAAAAAAAAAAAAAAAAAAAAAAAAAAAAAAAAAAAAAFfX/aBX1/3/V9f9/1fX/f9X1/3/V9f9/1fX/f9X1/3/V9f9/1fX/f9X1/3/V9f9/yyx9f8Ai+z/AIvs/wCL7P8Ai+z/AIvs/wCL7P8Ai+z/AIvs/wCL7P8Ai+z/AIvs/wCL7P8Ai+z/AIvs/wCL7P8Ai+z/AIvs/wCL7P8Ai+z/AIvs/wCL7P8Ai+z/AIvs/wCL7P8Ai+z/AIvs/wCL7P8Ai+z/AIvs/wCL7P8Ai+z/AIvs/wCL7P8Ai+z/AIvs/wCL7P8Ai+z/AIvs/wCL7P8Ai+z/AIvsQAAAAAAAAAAAAAAAAAAAAAAAwf+AAMH//wDB//8Awf//AMH//wDB//8Awf//AMH//wDB//8Awf//AMH//wDB//8Awf//AMH//wDB//8Awf//AMH//wDB//8Awf//AMH//wDB//8Awf//AMH//wDB//8Awf//AMH//wDB//8Awf//AMH//wDB//8Awf//AMH//wDB//8Awf//AMH//wDB//8Awf//AMH//wDB//8Awf//AMH//z3c+v9h6/b/Yev2/2Hr9v9h6/b/Yev2/2Hr9v9h6/b/Yev2/2Hr9v9h6/b/Yev2/2Hr9qAAAAAAAAAAAAAAAAAAAAAAAAAAAAAAAAAAAAAAAAAAAAAAAAAAAAAAAAAAAAAAAAAAAAAAAAAAAAAAAAAAAAAAV9f9oFfX/f9X1/3/V9f9/1fX/f9X1/3/V9f9/1fX/f9X1/3/V9f9/1fX/f9X1/3/LLH1/wCL7P8Ai+z/AIvs/wCL7P8Ai+z/AIvs/wCL7P8Ai+z/AIvs/wCL7P8Ai+z/AIvs/wCL7P8Ai+z/AIvs/wCL7P8Ai+z/AIvs/wCL7P8Ai+z/AIvs/wCL7P8Ai+z/AIvs/wCL7P8Ai+z/AIvs/wCL7P8Ai+z/AIvs/wCL7P8Ai+z/AIvs/wCL7P8Ai+z/AIvs/wCL7P8Ai+z/AIvs/wCL7P8Ai+xAAAAAAAAAAAAAAAAAAAAAAADB/4AAwf//AMH//wDB//8Awf//AMH//wDB//8Awf//AMH//wDB//8Awf//AMH//wDB//8Awf//AMH//wDB//8Awf//AMH//wDB//8Awf//AMH//wDB//8Awf//AMH//wDB//8Awf//AMH//wDB//8Awf//AMH//wDB//8Awf//AMH//wDB//8Awf//AMH//wDB//8Awf//AMH//wDB//8Awf//Pdz6/2Hr9v9h6/b/Yev2/2Hr9v9h6/b/Yev2/2Hr9v9h6/b/Yev2/2Hr9v9h6/b/Yev2oAAAAAAAAAAAAAAAAAAAAAAAAAAAAAAAAAAAAAAAAAAAAAAAAAAAAAAAAAAAAAAAAAAAAAAAAAAAAAAAAAAAAABX1/2gV9f9/1fX/f9X1/3/V9f9/1fX/f9X1/3/V9f9/1fX/f9X1/3/V9f9/1fX/f8ssfX/AIvs/wCL7P8Ai+z/AIvs/wCL7P8Ai+z/AIvs/wCL7P8Ai+z/AIvs/wCL7P8Ai+z/AIvs/wCL7P8Ai+z/AIvs/wCL7P8Ai+z/AIvs/wCL7P8Ai+z/AIvs/wCL7P8Ai+z/AIvs/wCL7P8Ai+z/AIvs/wCL7P8Ai+z/AIvs/wCL7P8Ai+z/AIvs/wCL7P8Ai+z/AIvs/wCL7P8Ai+z/AIvs/wCL7EAAAAAAAAAAAAAAAAAAAAAAAMH/gADB//8Awf//AMH//wDB//8Awf//AMH//wDB//8Awf//AMH//wDB//8Awf//AMH//wDB//8Awf//AMH//wDB//8Awf//AMH//wDB//8Awf//AMH//wDB//8Awf//AMH//wDB//8Awf//AMH//wDB//8Awf//AMH//wDB//8Awf//AMH//wDB//8Awf//AMH//wDB//8Awf//AMH//wDB//893Pr/Yev2/2Hr9v9h6/b/Yev2/2Hr9v9h6/b/Yev2/2Hr9v9h6/b/Yev2/2Hr9v9h6/agAAAAAAAAAAAAAAAAAAAAAAAAAAAAAAAAAAAAAAAAAAAAAAAAAAAAAAAAAAAAAAAAAAAAAAAAAAAAAAAAAAAAAFfX/aBX1/3/V9f9/1fX/f9X1/3/V9f9/1fX/f9X1/3/V9f9/1fX/f9X1/3/V9f9/yyx9f8Ai+z/AIvs/wCL7P8Ai+z/AIvs/wCL7P8Ai+z/AIvs/wCL7P8Ai+z/AIvs/wCL7P8Ai+z/AIvs/wCL7P8Ai+z/AIvs/wCL7P8Ai+z/AIvs/wCL7P8Ai+z/AIvs/wCL7P8Ai+z/AIvs/wCL7P8Ai+z/AIvs/wCL7P8Ai+z/AIvs/wCL7P8Ai+z/AIvs/wCL7P8Ai+z/AIvs/wCL7P8Ai+z/AIvsQAAAAAAAAAAAAAAAAAAAAAAAwf98AMH//wDB//8Awf//AMH//wDB//8Awf//AMH//wDB//8Awf//AMH//wDB//8Awf//AMH//wDB//8Awf//AMH//wDB//8Awf//AMH//wDB//8Awf//AMH//wDB//8Awf//AMH//wDB//8Awf//AMH//wDB//8Awf//AMH//wDB//8Awf//AMH//wDB//8Awf//AMH//wDB//8Awf//AMH//z3c+v9h6/b/Yev2/2Hr9v9h6/b/Yev2/2Hr9v9h6/b/Yev2/2Hr9v9h6/b/Yev2/2Hr9qAAAAAAAAAAAAAAAAAAAAAAAAAAAAAAAAAAAAAAAAAAAAAAAAAAAAAAAAAAAAAAAAAAAAAAAAAAAAAAAAAAAAAAV9f9oFfX/f9X1/3/V9f9/1fX/f9X1/3/V9f9/1fX/f9X1/3/V9f9/1fX/f9X1/3/LLH1/wCL7P8Ai+z/AIvs/wCL7P8Ai+z/AIvs/wCL7P8Ai+z/AIvs/wCL7P8Ai+z/AIvs/wCL7P8Ai+z/AIvs/wCL7P8Ai+z/AIvs/wCL7P8Ai+z/AIvs/wCL7P8Ai+z/AIvs/wCL7P8Ai+z/AIvs/wCL7P8Ai+z/AIvs/wCL7P8Ai+z/AIvs/wCL7P8Ai+z/AIvs/wCL7P8Ai+z/AIvs/wCL7P8Ai+w4AAAAAAAAAAAAAAAAAAAAAADB/2AAwf//AMH//wDB//8Awf//AMH//wDB//8Awf//AMH//wDB//8Awf//AMH//wDB//8Awf//AMH//wDB//8Awf//AMH//wDB//8Awf//AMH//wDB//8Awf//AMH//wDB//8Awf//AMH//wDB//8Awf//AMH//wDB//8Awf//AMH//wDB//8Awf//AMH//wDB//8Awf//AMH//wDB//8Awf//Pdz6/2Hr9v9h6/b/Yev2/2Hr9v9h6/b/Yev2/2Hr9v9h6/b/Yev2/2Hr9v9h6/b/Yev2oAAAAAAAAAAAAAAAAAAAAAAAAAAAAAAAAAAAAAAAAAAAAAAAAAAAAAAAAAAAAAAAAAAAAAAAAAAAAAAAAAAAAABX1/2gV9f9/1fX/f9X1/3/V9f9/1fX/f9X1/3/V9f9/1fX/f9X1/3/V9f9/1fX/f8ssfX/AIvs/wCL7P8Ai+z/AIvs/wCL7P8Ai+z/AIvs/wCL7P8Ai+z/AIvs/wCL7P8Ai+z/AIvs/wCL7P8Ai+z/AIvs/wCL7P8Ai+z/AIvs/wCL7P8Ai+z/AIvs/wCL7P8Ai+z/AIvs/wCL7P8Ai+z/AIvs/wCL7P8Ai+z/AIvs/wCL7P8Ai+z/AIvs/wCL7P8Ai+z/AIvs/wCL7P8Ai+z/AIvs/wCL7BwAAAAAAAAAAAAAAAAAAAAAAMH/TADB//8Awf//AMH//wDB//8Awf//AMH//wDB//8Awf//AMH//wDB//8Awf//AMH//wDB//8Awf//AMH//wDB//8Awf//AMH//wDB//8Awf//AMH//wDB//8Awf//AMH//wDB//8Awf//AMH//wDB//8Awf//AMH//wDB//8Awf//AMH//wDB//8Awf//AMH//wDB//8Awf//AMH//wDB//893Pr/Yev2/2Hr9v9h6/b/Yev2/2Hr9v9h6/b/Yev2/2Hr9v9h6/b/Yev2/2Hr9v9h6/agAAAAAAAAAAAAAAAAAAAAAAAAAAAAAAAAAAAAAAAAAAAAAAAAAAAAAAAAAAAAAAAAAAAAAAAAAAAAAAAAAAAAAFfX/aBX1/3/V9f9/1fX/f9X1/3/V9f9/1fX/f9X1/3/V9f9/1fX/f9X1/3/V9f9/yyx9f8Ai+z/AIvs/wCL7P8Ai+z/AIvs/wCL7P8Ai+z/AIvs/wCL7P8Ai+z/AIvs/wCL7P8Ai+z/AIvs/wCL7P8Ai+z/AIvs/wCL7P8Ai+z/AIvs/wCL7P8Ai+z/AIvs/wCL7P8Ai+z/AIvs/wCL7P8Ai+z/AIvs/wCL7P8Ai+z/AIvs/wCL7P8Ai+z/AIvs/wCL7P8Ai+z/AIvs/wCL7P8Ai+zzAAAAAAAAAAAAAAAAAAAAAAAAAAAAwf8kAMH//wDB//8Awf//AMH//wDB//8Awf//AMH//wDB//8Awf//AMH//wDB//8Awf//AMH//wDB//8Awf//AMH//wDB//8Awf//AMH//wDB//8Awf//AMH//wDB//8Awf//AMH//wDB//8Awf//AMH//wDB//8Awf//AMH//wDB//8Awf//AMH//wDB//8Awf//AMH//wDB//8Awf//AMH//z3c+v9h6/b/Yev2/2Hr9v9h6/b/Yev2/2Hr9v9h6/b/Yev2/2Hr9v9h6/b/Yev2/2Hr9qAAAAAAAAAAAAAAAAAAAAAAAAAAAAAAAAAAAAAAAAAAAAAAAAAAAAAAAAAAAAAAAAAAAAAAAAAAAAAAAAAAAAAAV9f9oFfX/f9X1/3/V9f9/1fX/f9X1/3/V9f9/1fX/f9X1/3/V9f9/1fX/f9X1/3/LLH1/wCL7P8Ai+z/AIvs/wCL7P8Ai+z/AIvs/wCL7P8Ai+z/AIvs/wCL7P8Ai+z/AIvs/wCL7P8Ai+z/AIvs/wCL7P8Ai+z/AIvs/wCL7P8Ai+z/AIvs/wCL7P8Ai+z/AIvs/wCL7P8Ai+z/AIvs/wCL7P8Ai+z/AIvs/wCL7P8Ai+z/AIvs/wCL7P8Ai+z/AIvs/wCL7P8Ai+z/AIvs/wCL7LcAAAAAAAAAAAAAAAAAAAAAAAAAAAAAAAAAwf/nAMH//wDB//8Awf//AMH//wDB//8Awf//AMH//wDB//8Awf//AMH//wDB//8Awf//AMH//wDB//8Awf//AMH//wDB//8Awf//AMH//wDB//8Awf//AMH//wDB//8Awf//AMH//wDB//8Awf//AMH//wDB//8Awf//AMH//wDB//8Awf//AMH//wDB//8Awf//AMH//wDB//8Awf//Pdz6/2Hr9v9h6/b/Yev2/2Hr9v9h6/b/Yev2/2Hr9v9h6/b/Yev2/2Hr9v9h6/b/Yev2oAAAAAAAAAAAAAAAAAAAAAAAAAAAAAAAAAAAAAAAAAAAAAAAAAAAAAAAAAAAAAAAAAAAAAAAAAAAAAAAAAAAAABX1/2gV9f9/1fX/f9X1/3/V9f9/1fX/f9X1/3/V9f9/1fX/f9X1/3/V9f9/1fX/f8ssfX/AIvs/wCL7P8Ai+z/AIvs/wCL7P8Ai+z/AIvs/wCL7P8Ai+z/AIvs/wCL7P8Ai+z/AIvs/wCL7P8Ai+z/AIvs/wCL7P8Ai+z/AIvs/wCL7P8Ai+z/AIvs/wCL7P8Ai+z/AIvs/wCL7P8Ai+z/AIvs/wCL7P8Ai+z/AIvs/wCL7P8Ai+z/AIvs/wCL7P8Ai+z/AIvs/wCL7P8Ai+z/AIvscAAAAAAAAAAAAAAAAAAAAAAAAAAAAAAAAADB/5wAwf//AMH//wDB//8Awf//AMH//wDB//8Awf//AMH//wDB//8Awf//AMH//wDB//8Awf//AMH//wDB//8Awf//AMH//wDB//8Awf//AMH//wDB//8Awf//AMH//wDB//8Awf//AMH//wDB//8Awf//AMH//wDB//8Awf//AMH//wDB//8Awf//AMH//wDB//8Awf//AMH//wDB//893Pr/Yev2/2Hr9v9h6/b/Yev2/2Hr9v9h6/b/Yev2/2Hr9v9h6/b/Yev2/2Hr9v9h6/agAAAAAAAAAAAAAAAAAAAAAAAAAAAAAAAAAAAAAAAAAAAAAAAAAAAAAAAAAAAAAAAAAAAAAAAAAAAAAAAAAAAAAFfX/aBX1/3/V9f9/1fX/f9X1/3/V9f9/1fX/f9X1/3/V9f9/1fX/f9X1/3/V9f9/yyx9f8Ai+z/AIvs/wCL7P8Ai+z/AIvs/wCL7P8Ai+z/AIvs/wCL7P8Ai+z/AIvs/wCL7P8Ai+z/AIvs/wCL7P8Ai+z/AIvs/wCL7P8Ai+z/AIvs/wCL7P8Ai+z/AIvs/wCL7P8Ai+z/AIvs/wCL7P8Ai+z/AIvs/wCL7P8Ai+z/AIvs/wCL7P8Ai+z/AIvs/wCL7P8Ai+z/AIvs/wCL7PcAi+wUAAAAAAAAAAAAAAAAAAAAAAAAAAAAAAAAAMH/PADB//8Awf//AMH//wDB//8Awf//AMH//wDB//8Awf//AMH//wDB//8Awf//AMH//wDB//8Awf//AMH//wDB//8Awf//AMH//wDB//8Awf//AMH//wDB//8Awf//AMH//wDB//8Awf//AMH//wDB//8Awf//AMH//wDB//8Awf//AMH//wDB//8Awf//AMH//wDB//8Awf//AMH//z3c+v9h6/b/Yev2/2Hr9v9h6/b/Yev2/2Hr9v9h6/b/Yev2/2Hr9v9h6/b/Yev2/2Hr9qAAAAAAAAAAAAAAAAAAAAAAAAAAAAAAAAAAAAAAAAAAAAAAAAAAAAAAAAAAAAAAAAAAAAAAAAAAAAAAAAAAAAAAV9f9oFfX/f9X1/3/V9f9/1fX/f9X1/3/V9f9/1fX/f9X1/3/V9f9/1fX/f9X1/3/LLH1/wCL7P8Ai+z/AIvs/wCL7P8Ai+z/AIvs/wCL7P8Ai+z/AIvs/wCL7P8Ai+z/AIvs/wCL7P8Ai+z/AIvs/wCL7P8Ai+z/AIvs/wCL7P8Ai+z/AIvs/wCL7P8Ai+z/AIvs/wCL7P8Ai+z/AIvs/wCL7P8Ai+z/AIvs/wCL7P8Ai+z/AIvs/wCL7P8Ai+z/AIvs/wCL7P8Ai+z/AIvskAAAAAAAAAAAAAAAAAAAAAAAAAAAAAAAAAAAAAAAAAAAAMH/vwDB//8Awf//AMH//wDB//8Awf//AMH//wDB//8Awf//AMH//wDB//8Awf//AMH//wDB//8Awf//AMH//wDB//8Awf//AMH//wDB//8Awf//AMH//wDB//8Awf//AMH//wDB//8Awf//AMH//wDB//8Awf//AMH//wDB//8Awf//AMH//wDB//8Awf//AMH//wDB//8Awf//Pdz6/2Hr9v9h6/b/Yev2/2Hr9v9h6/b/Yev2/2Hr9v9h6/b/Yev2/2Hr9v9h6/b/Yev2oAAAAAAAAAAAAAAAAAAAAAAAAAAAAAAAAAAAAAAAAAAAAAAAAAAAAAAAAAAAAAAAAAAAAAAAAAAAAAAAAAAAAABX1/2gV9f9/1fX/f9X1/3/V9f9/1fX/f9X1/3/V9f9/1fX/f9X1/3/V9f9/1fX/f8ssfX/AIvs/wCL7P8Ai+z/AIvs/wCL7P8Ai+z/AIvs/wCL7P8Ai+z/AIvs/wCL7P8Ai+z/AIvs/wCL7P8Ai+z/AIvs/wCL7P8Ai+z/AIvs/wCL7P8Ai+z/AIvs/wCL7P8Ai+z/AIvs/wCL7P8Ai+z/AIvs/wCL7P8Ai+z/AIvs/wCL7P8Ai+z/AIvs/wCL7P8Ai+z/AIvs/wCL7OsAi+wQAAAAAAAAAAAAAAAAAAAAAAAAAAAAAAAAAAAAAAAAAAAAwf80AMH/+wDB//8Awf//AMH//wDB//8Awf//AMH//wDB//8Awf//AMH//wDB//8Awf//AMH//wDB//8Awf//AMH//wDB//8Awf//AMH//wDB//8Awf//AMH//wDB//8Awf//AMH//wDB//8Awf//AMH//wDB//8Awf//AMH//wDB//8Awf//AMH//wDB//8Awf//AMH//wDB//893Pr/Yev2/2Hr9v9h6/b/Yev2/2Hr9v9h6/b/Yev2/2Hr9v9h6/b/Yev2/2Hr9v9h6/agAAAAAAAAAAAAAAAAAAAAAAAAAAAAAAAAAAAAAAAAAAAAAAAAAAAAAAAAAAAAAAAAAAAAAAAAAAAAAAAAAAAAAFfX/aBX1/3/V9f9/1fX/f9X1/3/V9f9/1fX/f9X1/3/V9f9/1fX/f9X1/3/V9f9/yyx9f8Ai+z/AIvs/wCL7P8Ai+z/AIvs/wCL7P8Ai+z/AIvs/wCL7P8Ai+z/AIvs/wCL7P8Ai+z/AIvs/wCL7P8Ai+z/AIvs/wCL7P8Ai+z/AIvs/wCL7P8Ai+z/AIvs/wCL7P8Ai+z/AIvs/wCL7P8Ai+z/AIvs/wCL7P8Ai+z/AIvs/wCL7P8Ai+z/AIvs/wCL7P8Ai+z/AIvsSAAAAAAAAAAAAAAAAAAAAAAAAAAAAAAAAAAAAAAAAAAAAAAAAAAAAAAAwf98AMH//wDB//8Awf//AMH//wDB//8Awf//AMH//wDB//8Awf//AMH//wDB//8Awf//AMH//wDB//8Awf//AMH//wDB//8Awf//AMH//wDB//8Awf//AMH//wDB//8Awf//AMH//wDB//8Awf//AMH//wDB//8Awf//AMH//wDB//8Awf//AMH//wDB//8Awf//AMH//z3c+v9h6/b/Yev2/2Hr9v9h6/b/Yev2/2Hr9v9h6/b/Yev2/2Hr9v9h6/b/Yev2/2Hr9qAAAAAAAAAAAAAAAAAAAAAAAAAAAAAAAAAAAAAAAAAAAAAAAAAAAAAAAAAAAAAAAAAAAAAAAAAAAAAAAAAAAAAAV9f9oFfX/f9X1/3/V9f9/1fX/f9X1/3/V9f9/1fX/f9X1/3/V9f9/1fX/f9X1/3/LLH1/wCL7P8Ai+z/AIvs/wCL7P8Ai+z/AIvs/wCL7P8Ai+z/AIvs/wCL7P8Ai+z/AIvs/wCL7P8Ai+z/AIvs/wCL7P8Ai+z/AIvs/wCL7P8Ai+z/AIvs/wCL7P8Ai+z/AIvs/wCL7P8Ai+z/AIvs/wCL7P8Ai+z/AIvs/wCL7P8Ai+z/AIvs/wCL7P8Ai+z/AIvs/wCL7HgAAAAAAAAAAAAAAAAAAAAAAAAAAAAAAAAAAAAAAAAAAAAAAAAAAAAAAAAAAAAAAAAAwf+rAMH//wDB//8Awf//AMH//wDB//8Awf//AMH//wDB//8Awf//AMH//wDB//8Awf//AMH//wDB//8Awf//AMH//wDB//8Awf//AMH//wDB//8Awf//AMH//wDB//8Awf//AMH//wDB//8Awf//AMH//wDB//8Awf//AMH//wDB//8Awf//AMH//wDB//8Awf//Pdz6/2Hr9v9h6/b/Yev2/2Hr9v9h6/b/Yev2/2Hr9v9h6/b/Yev2/2Hr9v9h6/b/Yev2oAAAAAAAAAAAAAAAAAAAAAAAAAAAAAAAAAAAAAAAAAAAAAAAAAAAAAAAAAAAAAAAAAAAAAAAAAAAAAAAAAAAAABX1/2gV9f9/1fX/f9X1/3/V9f9/1fX/f9X1/3/V9f9/1fX/f9X1/3/V9f9/1fX/f8ssfX/AIvs/wCL7P8Ai+z/AIvs/wCL7P8Ai+z/AIvs/wCL7P8Ai+z/AIvs/wCL7P8Ai+z/AIvs/wCL7P8Ai+z/AIvs/wCL7P8Ai+z/AIvs/wCL7P8Ai+z/AIvs/wCL7P8Ai+z/AIvs/wCL7P8Ai+z/AIvs/wCL7P8Ai+z/AIvs/wCL7P8Ai+z/AIvs/wCL7P8Ai+yPAAAAAAAAAAAAAAAAAAAAAAAAAAAAAAAAeZhDaHmYQzgAAAAAAAAAAAAAAAAAAAAAAAAAAADB/wQAwf+rAMH//wDB//8Awf//AMH//wDB//8Awf//AMH//wDB//8Awf//AMH//wDB//8Awf//AMH//wDB//8Awf//AMH//wDB//8Awf//AMH//wDB//8Awf//AMH//wDB//8Awf//AMH//wDB//8Awf//AMH//wDB//8Awf//AMH//wDB//8Awf//AMH//wDB//893Pr/Yev2/2Hr9v9h6/b/Yev2/2Hr9v9h6/b/Yev2/2Hr9v9h6/b/Yev2/2Hr9v9h6/agAAAAAAAAAAAAAAAAAAAAAAAAAAAAAAAAAAAAAAAAAAAAAAAAAAAAAAAAAAAAAAAAAAAAAAAAAAAAAAAAAAAAAFfX/aBX1/3/V9f9/1fX/f9X1/3/V9f9/1fX/f9X1/3/V9f9/1fX/f9X1/3/V9f9/yyx9f8Ai+z/AIvs/wCL7P8Ai+z/AIvs/wCL7P8Ai+z/AIvs/wCL7P8Ai+z/AIvs/wCL7P8Ai+z/AIvs/wCL7P8Ai+z/AIvs/wCL7P8Ai+z/AIvs/wCL7P8Ai+z/AIvs/wCL7P8Ai+z/AIvs/wCL7P8Ai+z/AIvs/wCL7P8Ai+z/AIvs/wCL7P8Ai+z7AIvscAAAAAAAAAAAAAAAAAAAAAAAAAAAAAAAAHmYQyh5mEPzeZhD23mYQwwAAAAAAAAAAAAAAAAAAAAAAAAAAADB/wQAwf+fAMH//wDB//8Awf//AMH//wDB//8Awf//AMH//wDB//8Awf//AMH//wDB//8Awf//AMH//wDB//8Awf//AMH//wDB//8Awf//AMH//wDB//8Awf//AMH//wDB//8Awf//AMH//wDB//8Awf//AMH//wDB//8Awf//AMH//wDB//8Awf//AMH//z3c+v9h6/b/Yev2/2Hr9v9h6/b/Yev2/2Hr9v9h6/b/Yev2/2Hr9v9h6/b/Yev2/2Hr9qAAAAAAAAAAAAAAAAAAAAAAAAAAAAAAAAAAAAAAAAAAAAAAAAAAAAAAAAAAAAAAAAAAAAAAAAAAAAAAAAAAAAAAV9f9oFfX/f9X1/3/V9f9/1fX/f9X1/3/V9f9/1fX/f9X1/3/V9f9/1fX/f9X1/3/LLH1/wCL7P8Ai+z/AIvs/wCL7P8Ai+z/AIvs/wCL7P8Ai+z/AIvs/wCL7P8Ai+z/AIvs/wCL7P8Ai+z/AIvs/wCL7P8Ai+z/AIvs/wCL7P8Ai+z/AIvs/wCL7P8Ai+z/AIvs/wCL7P8Ai+z/AIvs/wCL7P8Ai+z/AIvs/wCL7P8Ai+z/AIvs6wCL7EgAAAAAAAAAAAAAAAAAAAAAAAAAAAAAAAB5mEMQeZhD13mYQ/95mEP/eZhDs3mYQwQAAAAAAAAAAAAAAAAAAAAAAAAAAAAAAAAAwf9wAMH/+wDB//8Awf//AMH//wDB//8Awf//AMH//wDB//8Awf//AMH//wDB//8Awf//AMH//wDB//8Awf//AMH//wDB//8Awf//AMH//wDB//8Awf//AMH//wDB//8Awf//AMH//wDB//8Awf//AMH//wDB//8Awf//AMH//wDB//8Awf//Pdz6/2Hr9v9h6/b/Yev2/2Hr9v9h6/b/Yev2/2Hr9v9h6/b/Yev2/2Hr9v9h6/b/Yev2oAAAAAAAAAAAAAAAAAAAAAAAAAAAAAAAAAAAAAAAAAAAAAAAAAAAAAAAAAAAAAAAAAAAAAAAAAAAAAAAAAAAAABX1/2gV9f9/1fX/f9X1/3/V9f9/1fX/f9X1/3/V9f9/1fX/f9X1/3/V9f9/1fX/f8ssfX/AIvs/wCL7P8Ai+z/AIvs/wCL7P8Ai+z/AIvs/wCL7P8Ai+z/AIvs/wCL7P8Ai+z/AIvs/wCL7P8Ai+z/AIvs/wCL7P8Ai+z/AIvs/wCL7P8Ai+z/AIvs/wCL7P8Ai+z/AIvs/wCL7P8Ai+z/AIvs/wCL7P8Ai+z/AIvs/wCL7KcAi+wcAAAAAAAAAAAAAAAAAAAAAAAAAAAAAAAAeZhDDHmYQ8N5mEP/eZhD/3mYQ/95mEP/eZhDp3mYQwQAAAAAAAAAAAAAAAAAAAAAAAAAAAAAAAAAwf8wAMH/wwDB//8Awf//AMH//wDB//8Awf//AMH//wDB//8Awf//AMH//wDB//8Awf//AMH//wDB//8Awf//AMH//wDB//8Awf//AMH//wDB//8Awf//AMH//wDB//8Awf//AMH//wDB//8Awf//AMH//wDB//8Awf//AMH//wDB//893Pr/Yev2/2Hr9v9h6/b/Yev2/2Hr9v9h6/b/Yev2/2Hr9v9h6/b/Yev2/2Hr9v9h6/agAAAAAAAAAAAAAAAAAAAAAAAAAAAAAAAAAAAAAAAAAAAAAAAAAAAAAAAAAAAAAAAAAAAAAAAAAAAAAAAAAAAAAFfX/aBX1/3/V9f9/1fX/f9X1/3/V9f9/1fX/f9X1/3/V9f9/1fX/f9X1/3/V9f9/yyx9f8Ai+z/AIvs/wCL7P8Ai+z/AIvs/wCL7P8Ai+z/AIvs/wCL7P8Ai+z/AIvs/wCL7P8Ai+z/AIvs/wCL7P8Ai+z/AIvs/wCL7P8Ai+z/AIvs/wCL7P8Ai+z/AIvs/wCL7P8Ai+z/AIvs/wCL7P8Ai+z/AIvs/wCL7M8Ai+xAAAAAAAAAAAAAAAAAAAAAAAAAAAAAAAAAAAAAAHmYQxh5mEPDeZhD/3mYQ/95mEP/eZhD/3mYQ/95mEP/eZhDq3mYQwQAAAAAAAAAAAAAAAAAAAAAAAAAAAAAAAAAAAAAAMH/XADB/+MAwf//AMH//wDB//8Awf//AMH//wDB//8Awf//AMH//wDB//8Awf//AMH//wDB//8Awf//AMH//wDB//8Awf//AMH//wDB//8Awf//AMH//wDB//8Awf//AMH//wDB//8Awf//AMH//wDB//8Awf//AMH//z3c+v9h6/b/Yev2/2Hr9v9h6/b/Yev2/2Hr9v9h6/b/Yev2/2Hr9v9h6/b/Yev2/2Hr9qAAAAAAAAAAAAAAAAAAAAAAAAAAAAAAAAAAAAAAAAAAAAAAAAAAAAAAAAAAAAAAAAAAAAAAAAAAAAAAAAAAAAAAV9f9oFfX/f9X1/3/V9f9/1fX/f9X1/3/V9f9/1fX/f9X1/3/V9f9/1fX/f9X1/3/LLH1/wCL7P8Ai+z/AIvs/wCL7P8Ai+z/AIvs/wCL7P8Ai+z/AIvs/wCL7P8Ai+z/AIvs/wCL7P8Ai+z/AIvs/wCL7P8Ai+z/AIvs/wCL7P8Ai+z/AIvs/wCL7P8Ai+z/AIvs/wCL7P8Ai+z/AIvs/wCL7OsAi+xkAIvsBAAAAAAAAAAAAAAAAAAAAAAAAAAAAAAAAAAAAAB5mEMseZhD23mYQ/95mEP/eZhD/3mYQ/95mEP/eZhD/3mYQ/95mEP/eZhDv3mYQxgAAAAAAAAAAAAAAAAAAAAAAAAAAAAAAAAAAAAAAMH/CADB/4AAwf/3AMH//wDB//8Awf//AMH//wDB//8Awf//AMH//wDB//8Awf//AMH//wDB//8Awf//AMH//wDB//8Awf//AMH//wDB//8Awf//AMH//wDB//8Awf//AMH//wDB//8Awf//AMH//wDB//8Awf//Pdz6/2Hr9v9h6/b/Yev2/2Hr9v9h6/b/Yev2/2Hr9v9h6/b/Yev2/2Hr9v9h6/b/Yev2oAAAAAAAAAAAAAAAAAAAAAAAAAAAAAAAAAAAAAAAAAAAAAAAAAAAAAAAAAAAAAAAAAAAAAAAAAAAAAAAAAAAAABX1/2gV9f9/1fX/f9X1/3/V9f9/1fX/f9X1/3/V9f9/1fX/f9X1/3/V9f9/1fX/f8ssfX/AIvs/wCL7P8Ai+z/AIvs/wCL7P8Ai+z/AIvs/wCL7P8Ai+z/AIvs/wCL7P8Ai+z/AIvs/wCL7P8Ai+z/AIvs/wCL7P8Ai+z/AIvs/wCL7P8Ai+z/AIvs/wCL7P8Ai+z/AIvs/wCL7PsAi+yMAIvsEAAAAAAAAAAAAAAAAAAAAAAAAAAAAAAAAAAAAAAAAAAAeZhDZHmYQ/N5mEP/eZhD/3mYQ/95mEP/eZhD/3mYQ/95mEP/eZhD/3mYQ/95mEP/eZhD53mYQ0QAAAAAAAAAAAAAAAAAAAAAAAAAAAAAAAAAAAAAAAAAAADB/yAAwf+nAMH//wDB//8Awf//AMH//wDB//8Awf//AMH//wDB//8Awf//AMH//wDB//8Awf//AMH//wDB//8Awf//AMH//wDB//8Awf//AMH//wDB//8Awf//AMH//wDB//8Awf//AMH//wDB//893Pr/Yev2/2Hr9v9h6/b/Yev2/2Hr9v9h6/b/Yev2/2Hr9v9h6/b/Yev2/2Hr9v9h6/agAAAAAAAAAAAAAAAAAAAAAAAAAAAAAAAAAAAAAAAAAAAAAAAAAAAAAAAAAAAAAAAAAAAAAAAAAAAAAAAAAAAAAFfX/aBX1/3/V9f9/1fX/f9X1/3/V9f9/1fX/f9X1/3/V9f9/1fX/f9X1/3/V9f9/yyx9f8Ai+z/AIvs/wCL7P8Ai+z/AIvs/wCL7P8Ai+z/AIvs/wCL7P8Ai+z/AIvs/wCL7P8Ai+z/AIvs/wCL7P8Ai+z/AIvs/wCL7P8Ai+z/AIvs/wCL7P8Ai+z/AIvs/wCL7P8Ai+y3AIvsJAAAAAAAAAAAAAAAAAAAAAAAAAAAAAAAAAAAAAAAAAAAeZhDHHmYQ7N5mEP/eZhD/3mYQ/95mEP/eZhD/3mYQ/95mEP/eZhD/3mYQ/95mEP/eZhD/3mYQ/95mEP/eZhD/3mYQ5R5mEMQAAAAAAAAAAAAAAAAAAAAAAAAAAAAAAAAAAAAAAAAAAAAwf88AMH/ywDB//8Awf//AMH//wDB//8Awf//AMH//wDB//8Awf//AMH//wDB//8Awf//AMH//wDB//8Awf//AMH//wDB//8Awf//AMH//wDB//8Awf//AMH//wDB//8Awf//AMH//z3c+v9h6/b/Yev2/2Hr9v9h6/b/Yev2/2Hr9v9h6/b/Yev2/2Hr9v9h6/b/Yev2/2Hr9qAAAAAAAAAAAAAAAAAAAAAAAAAAAAAAAAAAAAAAAAAAAAAAAAAAAAAAAAAAAAAAAAAAAAAAAAAAAAAAAAAAAAAAV9f9oFfX/f9X1/3/V9f9/1fX/f9X1/3/V9f9/1fX/f9X1/3/V9f9/1fX/f9X1/3/LLH1/wCL7P8Ai+z/AIvs/wCL7P8Ai+z/AIvs/wCL7P8Ai+z/AIvs/wCL7P8Ai+z/AIvs/wCL7P8Ai+z/AIvs/wCL7P8Ai+z/AIvs/wCL7P8Ai+z/AIvs/wCL7P8Ai+zXAIvsSAAAAAAAAAAAAAAAAAAAAAAAAAAAAAAAAAAAAAAAAAAAeZhDCHmYQ4B5mEP3eZhD/3mYQ/95mEP/eZhD/3mYQ/95mEP/eZhD/3mYQ/95mEP/eZhD/3mYQ/95mEP/eZhD/3mYQ/95mEP/eZhD/3mYQ+d5mENkeZhDBAAAAAAAAAAAAAAAAAAAAAAAAAAAAAAAAAAAAAAAwf8EAMH/ZADB/+cAwf//AMH//wDB//8Awf//AMH//wDB//8Awf//AMH//wDB//8Awf//AMH//wDB//8Awf//AMH//wDB//8Awf//AMH//wDB//8Awf//AMH//wDB//8Awf//Pdz6/2Hr9v9h6/b/Yev2/2Hr9v9h6/b/Yev2/2Hr9v9h6/b/Yev2/2Hr9v9h6/b/Yev2oAAAAAAAAAAAAAAAAAAAAAAAAAAAAAAAAAAAAAAAAAAAAAAAAAAAAAAAAAAAAAAAAAAAAAAAAAAAAAAAAAAAAABX1/2gV9f9/1fX/f9X1/3/V9f9/1fX/f9X1/3/V9f9/1fX/f9X1/3/V9f9/1fX/f8ssfX/AIvs/wCL7P8Ai+z/AIvs/wCL7P8Ai+z/AIvs/wCL7P8Ai+z/AIvs/wCL7P8Ai+z/AIvs/wCL7P8Ai+z/AIvs/wCL7P8Ai+z/AIvs/wCL7P8Ai+zvAIvscACL7AQAAAAAAAAAAAAAAAAAAAAAAAAAAAAAAAAAAAAAAAAAAHmYQ1h5mEPjeZhD/3mYQ/95mEP/eZhD/3mYQ/95mEP/eZhD/3mYQ/95mEP/eZhD/3mYQ/95mEP/eZhD/3mYQ/95mEP/eZhD/3mYQ/95mEP/eZhD/3mYQ/95mEPPeZhDPAAAAAAAAAAAAAAAAAAAAAAAAAAAAAAAAAAAAAAAAAAAAMH/EADB/4gAwf/7AMH//wDB//8Awf//AMH//wDB//8Awf//AMH//wDB//8Awf//AMH//wDB//8Awf//AMH//wDB//8Awf//AMH//wDB//8Awf//AMH//wDB//893Pr/Yev2/2Hr9v9h6/b/Yev2/2Hr9v9h6/b/Yev2/2Hr9v9h6/b/Yev2/2Hr9v9h6/agAAAAAAAAAAAAAAAAAAAAAAAAAAAAAAAAAAAAAAAAAAAAAAAAAAAAAAAAAAAAAAAAAAAAAAAAAAAAAAAAAAAAAFfX/aBX1/3/V9f9/1fX/f9X1/3/V9f9/1fX/f9X1/3/V9f9/1fX/f9X1/3/V9f9/yyx9f8Ai+z/AIvs/wCL7P8Ai+z/AIvs/wCL7P8Ai+z/AIvs/wCL7P8Ai+z/AIvs/wCL7P8Ai+z/AIvs/wCL7P8Ai+z/AIvs/wCL7P8Ai+z7AIvsmACL7BQAAAAAAAAAAAAAAAAAAAAAAAAAAAAAAAAAAAAAAAAAAHmYQzR5mEPDeZhD/3mYQ/95mEP/eZhD/3mYQ/95mEP/eZhD/3mYQ/95mEP/eZhD/3mYQ/95mEP/eZhD/3mYQ/95mEP/eZhD/3mYQ/95mEP/eZhD/3mYQ/95mEP/eZhD/3mYQ/95mEP/eZhDp3mYQyAAAAAAAAAAAAAAAAAAAAAAAAAAAAAAAAAAAAAAAAAAAADB/yQAwf+zAMH//wDB//8Awf//AMH//wDB//8Awf//AMH//wDB//8Awf//AMH//wDB//8Awf//AMH//wDB//8Awf//AMH//wDB//8Awf//AMH//z3c+v9h6/b/Yev2/2Hr9v9h6/b/Yev2/2Hr9v9h6/b/Yev2/2Hr9v9h6/b/Yev2/2Hr9qAAAAAAAAAAAAAAAAAAAAAAAAAAAAAAAAAAAAAAAAAAAAAAAAAAAAAAAAAAAAAAAAAAAAAAAAAAAAAAAAAAAAAAV9f9oFfX/f9X1/3/V9f9/1fX/f9X1/3/V9f9/1fX/f9X1/3/V9f9/1fX/f9X1/3/LLH1/wCL7P8Ai+z/AIvs/wCL7P8Ai+z/AIvs/wCL7P8Ai+z/AIvs/wCL7P8Ai+z/AIvs/wCL7P8Ai+z/AIvs/wCL7P8Ai+z/AIvsvwCL7CwAAAAAAAAAAAAAAAAAAAAAAAAAAAAAAAAAAAAAAAAAAHmYQxh5mEOceZhD/3mYQ/95mEP/eZhD/3mYQ/95mEP/eZhD/3mYQ/95mEP/eZhD/3mYQ/95mEP/eZhD/3mYQ/95mEP/eZhD/3mYQ/95mEP/eZhD/3mYQ/95mEP/eZhD/3mYQ/95mEP/eZhD/3mYQ/95mEP/eZhD93mYQ4B5mEMIAAAAAAAAAAAAAAAAAAAAAAAAAAAAAAAAAAAAAAAAAAAAwf9EAMH/1wDB//8Awf//AMH//wDB//8Awf//AMH//wDB//8Awf//AMH//wDB//8Awf//AMH//wDB//8Awf//AMH//wDB//8Awf//Pdz6/2Hr9v9h6/b/Yev2/2Hr9v9h6/b/Yev2/2Hr9v9h6/b/Yev2/2Hr9v9h6/b/Yev2oAAAAAAAAAAAAAAAAAAAAAAAAAAAAAAAAAAAAAAAAAAAAAAAAAAAAAAAAAAAAAAAAAAAAAAAAAAAAAAAAAAAAABX1/2gV9f9/1fX/f9X1/3/V9f9/1fX/f9X1/3/V9f9/1fX/f9X1/3/V9f9/1fX/f8ssfX/AIvs/wCL7P8Ai+z/AIvs/wCL7P8Ai+z/AIvs/wCL7P8Ai+z/AIvs/wCL7P8Ai+z/AIvs/wCL7P8Ai+z/AIvs2wCL7FQAAAAAAAAAAAAAAAAAAAAAAAAAAAAAAAAAAAAAAAAAAHmYQwh5mEN4eZhD73mYQ/95mEP/eZhD/3mYQ/95mEP/eZhD/3mYQ/95mEP/eZhD/3mYQ/95mEP/eZhD/3mYQ/95mEP/eZhD/3mYQ/95mEP/eZhD/3mYQ/95mEP/eZhD/3mYQ/95mEP/eZhD/3mYQ/95mEP/eZhD/3mYQ/95mEP/eZhD/3mYQ+N5mENcAAAAAAAAAAAAAAAAAAAAAAAAAAAAAAAAAAAAAAAAAAAAwf8EAMH/bADB/+8Awf//AMH//wDB//8Awf//AMH//wDB//8Awf//AMH//wDB//8Awf//AMH//wDB//8Awf//AMH//wDB//893Pr/Yev2/2Hr9v9h6/b/Yev2/2Hr9v9h6/b/Yev2/2Hr9v9h6/b/Yev2/2Hr9v9h6/agAAAAAAAAAAAAAAAAAAAAAAAAAAAAAAAAAAAAAAAAAAAAAAAAAAAAAAAAAAAAAAAAAAAAAAAAAAAAAAAAAAAAAFfX/aBX1/3/V9f9/1fX/f9X1/3/V9f9/1fX/f9X1/3/V9f9/1fX/f9X1/3/V9f9/yyx9f8Ai+z/AIvs/wCL7P8Ai+z/AIvs/wCL7P8Ai+z/AIvs/wCL7P8Ai+z/AIvs/wCL7P8Ai+z/AIvs8wCL7HwAi+wIAAAAAAAAAAAAAAAAAAAAAAAAAAAAAAAAAAAAAAAAAAB5mENMeZhD23mYQ/95mEP/eZhD/3mYQ/95mEP/eZhD/3mYQ/95mEP/eZhD/3mYQ/95mEP/eZhD/3mYQ/95mEP/eZhD/3mYQ/95mEP/eZhD/3mYQ/95mEP/eZhD/3mYQ/95mEP/eZhD/3mYQ/95mEP/eZhD/3mYQ/95mEP/eZhD/3mYQ/95mEP/eZhD/3mYQ/95mEPDeZhDNAAAAAAAAAAAAAAAAAAAAAAAAAAAAAAAAAAAAAAAAAAAAMH/EADB/5gAwf/7AMH//wDB//8Awf//AMH//wDB//8Awf//AMH//wDB//8Awf//AMH//wDB//8Awf//AMH//z3c+v9h6/b/Yev2/2Hr9v9h6/b/Yev2/2Hr9v9h6/b/Yev2/2Hr9v9h6/b/Yev2/2Hr9qAAAAAAAAAAAAAAAAAAAAAAAAAAAAAAAAAAAAAAAAAAAAAAAAAAAAAAAAAAAAAAAAAAAAAAAAAAAAAAAAAAAAAAV9f9oFfX/f9X1/3/V9f9/1fX/f9X1/3/V9f9/1fX/f9X1/3/V9f9/1fX/f9X1/3/LLH1/wCL7P8Ai+z/AIvs/wCL7P8Ai+z/AIvs/wCL7P8Ai+z/AIvs/wCL7P8Ai+z/AIvs/wCL7KAAi+wYAAAAAAAAAAAAAAAAAAAAAAAAAAAAAAAAAAAAAAAAAAB5mEMseZhDu3mYQ/95mEP/eZhD/3mYQ/95mEP/eZhD/3mYQ/95mEP/eZhD/3mYQ/95mEP/eZhD/3mYQ/95mEP/eZhD/3mYQ/95mEP/eZhD/3mYQ/95mEP/eZhD/3mYQ/95mEP/eZhD/3mYQ/95mEP/eZhD/3mYQ/95mEP/eZhD/3mYQ/95mEP/eZhD/3mYQ/95mEP/eZhD/3mYQ/95mEP/eZhDoHmYQxgAAAAAAAAAAAAAAAAAAAAAAAAAAAAAAAAAAAAAAAAAAADB/ywAwf+7AMH//wDB//8Awf//AMH//wDB//8Awf//AMH//wDB//8Awf//AMH//wDB//8Awf//Pdz6/2Hr9v9h6/b/Yev2/2Hr9v9h6/b/Yev2/2Hr9v9h6/b/Yev2/2Hr9v9h6/b/Yev2oAAAAAAAAAAAAAAAAAAAAAAAAAAAAAAAAAAAAAAAAAAAAAAAAAAAAAAAAAAAAAAAAAAAAAAAAAAAAAAAAAAAAABX1/2gV9f9/1fX/f9X1/3/V9f9/1fX/f9X1/3/V9f9/1fX/f9X1/3/V9f9/1fX/f8ssfX/AIvs/wCL7P8Ai+z/AIvs/wCL7P8Ai+z/AIvs/wCL7P8Ai+z/AIvs/wCL7McAi+w4AAAAAAAAAAAAAAAAAAAAAAAAAAAAAAAAAAAAAAAAAAB5mEMQeZhDlHmYQ/t5mEP/eZhD/3mYQ/95mEP/eZhD/3mYQ/95mEP/eZhD/3mYQ/95mEP/eZhD/3mYQ/95mEP/eZhD/3mYQ/95mEP/eZhD/3mYQ/95mEP/eZhD/3mYQ/95mEP/eZhD/3mYQ/95mEP/eZhD/3mYQ/95mEP/eZhD/3mYQ/95mEP/eZhD/3mYQ/95mEP/eZhD/3mYQ/95mEP/eZhD/3mYQ/95mEP/eZhD73mYQ3h5mEMIAAAAAAAAAAAAAAAAAAAAAAAAAAAAAAAAAAAAAAAAAAAAwf9QAMH/2wDB//8Awf//AMH//wDB//8Awf//AMH//wDB//8Awf//AMH//wDB//893Pr/Yev2/2Hr9v9h6/b/Yev2/2Hr9v9h6/b/Yev2/2Hr9v9h6/b/Yev2/2Hr9v9h6/agAAAAAAAAAAAAAAAAAAAAAAAAAAAAAAAAAAAAAAAAAAAAAAAAAAAAAAAAAAAAAAAAAAAAAAAAAAAAAAAAAAAAAFfX/aBX1/3/V9f9/1fX/f9X1/3/V9f9/1fX/f9X1/3/V9f9/1fX/f9X1/3/V9f9/yyx9f8Ai+z/AIvs/wCL7P8Ai+z/AIvs/wCL7P8Ai+z/AIvs/wCL7OMAi+xcAAAAAAAAAAAAAAAAAAAAAAAAAAAAAAAAAAAAAAAAAAB5mEMEeZhDbHmYQ+95mEP/eZhD/3mYQ/95mEP/eZhD/3mYQ/95mEP/eZhD/3mYQ/95mEP/eZhD/3mYQ/95mEP/eZhD/3mYQ/95mEP/eZhD/3mYQ/95mEP/eZhD/3mYQ/95mEP/eZhD/3mYQ/95mEP/eZhD/3mYQ/95mEP/eZhD/3mYQ/95mEP/eZhD/3mYQ/95mEP/eZhD/3mYQ/95mEP/eZhD/3mYQ/95mEP/eZhD/3mYQ/95mEP/eZhD/3mYQ9t5mENQAAAAAAAAAAAAAAAAAAAAAAAAAAAAAAAAAAAAAAAAAAAAwf8IAMH/eADB/+8Awf//AMH//wDB//8Awf//AMH//wDB//8Awf//AMH//z3c+v9h6/b/Yev2/2Hr9v9h6/b/Yev2/2Hr9v9h6/b/Yev2/2Hr9v9h6/b/Yev2/2Hr9qAAAAAAAAAAAAAAAAAAAAAAAAAAAAAAAAAAAAAAAAAAAAAAAAAAAAAAAAAAAAAAAAAAAAAAAAAAAAAAAAAAAAAAV9f9oFfX/f9X1/3/V9f9/1fX/f9X1/3/V9f9/1fX/f9X1/3/V9f9/1fX/f9X1/3/LLH1/wCL7P8Ai+z/AIvs/wCL7P8Ai+z/AIvs/wCL7PcAi+yEAIvsDAAAAAAAAAAAAAAAAAAAAAAAAAAAAAAAAAAAAAAAAAAAeZhDRHmYQ9N5mEP/eZhD/3mYQ/95mEP/eZhD/3mYQ/95mEP/eZhD/3mYQ/95mEP/eZhD/3mYQ/95mEP/eZhD/3mYQ/95mEP/eZhD/3mYQ/95mEP/eZhD/3mYQ/95mEP/eZhD/3mYQ/95mEP/eZhD/3mYQ/95mEP/eZhD/3mYQ/95mEP/eZhD/3mYQ/95mEP/eZhD/3mYQ/95mEP/eZhD/3mYQ/95mEP/eZhD/3mYQ/95mEP/eZhD/3mYQ/95mEP/eZhD/3mYQ/95mEO7eZhDLAAAAAAAAAAAAAAAAAAAAAAAAAAAAAAAAAAAAAAAAAAAAMH/GADB/6AAwf//AMH//wDB//8Awf//AMH//wDB//8Awf//Pdz6/2Hr9v9h6/b/Yev2/2Hr9v9h6/b/Yev2/2Hr9v9h6/b/Yev2/2Hr9v9h6/b/Yev2oAAAAAAAAAAAAAAAAAAAAAAAAAAAAAAAAAAAAAAAAAAAAAAAAAAAAAAAAAAAAAAAAAAAAAAAAAAAAAAAAAAAAABX1/2gV9f9/1fX/f9X1/3/V9f9/1fX/f9X1/3/V9f9/1fX/f9X1/3/V9f9/1fX/f8ssfX/AIvs/wCL7P8Ai+z/AIvs/wCL7P8Ai+ynAIvsIAAAAAAAAAAAAAAAAAAAAAAAAAAAAAAAAAAAAAAAAAAAeZhDJHmYQ7N5mEP/eZhD/3mYQ/95mEP/eZhD/3mYQ/95mEP/eZhD/3mYQ/95mEP/eZhD/3mYQ/95mEP/eZhD/3mYQ/95mEP/eZhD/3mYQ/95mEP/eZhD/3mYQ/95mEP/eZhD/3mYQ/95mEP/eZhD/3mYQ/95mEP/eZhD/3mYQ/95mEP/eZhD/3mYQ/95mEP/eZhD/3mYQ/95mEP/eZhD/3mYQ/95mEP/eZhD/3mYQ/95mEP/eZhD/3mYQ/95mEP/eZhD/3mYQ/95mEP/eZhD/3mYQ/95mEP7eZhDmHmYQxAAAAAAAAAAAAAAAAAAAAAAAAAAAAAAAAAAAAAAAAAAAADB/zQAwf/DAMH//wDB//8Awf//AMH//wDB//893Pr/Yev2/2Hr9v9h6/b/Yev2/2Hr9v9h6/b/Yev2/2Hr9v9h6/b/Yev2/2Hr9v9h6/agAAAAAAAAAAAAAAAAAAAAAAAAAAAAAAAAAAAAAAAAAAAAAAAAAAAAAAAAAAAAAAAAAAAAAAAAAAAAAAAAAAAAAFfX/aBX1/3/V9f9/1fX/f9X1/3/V9f9/1fX/f9X1/3/V9f9/1fX/f9X1/3/V9f9/ze79/8Ai+z/AIvs/wCL7P8Ai+zPAIvsQAAAAAAAAAAAAAAAAAAAAAAAAAAAAAAAAAAAAAAAAAAAeZhDEHmYQ4h5mEP3eZhD/3mYQ/95mEP/eZhD/3mYQ/95mEP/eZhD/3mYQ/95mEP/eZhD/3mYQ/95mEP/eZhD/3mYQ/95mEP/eZhD/3mYQ/95mEP/eZhD/3mYQ/95mEP/eZhD/3mYQ/95mEP/eZhD/3mYQ/95mEP/eZhD/3mYQ/95mEP/eZhD/3mYQ/95mEP/eZhD/3mYQ/95mEP/eZhD/3mYQ/95mEP/eZhD/3mYQ/95mEP/eZhD/3mYQ/95mEP/eZhD/3mYQ/95mEP/eZhD/3mYQ/95mEP/eZhD/3mYQ/95mEP/eZhD73mYQ2x5mEMEAAAAAAAAAAAAAAAAAAAAAAAAAAAAAAAAAAAAAAAAAAAAwf9cAMH/4wDB//8Awf//AMH//0vh+P9h6/b/Yev2/2Hr9v9h6/b/Yev2/2Hr9v9h6/b/Yev2/2Hr9v9h6/b/Yev2/2Hr9qAAAAAAAAAAAAAAAAAAAAAAAAAAAAAAAAAAAAAAAAAAAAAAAAAAAAAAAAAAAAAAAAAAAAAAAAAAAAAAAAAAAAAAV9f9oFfX/f9X1/3/V9f9/1fX/f9X1/3/V9f9/1fX/f9X1/3/V9f9/1fX/f9X1/3/Rsj6/wCL7P8Ai+zrAIvsZACL7AQAAAAAAAAAAAAAAAAAAAAAAAAAAAAAAAAAAAAAAAAAAHmYQ2R5mEPneZhD/3mYQ/95mEP/eZhD/3mYQ/95mEP/eZhD/3mYQ/95mEP/eZhD/3mYQ/95mEP/eZhD/3mYQ/95mEP/eZhD/3mYQ/95mEP/eZhD/3mYQ/95mEP/eZhD/3mYQ/95mEP/eZhD/3mYQ/95mEP/eZhD/3mYQ/95mEP/eZhD/3mYQ/95mEP/eZhD/3mYQ/95mEP/eZhD/3mYQ/95mEP/eZhD/3mYQ/95mEP/eZhD/3mYQ/95mEP/eZhD/3mYQ/95mEP/eZhD/3mYQ/95mEP/eZhD/3mYQ/95mEP/eZhD/3mYQ/95mEP/eZhD/3mYQ9d5mENEAAAAAAAAAAAAAAAAAAAAAAAAAAAAAAAAAAAAAAAAAAAAwf8IAMH/gADB//cAwf//W+n3/2Hr9v9h6/b/Yev2/2Hr9v9h6/b/Yev2/2Hr9v9h6/b/Yev2/2Hr9v9h6/b/Yev2oAAAAAAAAAAAAAAAAAAAAAAAAAAAAAAAAAAAAAAAAAAAAAAAAAAAAAAAAAAAAAAAAAAAAAAAAAAAAAAAAAAAAABX1/2gV9f9/1fX/f9X1/3/V9f9/1fX/f9X1/3/V9f9/1fX/f9X1/3/V9f9/1fX/f9W1v37A43tjACL7BAAAAAAAAAAAAAAAAAAAAAAAAAAAAAAAAAAAAAAAAAAAHmYQzx5mEPLeZhD/3mYQ/95mEP/eZhD/3mYQ/95mEP/eZhD/3mYQ/95mEP/eZhD/3mYQ/95mEP/eZhD/3mYQ/95mEP/eZhD/3mYQ/95mEP/eZhD/3mYQ/95mEP/eZhD/3mYQ/95mEP/eZhD/3mYQ/95mEP/eZhD/3mYQ/95mEP/eZhD/3mYQ/95mEP/eZhD/3mYQ/95mEP/eZhD/3mYQ/95mEP/eZhD/3mYQ/95mEP/eZhD/3mYQ/95mEP/eZhD/3mYQ/95mEP/eZhD/3mYQ/95mEP/eZhD/3mYQ/95mEP/eZhD/3mYQ/95mEP/eZhD/3mYQ/95mEP/eZhD/3mYQ/95mEOzeZhDJAAAAAAAAAAAAAAAAAAAAAAAAAAAAAAAAAAAAAAAAAAAAMH/IBfL/adh6/b/Yev2/2Hr9v9h6/b/Yev2/2Hr9v9h6/b/Yev2/2Hr9v9h6/b/Yev2/2Hr9v9h6/agAAAAAAAAAAAAAAAAAAAAAAAAAAAAAAAAAAAAAAAAAAAAAAAAAAAAAAAAAAAAAAAAAAAAAAAAAAAAAAAAAAAAAFfX/aBX1/3/V9f9/1fX/f9X1/3/V9f9/1fX/f9X1/3/V9f9/1fX/f9X1/3/V9f9t1fX/SQAAAAAAAAAAAAAAAAAAAAAAAAAAAAAAAAAAAAAAAAAAHmYQxx5mEOneZhD/3mYQ/95mEP/eZhD/3mYQ/95mEP/eZhD/3mYQ/95mEP/eZhD/3mYQ/95mEP/eZhD/3mYQ/95mEP/eZhD/3mYQ/95mEP/eZhD/3mYQ/95mEP/eZhD/3mYQ/95mEP/eZhD/3mYQ/95mEP/eZhD/3mYQ/95mEP/eZhD/3mYQ/95mEP/eZhD/3mYQ/95mEP/eZhD/3mYQ/95mEP/eZhD/3mYQ/95mEP/eZhD/3mYQ/95mEP/eZhD/3mYQ/95mEP/eZhD/3mYQ/95mEP/eZhD/3mYQ/95mEP/eZhD/3mYQ/95mEP/eZhD/3mYQ/95mEP/eZhD/3mYQ/95mEP/eZhD/3mYQ/95mEP7eZhDiHmYQxAAAAAAAAAAAAAAAAAAAAAAAAAAAAAAAAAAAAAAAAAAAGHr9jxh6/bLYev2/2Hr9v9h6/b/Yev2/2Hr9v9h6/b/Yev2/2Hr9v9h6/b/Yev2/2Hr9qAAAAAAAAAAAAAAAAAAAAAAAAAAAAAAAAAAAAAAAAAAAAAAAAAAAAAAAAAAAAAAAAAAAAAAAAAAAAAAAAAAAAAAV9f9oFfX/f9X1/3/V9f9/1fX/f9X1/3/V9f9/1fX/f9X1/3/V9f911fX/UgAAAAAAAAAAAAAAAAAAAAAAAAAAAAAAAAAAAAAAAAAAHmYQwh5mEOAeZhD93mYQ/95mEP/eZhD/3mYQ/95mEP/eZhD/3mYQ/95mEP/eZhD/3mYQ/95mEP/eZhD/3mYQ/95mEP/eZhD/3mYQ/95mEP/eZhD/3mYQ/95mEP/eZhD/3mYQ/95mEP/eZhD/3mYQ/95mEP/eZhD/3mYQ/95mEP/eZhD/3mYQ/95mEP/eZhD/3mYQ/95mEP/eZhD/3mYQ/95mEP/eZhD/3mYQ/95mEP/eZhD/3mYQ/95mEP/eZhD/3mYQ/95mEP/eZhD/3mYQ/95mEP/eZhD/3mYQ/95mEP/eZhD/3mYQ/95mEP/eZhD/3mYQ/95mEP/eZhD/3mYQ/95mEP/eZhD/3mYQ/95mEP/eZhD/3mYQ/95mEP/eZhD53mYQ2R5mEMEAAAAAAAAAAAAAAAAAAAAAAAAAAAAAAAAAAAAAGHr9gRh6/ZkYev252Hr9v9h6/b/Yev2/2Hr9v9h6/b/Yev2/2Hr9v9h6/b/Yev2oAAAAAAAAAAAAAAAAAAAAAAAAAAAAAAAAAAAAAAAAAAAAAAAAAAAAAAAAAAAAAAAAAAAAAAAAAAAAAAAAAAAAABX1/2AV9f9/1fX/f9X1/3/V9f9/1fX/f9X1/3/V9f971fX/WxX1/0EAAAAAAAAAAAAAAAAAAAAAAAAAAAAAAAAAAAAAAAAAAB5mENYeZhD43mYQ/95mEP/eZhD/3mYQ/95mEP/eZhD/3mYQ/95mEP/eZhD/3mYQ/95mEP/eZhD/3mYQ/95mEP/eZhD/3mYQ/95mEP/eZhD/3mYQ/95mEP/eZhD/3mYQ/95mEP/eZhD/3mYQ/95mEP/eZhD/3mYQ/95mEP/eZhD/3mYQ/95mEP/eZhD/3mYQ/95mEP/eZhD/3mYQ/95mEP/eZhD/3mYQ/95mEP/eZhD/3mYQ/95mEP/eZhD/3mYQ/95mEP/eZhD/3mYQ/95mEP/eZhD/3mYQ/95mEP/eZhD/3mYQ/95mEP/eZhD/3mYQ/95mEP/eZhD/3mYQ/95mEP/eZhD/3mYQ/95mEP/eZhD/3mYQ/95mEP/eZhD/3mYQ/95mEP/eZhD/3mYQ8t5mEM8AAAAAAAAAAAAAAAAAAAAAAAAAAAAAAAAAAAAAAAAAABh6/YQYev2iGHr9vth6/b/Yev2/2Hr9v9h6/b/Yev2/2Hr9v9h6/aEAAAAAAAAAAAAAAAAAAAAAAAAAAAAAAAAAAAAAAAAAAAAAAAAAAAAAAAAAAAAAAAAAAAAAAAAAAAAAAAAAAAAAFfX/WhX1/3/V9f9/1fX/f9X1/3/V9f9+1fX/ZhX1/0UAAAAAAAAAAAAAAAAAAAAAAAAAAAAAAAAAAAAAAAAAAB5mEM0eZhDw3mYQ/95mEP/eZhD/3mYQ/95mEP/eZhD/3mYQ/95mEP/eZhD/3mYQ/95mEP/eZhD/3mYQ/95mEP/eZhD/3mYQ/95mEP/eZhD/3mYQ/95mEP/eZhD/3mYQ/95mEP/eZhD/3mYQ/95mEP/eZhD/3mYQ/95mEP/eZhD/3mYQ/95mEP/eZhD/3mYQ/95mEP/eZhD/3mYQ/95mEP/eZhD/3mYQ/95mEP/eZhD/3mYQ/95mEP/eZhD/3mYQ/95mEP/eZhD/3mYQ/95mEP/eZhD/3mYQ/95mEP/eZhD/3mYQ/95mEP/eZhD/3mYQ/95mEP/eZhD/3mYQ/95mEP/eZhD/3mYQ/95mEP/eZhD/3mYQ/95mEP/eZhD/3mYQ/95mEP/eZhD/3mYQ/95mEP/eZhD/3mYQ/95mEOneZhDIAAAAAAAAAAAAAAAAAAAAAAAAAAAAAAAAAAAAAAAAAAAYev2JGHr9rNh6/b/Yev2/2Hr9v9h6/b/Yev2/2Hr9mgAAAAAAAAAAAAAAAAAAAAAAAAAAAAAAAAAAAAAAAAAAAAAAAAAAAAAAAAAAAAAAAAAAAAAAAAAAAAAAAAAAAAAV9f9MFfX/f9X1/3/V9f9/1fX/btX1/0sAAAAAAAAAAAAAAAAAAAAAAAAAAAAAAAAAAAAAAAAAAD7zSgY5MQtnH2aQv95mEP/eZhD/3mYQ/95mEP/eZhD/3mYQ/95mEP/eZhD/3mYQ/95mEP/eZhD/3mYQ/95mEP/eZhD/3mYQ/95mEP/eZhD/3mYQ/95mEP/eZhD/3mYQ/95mEP/eZhD/3mYQ/95mEP/eZhD/3mYQ/95mEP/eZhD/3mYQ/95mEP/eZhD/3mYQ/95mEP/eZhD/3mYQ/95mEP/eZhD/3mYQ/95mEP/eZhD/3mYQ/95mEP/eZhD/3mYQ/95mEP/eZhD/3mYQ/95mEP/eZhD/3mYQ/95mEP/eZhD/3mYQ/95mEP/eZhD/3mYQ/95mEP/eZhD/3mYQ/95mEP/eZhD/3mYQ/95mEP/eZhD/3mYQ/95mEP/eZhD/3mYQ/95mEP/eZhD/3mYQ/95mEP/eZhD/3mYQ/95mEP/eZhD/3mYQ/9/m0L368YsgPvNKAgAAAAAAAAAAAAAAAAAAAAAAAAAAAAAAAAAAAAAAAAAAGHr9kRh6/bXYev2/2Hr9v9h6/b/Yev2MAAAAAAAAAAAAAAAAAAAAAAAAAAAAAAAAAAAAAAAAAAAAAAAAAAAAAAAAAAAAAAAAAAAAAAAAAAAAAAAAAAAAAAAAAAAV9f961fX/dtX1/1UAAAAAAAAAAAAAAAAAAAAAAAAAAAAAAAAAAAAAAAAAAD7zSgI+80oePvNKO/7zSj/0bwx/3uZQ/95mEP/eZhD/3mYQ/95mEP/eZhD/3mYQ/95mEP/eZhD/3mYQ/95mEP/eZhD/3mYQ/95mEP/eZhD/3mYQ/95mEP/eZhD/3mYQ/95mEP/eZhD/3mYQ/95mEP/eZhD/3mYQ/95mEP/eZhD/3mYQ/95mEP/eZhD/3mYQ/95mEP/eZhD/3mYQ/95mEP/eZhD/3mYQ/95mEP/eZhD/3mYQ/95mEP/eZhD/3mYQ/95mEP/eZhD/3mYQ/95mEP/eZhD/3mYQ/95mEP/eZhD/3mYQ/95mEP/eZhD/3mYQ/95mEP/eZhD/3mYQ/95mEP/eZhD/3mYQ/95mEP/eZhD/3mYQ/95mEP/eZhD/3mYQ/95mEP/eZhD/3mYQ/95mEP/eZhD/3mYQ/95mEP/eZhD/3mYQ/95mEP/e5lD/9G8Mf/7zSj/+80o4/vNKFwAAAAAAAAAAAAAAAAAAAAAAAAAAAAAAAAAAAAAAAAAAGHr9gRh6/ZsYev272Hr9usAAAAAAAAAAAAAAAAAAAAAAAAAAAAAAAAAAAAAAAAAAAAAAAAAAAAAAAAAAAAAAAAAAAAAAAAAAAAAAAAAAAAAAAAAAAAAAABX1/1AV9f9CAAAAAAAAAAAAAAAAAAAAAAAAAAAAAAAAAAAAAAAAAAA+80oTPvNKNv7zSj/+80o//vNKP/7zSj/1b0w/3+bQv95mEP/eZhD/3mYQ/95mEP/eZhD/3mYQ/95mEP/eZhD/3mYQ/95mEP/eZhD/3mYQ/95mEP/eZhD/3mYQ/95mEP/eZhD/3mYQ/95mEP/eZhD/3mYQ/95mEP/eZhD/3mYQ/95mEP/eZhD/3mYQ/95mEP/eZhD/3mYQ/95mEP/eZhD/3mYQ/95mEP/eZhD/3mYQ/95mEP/eZhD/3mYQ/95mEP/eZhD/3mYQ/95mEP/eZhD/3mYQ/95mEP/eZhD/3mYQ/95mEP/eZhD/3mYQ/95mEP/eZhD/3mYQ/95mEP/eZhD/3mYQ/95mEP/eZhD/3mYQ/95mEP/eZhD/3mYQ/95mEP/eZhD/3mYQ/95mEP/eZhD/3mYQ/95mEP/eZhD/3mYQ/95mEP/eZhD/4GbQf/XvjD/+80o//vNKP/7zSj/+80o//vNKMP7zSg0AAAAAAAAAAAAAAAAAAAAAAAAAAAAAAAAAAAAAAAAAABh6/YQYev2VAAAAAAAAAAAAAAAAAAAAAAAAAAAAAAAAAAAAAAAAAAAAAAAAAAAAAAAAAAAAAAAAAAAAAAAAAAAAAAAAAAAAAAAAAAAAAAAAAAAAAAAAAAAAAAAAAAAAAAAAAAAAAAAAAAAAAAAAAAA+80oLPvNKLv7zSj/+80o//vNKP/7zSj/+80o//vNKP/7zSj/68cs/5ymPP95mEP/eZhD/3mYQ/95mEP/eZhD/3mYQ/95mEP/eZhD/3mYQ/95mEP/eZhD/3mYQ/95mEP/eZhD/3mYQ/95mEP/eZhD/3mYQ/95mEP/eZhD/3mYQ/95mEP/eZhD/3mYQ/95mEP/eZhD/3mYQ/95mEP/eZhD/3mYQ/95mEP/eZhD/3mYQ/95mEP/eZhD/3mYQ/95mEP/eZhD/3mYQ/95mEP/eZhD/3mYQ/95mEP/eZhD/3mYQ/95mEP/eZhD/3mYQ/95mEP/eZhD/3mYQ/95mEP/eZhD/3mYQ/95mEP/eZhD/3mYQ/95mEP/eZhD/3mYQ/95mEP/eZhD/3mYQ/95mEP/eZhD/3mYQ/95mEP/eZhD/3mYQ/95mEP/eZhD/3mYQ/+cpjz/68cs//vNKP/7zSj/+80o//vNKP/7zSj/+80o//vNKP/7zSig+80oGAAAAAAAAAAAAAAAAAAAAAAAAAAAAAAAAAAAAAAAAAAAAAAAAAAAAAAAAAAAAAAAAAAAAAAAAAAAAAAAAAAAAAAAAAAAAAAAAAAAAAAAAAAAAAAAAAAAAAAAAAAAAAAAAAAAAAAAAAAAAAAAAAAAAAAAAAAAAAAAAAAAAAAAAAAA+80oEPvNKJT7zSj7+80o//vNKP/7zSj/+80o//vNKP/7zSj/+80o//vNKP/7zSj/+80o/9C8Mf+LoD//eZhD/3mYQ/95mEP/eZhD/3mYQ/95mEP/eZhD/3mYQ/95mEP/eZhD/3mYQ/95mEP/eZhD/3mYQ/95mEP/eZhD/3mYQ/95mEP/eZhD/3mYQ/95mEP/eZhD/3mYQ/95mEP/eZhD/3mYQ/95mEP/eZhD/3mYQ/95mEP/eZhD/3mYQ/95mEP/eZhD/3mYQ/95mEP/eZhD/3mYQ/95mEP/eZhD/3mYQ/95mEP/eZhD/3mYQ/95mEP/eZhD/3mYQ/95mEP/eZhD/3mYQ/95mEP/eZhD/3mYQ/95mEP/eZhD/3mYQ/95mEP/eZhD/3mYQ/95mEP/eZhD/3mYQ/95mEP/eZhD/3mYQ/95mEP/eZhD/3mYQ/+LoD//1L0w//vNKP/7zSj/+80o//vNKP/7zSj/+80o//vNKP/7zSj/+80o//vNKP/7zSjv+80oePvNKAgAAAAAAAAAAAAAAAAAAAAAAAAAAAAAAAAAAAAAAAAAAAAAAAAAAAAAAAAAAAAAAAAAAAAAAAAAAAAAAAAAAAAAAAAAAAAAAAAAAAAAAAAAAAAAAAAAAAAAAAAAAAAAAAAAAAAAAAAAAAAAAAAAAAAA+80oBPvNKGz7zSjv+80o//vNKP/7zSj/+80o//vNKP/7zSj/+80o//vNKP/7zSj/+80o//vNKP/7zSj/+80o//fLKf++tDX/f5tC/3mYQ/95mEP/eZhD/3mYQ/95mEP/eZhD/3mYQ/95mEP/eZhD/3mYQ/95mEP/eZhD/3mYQ/95mEP/eZhD/3mYQ/95mEP/eZhD/3mYQ/95mEP/eZhD/3mYQ/95mEP/eZhD/3mYQ/95mEP/eZhD/3mYQ/95mEP/eZhD/3mYQ/95mEP/eZhD/3mYQ/95mEP/eZhD/3mYQ/95mEP/eZhD/3mYQ/95mEP/eZhD/3mYQ/95mEP/eZhD/3mYQ/95mEP/eZhD/3mYQ/95mEP/eZhD/3mYQ/95mEP/eZhD/3mYQ/95mEP/eZhD/3mYQ/95mEP/eZhD/3mYQ/95mEP/eZhD/3mYQ/+Bm0H/wLU0//nMKf/7zSj/+80o//vNKP/7zSj/+80o//vNKP/7zSj/+80o//vNKP/7zSj/+80o//vNKP/7zSj/+80o2/vNKFAAAAAAAAAAAAAAAAAAAAAAAAAAAAAAAAAAAAAAAAAAAAAAAAAAAAAAAAAAAAAAAAAAAAAAAAAAAAAAAAAAAAAAAAAAAAAAAAAAAAAAAAAAAAAAAAAAAAAAAAAAAAAAAAAAAAAAAAAAAPvNKET7zSjT+80o//vNKP/7zSj/+80o//vNKP/7zSj/+80o//vNKP/7zSj/+80o//vNKP/7zSj/+80o//vNKP/7zSj/+80o//vNKP/vyCv/qqw5/3mYQ/95mEP/eZhD/3mYQ/95mEP/eZhD/3mYQ/95mEP/eZhD/3mYQ/95mEP/eZhD/3mYQ/95mEP/eZhD/3mYQ/95mEP/eZhD/3mYQ/95mEP/eZhD/3mYQ/95mEP/eZhD/3mYQ/95mEP/eZhD/3mYQ/95mEP/eZhD/3mYQ/95mEP/eZhD/3mYQ/95mEP/eZhD/3mYQ/95mEP/eZhD/3mYQ/95mEP/eZhD/3mYQ/95mEP/eZhD/3mYQ/95mEP/eZhD/3mYQ/95mEP/eZhD/3mYQ/95mEP/eZhD/3mYQ/95mEP/eZhD/3mYQ/95mEP/eZhD/3mYQ/97mUP/rK05/+/IK//7zSj/+80o//vNKP/7zSj/+80o//vNKP/7zSj/+80o//vNKP/7zSj/+80o//vNKP/7zSj/+80o//vNKP/7zSj/+80o//vNKLv7zSgsAAAAAAAAAAAAAAAAAAAAAAAAAAAAAAAAAAAAAAAAAAAAAAAAAAAAAAAAAAAAAAAAAAAAAAAAAAAAAAAAAAAAAAAAAAAAAAAAAAAAAAAAAAAAAAAAAAAAAAAAAAD7zSgI+80o1/vNKP/7zSj/+80o//vNKP/7zSj/+80o//vNKP/7zSj/+80o//vNKP/7zSj/+80o//vNKP/7zSj/+80o//vNKP/7zSj/+80o//vNKP/7zSj/4cIu/5akPf95mEP/eZhD/3mYQ/95mEP/eZhD/3mYQ/95mEP/eZhD/3mYQ/95mEP/eZhD/3mYQ/95mEP/eZhD/3mYQ/95mEP/eZhD/3mYQ/95mEP/eZhD/3mYQ/95mEP/eZhD/3mYQ/95mEP/eZhD/3mYQ/95mEP/eZhD/3mYQ/95mEP/eZhD/3mYQ/95mEP/eZhD/3mYQ/95mEP/eZhD/3mYQ/95mEP/eZhD/3mYQ/95mEP/eZhD/3mYQ/95mEP/eZhD/3mYQ/95mEP/eZhD/3mYQ/95mEP/eZhD/3mYQ/95mEP/eZhD/3mYQ/95mEP/mqU8/+PDLf/7zSj/+80o//vNKP/7zSj/+80o//vNKP/7zSj/+80o//vNKP/7zSj/+80o//vNKP/7zSj/+80o//vNKP/7zSj/+80o//vNKP/7zSj/+80o//vNKNMAAAAAAAAAAAAAAAAAAAAAAAAAAAAAAAAAAAAAAAAAAAAAAAAAAAAAAAAAAAAAAAAAAAAAAAAAAAAAAAAAAAAAAAAAAAAAAAAAAAAAAAAAAAAAAAAAAAAAAAAAAAAAAAD7zSgo+80o5/vNKP/7zSj/+80o//vNKP/7zSj/+80o//vNKP/7zSj/+80o//vNKP/7zSj/+80o//vNKP/7zSj/+80o//vNKP/7zSj/+80o//vNKP/7zSj/+80o/8y6Mv+HnkD/eZhD/3mYQ/95mEP/eZhD/3mYQ/95mEP/eZhD/3mYQ/95mEP/eZhD/3mYQ/95mEP/eZhD/3mYQ/95mEP/eZhD/3mYQ/95mEP/eZhD/3mYQ/95mEP/eZhD/3mYQ/95mEP/eZhD/3mYQ/95mEP/eZhD/3mYQ/95mEP/eZhD/3mYQ/95mEP/eZhD/3mYQ/95mEP/eZhD/3mYQ/95mEP/eZhD/3mYQ/95mEP/eZhD/3mYQ/95mEP/eZhD/3mYQ/95mEP/eZhD/3mYQ/95mEP/eZhD/3mYQ/95mEP/iZ9A/9C8Mf/7zSj/+80o//vNKP/7zSj/+80o//vNKP/7zSj/+80o//vNKP/7zSj/+80o//vNKP/7zSj/+80o//vNKP/7zSj/+80o//vNKP/7zSj/+80o//vNKP/7zSjn+80oKAAAAAAAAAAAAAAAAAAAAAAAAAAAAAAAAAAAAAAAAAAAAAAAAAAAAAAAAAAAAAAAAAAAAAAAAAAAAAAAAAAAAAAAAAAAAAAAAAAAAAAAAAAAAAAAAAAAAAAAAAAAAAAAAAAAAAD7zSgo+80o5/vNKP/7zSj/+80o//vNKP/7zSj/+80o//vNKP/7zSj/+80o//vNKP/7zSj/+80o//vNKP/7zSj/+80o//vNKP/7zSj/+80o//vNKP/7zSj/+80o//fLKf+4sjb/fZpC/3mYQ/95mEP/eZhD/3mYQ/95mEP/eZhD/3mYQ/95mEP/eZhD/3mYQ/95mEP/eZhD/3mYQ/95mEP/eZhD/3mYQ/95mEP/eZhD/3mYQ/95mEP/eZhD/3mYQ/95mEP/eZhD/3mYQ/95mEP/eZhD/3mYQ/95mEP/eZhD/3mYQ/95mEP/eZhD/3mYQ/95mEP/eZhD/3mYQ/95mEP/eZhD/3mYQ/95mEP/eZhD/3mYQ/95mEP/eZhD/3mYQ/95mEP/eZhD/3mYQ/95mEP/f5tC/7y0Nf/3yyn/+80o//vNKP/7zSj/+80o//vNKP/7zSj/+80o//vNKP/7zSj/+80o//vNKP/7zSj/+80o//vNKP/7zSj/+80o//vNKP/7zSj/+80o//vNKP/7zSj/+80o5/vNKCgAAAAAAAAAAAAAAAAAAAAAAAAAAAAAAAAAAAAAAAAAAAAAAAAAAAAAAAAAAAAAAAAAAAAAAAAAAAAAAAAAAAAAAAAAAAAAAAAAAAAAAAAAAAAAAAAAAAAAAAAAAAAAAAAAAAAAAAAAAAAAAAD7zSgg+80oz/vNKP/7zSj/+80o//vNKP/7zSj/+80o//vNKP/7zSj/+80o//vNKP/7zSj/+80o//vNKP/7zSj/+80o//vNKP/7zSj/+80o//vNKP/7zSj/+80o//vNKP/rxyz/pqo6/3mYQ/95mEP/eZhD/3mYQ/95mEP/eZhD/3mYQ/95mEP/eZhD/3mYQ/95mEP/eZhD/3mYQ/95mEP/eZhD/3mYQ/95mEP/eZhD/3mYQ/95mEP/eZhD/3mYQ/95mEP/eZhD/3mYQ/95mEP/eZhD/3mYQ/95mEP/eZhD/3mYQ/95mEP/eZhD/3mYQ/95mEP/eZhD/3mYQ/95mEP/eZhD/3mYQ/95mEP/eZhD/3mYQ/95mEP/eZhD/3mYQ/95mEP/eZhD/6qsOf/vyCv/+80o//vNKP/7zSj/+80o//vNKP/7zSj/+80o//vNKP/7zSj/+80o//vNKP/7zSj/+80o//vNKP/7zSj/+80o//vNKP/7zSj/+80o//vNKP/7zSj/+80o//vNKM/7zSggAAAAAAAAAAAAAAAAAAAAAAAAAAAAAAAAAAAAAAAAAAAAAAAAAAAAAAAAAAAAAAAAAAAAAAAAAAAAAAAAAAAAAAAAAAAAAAAAAAAAAAAAAAAAAAAAAAAAAAAAAAAAAAAAAAAAAAAAAAAAAAAAAAAAAAAAAAD7zSgI+80oiPvNKPv7zSj/+80o//vNKP/7zSj/+80o//vNKP/7zSj/+80o//vNKP/7zSj/+80o//vNKP/7zSj/+80o//vNKP/7zSj/+80o//vNKP/7zSj/+80o//vNKP/7zSj/3cEu/5GiPv95mEP/eZhD/3mYQ/95mEP/eZhD/3mYQ/95mEP/eZhD/3mYQ/95mEP/eZhD/3mYQ/95mEP/eZhD/3mYQ/95mEP/eZhD/3mYQ/95mEP/eZhD/3mYQ/95mEP/eZhD/3mYQ/95mEP/eZhD/3mYQ/95mEP/eZhD/3mYQ/95mEP/eZhD/3mYQ/95mEP/eZhD/3mYQ/95mEP/eZhD/3mYQ/95mEP/eZhD/3mYQ/95mEP/eZhD/5akPf/hwi7/+80o//vNKP/7zSj/+80o//vNKP/7zSj/+80o//vNKP/7zSj/+80o//vNKP/7zSj/+80o//vNKP/7zSj/+80o//vNKP/7zSj/+80o//vNKP/7zSj/+80o//vNKPf7zSiE+80oBAAAAAAAAAAAAAAAAAAAAAAAAAAAAAAAAAAAAAAAAAAAAAAAAAAAAAAAAAAAAAAAAAAAAAAAAAAAAAAAAAAAAAAAAAAAAAAAAAAAAAAAAAAAAAAAAAAAAAAAAAAAAAAAAAAAAAAAAAAAAAAAAAAAAAAAAAAAAAAAAAAAAAAAAAAA+80oJPvNKLP7zSj/+80o//vNKP/7zSj/+80o//vNKP/7zSj/+80o//vNKP/7zSj/+80o//vNKP/7zSj/+80o//vNKP/7zSj/+80o//vNKP/7zSj/+80o//vNKP/7zSj/+cwp/8i4M/+FnUH/eZhD/3mYQ/95mEP/eZhD/3mYQ/95mEP/eZhD/3mYQ/95mEP/eZhD/3mYQ/95mEP/eZhD/3mYQ/95mEP/eZhD/3mYQ/95mEP/eZhD/3mYQ/95mEP/eZhD/3mYQ/95mEP/eZhD/3mYQ/95mEP/eZhD/3mYQ/95mEP/eZhD/3mYQ/95mEP/eZhD/3mYQ/95mEP/eZhD/3mYQ/95mEP/eZhD/4eeQP/MujL/+80o//vNKP/7zSj/+80o//vNKP/7zSj/+80o//vNKP/7zSj/+80o//vNKP/7zSj/+80o//vNKP/7zSj/+80o//vNKP/7zSj/+80o//vNKP/7zSj/+80o//vNKP/7zSir+80oJAAAAAAAAAAAAAAAAAAAAAAAAAAAAAAAAAAAAAAAAAAAAAAAAAAAAAAAAAAAAAAAAAAAAAAAAAAAAAAAAAAAAAAAAAAAAAAAAAAAAAAAAAAAAAAAAAAAAAAAAAAAAAAAAAAAAAAAAAAAAAAAAAAAAAAAAAAAAAAAAAAAAAAAAAAAAAAAAAAAAAAAAAAAAAAAAPvNKEj7zSjX+80o//vNKP/7zSj/+80o//vNKP/7zSj/+80o//vNKP/7zSj/+80o//vNKP/7zSj/+80o//vNKP/7zSj/+80o//vNKP/7zSj/+80o//vNKP/7zSj/+80o//PKKv+0sDf/e5lD/3mYQ/95mEP/eZhD/3mYQ/95mEP/eZhD/3mYQ/95mEP/eZhD/3mYQ/95mEP/eZhD/3mYQ/95mEP/eZhD/3mYQ/95mEP/eZhD/3mYQ/95mEP/eZhD/3mYQ/95mEP/eZhD/3mYQ/95mEP/eZhD/3mYQ/95mEP/eZhD/3mYQ/95mEP/eZhD/3mYQ/95mEP/eZhD/32aQv+6szb/98sp//vNKP/7zSj/+80o//vNKP/7zSj/+80o//vNKP/7zSj/+80o//vNKP/7zSj/+80o//vNKP/7zSj/+80o//vNKP/7zSj/+80o//vNKP/7zSj/+80o//vNKP/7zSjT+80oQAAAAAAAAAAAAAAAAAAAAAAAAAAAAAAAAAAAAAAAAAAAAAAAAAAAAAAAAAAAAAAAAAAAAAAAAAAAAAAAAAAAAAAAAAAAAAAAAAAAAAAAAAAAAAAAAAAAAAAAAAAAAAAAAAAAAAAAAAAAAAAAAAAAAAAAAAAAAAAAAAAAAAAAAAAAAAAAAAAAAAAAAAAAAAAAAAAAAAAAAAAAAAAAAPvNKAT7zShs+80o7/vNKP/7zSj/+80o//vNKP/7zSj/+80o//vNKP/7zSj/+80o//vNKP/7zSj/+80o//vNKP/7zSj/+80o//vNKP/7zSj/+80o//vNKP/7zSj/+80o//vNKP/pxiz/oKg7/3mYQ/95mEP/eZhD/3mYQ/95mEP/eZhD/3mYQ/95mEP/eZhD/3mYQ/95mEP/eZhD/3mYQ/95mEP/eZhD/3mYQ/95mEP/eZhD/3mYQ/95mEP/eZhD/3mYQ/95mEP/eZhD/3mYQ/95mEP/eZhD/3mYQ/95mEP/eZhD/3mYQ/95mEP/eZhD/3mYQ/+mqjr/7ccr//vNKP/7zSj/+80o//vNKP/7zSj/+80o//vNKP/7zSj/+80o//vNKP/7zSj/+80o//vNKP/7zSj/+80o//vNKP/7zSj/+80o//vNKP/7zSj/+80o//vNKP/7zSjr+80oaPvNKAQAAAAAAAAAAAAAAAAAAAAAAAAAAAAAAAAAAAAAAAAAAAAAAAAAAAAAAAAAAAAAAAAAAAAAAAAAAAAAAAAAAAAAAAAAAAAAAAAAAAAAAAAAAAAAAAAAAAAAAAAAAAAAAAAAAAAAAAAAAAAAAAAAAAAAAAAAAAAAAAAAAAAAAAAAAAAAAAAAAAAAAAAAAAAAAAAAAAAAAAAAAAAAAAAAAAAAAAAAAAAAAAD7zSgU+80omPvNKPv7zSj/+80o//vNKP/7zSj/+80o//vNKP/7zSj/+80o//vNKP/7zSj/+80o//vNKP/7zSj/+80o//vNKP/7zSj/+80o//vNKP/7zSj/+80o//vNKP/7zSj/174w/42gP/95mEP/eZhD/3mYQ/95mEP/eZhD/3mYQ/95mEP/eZhD/3mYQ/95mEP/eZhD/3mYQ/95mEP/eZhD/3mYQ/95mEP/eZhD/3mYQ/95mEP/eZhD/3mYQ/95mEP/eZhD/3mYQ/95mEP/eZhD/3mYQ/95mEP/eZhD/3mYQ/+Toz7/3cEu//vNKP/7zSj/+80o//vNKP/7zSj/+80o//vNKP/7zSj/+80o//vNKP/7zSj/+80o//vNKP/7zSj/+80o//vNKP/7zSj/+80o//vNKP/7zSj/+80o//vNKP/7zSj7+80ojPvNKBAAAAAAAAAAAAAAAAAAAAAAAAAAAAAAAAAAAAAAAAAAAAAAAAAAAAAAAAAAAAAAAAAAAAAAAAAAAAAAAAAAAAAAAAAAAAAAAAAAAAAAAAAAAAAAAAAAAAAAAAAAAAAAAAAAAAAAAAAAAAAAAAAAAAAAAAAAAAAAAAAAAAAAAAAAAAAAAAAAAAAAAAAAAAAAAAAAAAAAAAAAAAAAAAAAAAAAAAAAAAAAAAAAAAAAAAAAAAAAAAAAAAAA+80oLPvNKLv7zSj/+80o//vNKP/7zSj/+80o//vNKP/7zSj/+80o//vNKP/7zSj/+80o//vNKP/7zSj/+80o//vNKP/7zSj/+80o//vNKP/7zSj/+80o//vNKP/7zSj/+cwp/8S3M/+Bm0H/eZhD/3mYQ/95mEP/eZhD/3mYQ/95mEP/eZhD/3mYQ/95mEP/eZhD/3mYQ/95mEP/eZhD/3mYQ/95mEP/eZhD/3mYQ/95mEP/eZhD/3mYQ/95mEP/eZhD/3mYQ/95mEP/eZhD/3mYQ/+FnUH/yrky//vNKP/7zSj/+80o//vNKP/7zSj/+80o//vNKP/7zSj/+80o//vNKP/7zSj/+80o//vNKP/7zSj/+80o//vNKP/7zSj/+80o//vNKP/7zSj/+80o//vNKP/7zSj/+80ot/vNKCQAAAAAAAAAAAAAAAAAAAAAAAAAAAAAAAAAAAAAAAAAAAAAAAAAAAAAAAAAAAAAAAAAAAAAAAAAAAAAAAAAAAAAAAAAAAAAAAAAAAAAAAAAAAAAAAAAAAAAAAAAAAAAAAAAAAAAAAAAAAAAAAAAAAAAAAAAAAAAAAAAAAAAAAAAAAAAAAAAAAAAAAAAAAAAAAAAAAAAAAAAAAAAAAAAAAAAAAAAAAAAAAAAAAAAAAAAAAAAAAAAAAAAAAAAAAAAAAAAAAAAAAAAAPvNKFT7zSjb+80o//vNKP/7zSj/+80o//vNKP/7zSj/+80o//vNKP/7zSj/+80o//vNKP/7zSj/+80o//vNKP/7zSj/+80o//vNKP/7zSj/+80o//vNKP/7zSj/+80o//HJKv+urjj/e5lD/3mYQ/95mEP/eZhD/3mYQ/95mEP/eZhD/3mYQ/95mEP/eZhD/3mYQ/95mEP/eZhD/3mYQ/95mEP/eZhD/3mYQ/95mEP/eZhD/3mYQ/95mEP/eZhD/3mYQ/99mkL/trE2//XLKf/7zSj/+80o//vNKP/7zSj/+80o//vNKP/7zSj/+80o//vNKP/7zSj/+80o//vNKP/7zSj/+80o//vNKP/7zSj/+80o//vNKP/7zSj/+80o//vNKP/7zSj/+80o1/vNKEgAAAAAAAAAAAAAAAAAAAAAAAAAAAAAAAAAAAAAAAAAAAAAAAAAAAAAAAAAAAAAAAAAAAAAAAAAAAAAAAAAAAAAAAAAAAAAAAAAAAAAAAAAAAAAAAAAAAAAAAAAAAAAAAAAAAAAAAAAAAAAAAAAAAAAAAAAAAAAAAAAAAAAAAAAAAAAAAAAAAAAAAAAAAAAAAAAAAAAAAAAAAAAAAAAAAAAAAAAAAAAAAAAAAAAAAAAAAAAAAAAAAAAAAAAAAAAAAAAAAAAAAAAAAAAAAAAAAAAAAAAAPvNKAj7zSh4+80o8/vNKP/7zSj/+80o//vNKP/7zSj/+80o//vNKP/7zSj/+80o//vNKP/7zSj/+80o//vNKP/7zSj/+80o//vNKP/7zSj/+80o//vNKP/7zSj/+80o//vNKP/lxC3/nKY8/3mYQ/95mEP/eZhD/3mYQ/95mEP/eZhD/3mYQ/95mEP/eZhD/3mYQ/95mEP/eZhD/3mYQ/95mEP/eZhD/3mYQ/95mEP/eZhD/3mYQ/95mEP/pKk6/+nGLP/7zSj/+80o//vNKP/7zSj/+80o//vNKP/7zSj/+80o//vNKP/7zSj/+80o//vNKP/7zSj/+80o//vNKP/7zSj/+80o//vNKP/7zSj/+80o//vNKP/7zSj/+80o7/vNKGz7zSgEAAAAAAAAAAAAAAAAAAAAAAAAAAAAAAAAAAAAAAAAAAAAAAAAAAAAAAAAAAAAAAAAAAAAAAAAAAAAAAAAAAAAAAAAAAAAAAAAAAAAAAAAAAAAAAAAAAAAAAAAAAAAAAAAAAAAAAAAAAAAAAAAAAAAAAAAAAAAAAAAAAAAAAAAAAAAAAAAAAAAAAAAAAAAAAAAAAAAAAAAAAAAAAAAAAAAAAAAAAAAAAAAAAAAAAAAAAAAAAAAAAAAAAAAAAAAAAAAAAAAAAAAAAAAAAAAAAAAAAAAAAAAAAAAAAAAAAAAAAD7zSgY+80ooPvNKP/7zSj/+80o//vNKP/7zSj/+80o//vNKP/7zSj/+80o//vNKP/7zSj/+80o//vNKP/7zSj/+80o//vNKP/7zSj/+80o//vNKP/7zSj/+80o//vNKP/7zSj/0Lwx/4ugP/95mEP/eZhD/3mYQ/95mEP/eZhD/3mYQ/95mEP/eZhD/3mYQ/95mEP/eZhD/3mYQ/95mEP/eZhD/3mYQ/95mEP/kaI+/9vAL//7zSj/+80o//vNKP/7zSj/+80o//vNKP/7zSj/+80o//vNKP/7zSj/+80o//vNKP/7zSj/+80o//vNKP/7zSj/+80o//vNKP/7zSj/+80o//vNKP/7zSj/+80o+/vNKJj7zSgQAAAAAAAAAAAAAAAAAAAAAAAAAAAAAAAAAAAAAAAAAAAAAAAAAAAAAAAAAAAAAAAAAAAAAAAAAAAAAAAAAAAAAAAAAAAAAAAAAAAAAAAAAAAAAAAAAAAAAAAAAAAAAAAAAAAAAAAAAAAAAAAAAAAAAAAAAAAAAAAAAAAAAAAAAAAAAAAAAAAAAAAAAAAAAAAAAAAAAAAAAAAAAAAAAAAAAAAAAAAAAAAAAAAAAAAAAAAAAAAAAAAAAAAAAAAAAAAAAAAAAAAAAAAAAAAAAAAAAAAAAAAAAAAAAAAAAAAAAAAAAAAAAAAAAAAAAAAAAAAA+80oNPvNKMf7zSj/+80o//vNKP/7zSj/+80o//vNKP/7zSj/+80o//vNKP/7zSj/+80o//vNKP/7zSj/+80o//vNKP/7zSj/+80o//vNKP/7zSj/+80o//vNKP/7zSj/98sp/760Nf+Bm0H/eZhD/3mYQ/95mEP/eZhD/3mYQ/95mEP/eZhD/3mYQ/95mEP/eZhD/3mYQ/95mEP/hZ1B/8a4M//5zCn/+80o//vNKP/7zSj/+80o//vNKP/7zSj/+80o//vNKP/7zSj/+80o//vNKP/7zSj/+80o//vNKP/7zSj/+80o//vNKP/7zSj/+80o//vNKP/7zSj/+80o//vNKLv7zSgsAAAAAAAAAAAAAAAAAAAAAAAAAAAAAAAAAAAAAAAAAAAAAAAAAAAAAAAAAAAAAAAAAAAAAAAAAAAAAAAAAAAAAAAAAAAAAAAAAAAAAAAAAAAAAAAAAAAAAAAAAAAAAAAAAAAAAAAAAAAAAAAAAAAAAAAAAAAAAAAAAAAAAAAAAAAAAAAAAAAAAAAAAAAAAAAAAAAAAAAAAAAAAAAAAAAAAAAAAAAAAAAAAAAAAAAAAAAAAAAAAAAAAAAAAAAAAAAAAAAAAAAAAAAAAAAAAAAAAAAAAAAAAAAAAAAAAAAAAAAAAAAAAAAAAAAAAAAAAAAAAAAAAAAAAAAAAAAAAAAAAPvNKFz7zSjj+80o//vNKP/7zSj/+80o//vNKP/7zSj/+80o//vNKP/7zSj/+80o//vNKP/7zSj/+80o//vNKP/7zSj/+80o//vNKP/7zSj/+80o//vNKP/7zSj/+80o/+/IK/+4sjb/h55A/3mYQ/95mEP/eZhD/3mYQ/95mEP/eZhD/3mYQ/95mEP/i6A//8C1NP/zyir/+80o//vNKP/7zSj/+80o//vNKP/7zSj/+80o//vNKP/7zSj/+80o//vNKP/7zSj/+80o//vNKP/7zSj/+80o//vNKP/7zSj/+80o//vNKP/7zSj/+80o//vNKNv7zShMAAAAAAAAAAAAAAAAAAAAAAAAAAAAAAAAAAAAAAAAAAAAAAAAAAAAAAAAAAAAAAAAAAAAAAAAAAAAAAAAAAAAAAAAAAAAAAAAAAAAAAAAAAAAAAAAAAAAAAAAAAAAAAAAAAAAAAAAAAAAAAAAAAAAAAAAAAAAAAAAAAAAAAAAAAAAAAAAAAAAAAAAAAAAAAAAAAAAAAAAAAAAAAAAAAAAAAAAAAAAAAAAAAAAAAAAAAAAAAAAAAAAAAAAAAAAAAAAAAAAAAAAAAAAAAAAAAAAAAAAAAAAAAAAAAAAAAAAAAAAAAAAAAAAAAAAAAAAAAAAAAAAAAAAAAAAAAAAAAAAAAAAAAAAAAAAAAAAAPvNKAj7zSiE+80o9/vNKP/7zSj/+80o//vNKP/7zSj/+80o//vNKP/7zSj/+80o//vNKP/7zSj/+80o//vNKP/7zSj/+80o//vNKP/7zSj/+80o//vNKP/7zSj/+80o//vNKP/7zSj/48Mt/8S3M/+0sDf/qqw5/6qsOf+2sTb/yLkz/+fFLP/7zSj/+80o//vNKP/7zSj/+80o//vNKP/7zSj/+80o//vNKP/7zSj/+80o//vNKP/7zSj/+80o//vNKP/7zSj/+80o//vNKP/7zSj/+80o//vNKP/7zSj/+80o//vNKO/7zSh4+80oBAAAAAAAAAAAAAAAAAAAAAAAAAAAAAAAAAAAAAAAAAAAAAAAAAAAAAAAAAAAAAAAAAAAAAAAAAAAAAAAAAAAAAAAAAAAAAAAAAAAAAAAAAAAAAAAAAAAAAAAAAAAAAAAAAAAAAAAAAAAAAAAAAAAAAAAAAAAAAAAAAAAAAAAAAAAAAAAAAAAAAAAAAAAAAAAAAAAAAAAAAAAAAAAAAAAAAAAAAAAAAAAAAAAAAAAAAAAAAAAAAAAAAAAAAAAAAAAAAAAAAAAAAAAAAAAAAAAAAAAAAAAAAAAAAAAAAAAAAAAAAAAAAAAAAAAAAAAAAAAAAAAAAAAAAAAAAAAAAAAAAAAAAAAAAAAAAAAAAAAAAAAAAAAAAAAAAD7zSgg+80op/vNKP/7zSj/+80o//vNKP/7zSj/+80o//vNKP/7zSj/+80o//vNKP/7zSj/+80o//vNKP/7zSj/+80o//vNKP/7zSj/+80o//vNKP/7zSj/+80o//vNKP/7zSj/+80o//vNKP/7zSj/+80o//vNKP/7zSj/+80o//vNKP/7zSj/+80o//vNKP/7zSj/+80o//vNKP/7zSj/+80o//vNKP/7zSj/+80o//vNKP/7zSj/+80o//vNKP/7zSj/+80o//vNKP/7zSj/+80o//vNKPv7zSic+80oGAAAAAAAAAAAAAAAAAAAAAAAAAAAAAAAAAAAAAAAAAAAAAAAAAAAAAAAAAAAAAAAAAAAAAAAAAAAAAAAAAAAAAAAAAAAAAAAAAAAAAAAAAAAAAAAAAAAAAAAAAAAAAAAAAAAAAAAAAAAAAAAAAAAAAAAAAAAAAAAAAAAAAAAAAAAAAAAAAAAAAAAAAAAAAAAAAAAAAAAAAAAAAAAAAAAAAAAAAAAAAAAAAAAAAAAAAAAAAAAAAAAAAAAAAAAAAAAAAAAAAAAAAAAAAAAAAAAAAAAAAAAAAAAAAAAAAAAAAAAAAAAAAAAAAAAAAAAAAAAAAAAAAAAAAAAAAAAAAAAAAAAAAAAAAAAAAAAAAAAAAAAAAAAAAAAAAAAAAAAAAAAAAAAAAAAAAAA+80oPPvNKM/7zSj/+80o//vNKP/7zSj/+80o//vNKP/7zSj/+80o//vNKP/7zSj/+80o//vNKP/7zSj/+80o//vNKP/7zSj/+80o//vNKP/7zSj/+80o//vNKP/7zSj/+80o//vNKP/7zSj/+80o//vNKP/7zSj/+80o//vNKP/7zSj/+80o//vNKP/7zSj/+80o//vNKP/7zSj/+80o//vNKP/7zSj/+80o//vNKP/7zSj/+80o//vNKP/7zSj/+80o//vNKP/7zSi/+80oMAAAAAAAAAAAAAAAAAAAAAAAAAAAAAAAAAAAAAAAAAAAAAAAAAAAAAAAAAAAAAAAAAAAAAAAAAAAAAAAAAAAAAAAAAAAAAAAAAAAAAAAAAAAAAAAAAAAAAAAAAAAAAAAAAAAAAAAAAAAAAAAAAAAAAAAAAAAAAAAAAAAAAAAAAAAAAAAAAAAAAAAAAAAAAAAAAAAAAAAAAAAAAAAAAAAAAAAAAAAAAAAAAAAAAAAAAAAAAAAAAAAAAAAAAAAAAAAAAAAAAAAAAAAAAAAAAAAAAAAAAAAAAAAAAAAAAAAAAAAAAAAAAAAAAAAAAAAAAAAAAAAAAAAAAAAAAAAAAAAAAAAAAAAAAAAAAAAAAAAAAAAAAAAAAAAAAAAAAAAAAAAAAAAAAAAAAAAAAAAAAAAAAAAAAAA+80oBPvNKGT7zSjn+80o//vNKP/7zSj/+80o//vNKP/7zSj/+80o//vNKP/7zSj/+80o//vNKP/7zSj/+80o//vNKP/7zSj/+80o//vNKP/7zSj/+80o//vNKP/7zSj/+80o//vNKP/7zSj/+80o//vNKP/7zSj/+80o//vNKP/7zSj/+80o//vNKP/7zSj/+80o//vNKP/7zSj/+80o//vNKP/7zSj/+80o//vNKP/7zSj/+80o//vNKP/7zSjf+80oWAAAAAAAAAAAAAAAAAAAAAAAAAAAAAAAAAAAAAAAAAAAAAAAAAAAAAAAAAAAAAAAAAAAAAAAAAAAAAAAAAAAAAAAAAAAAAAAAAAAAAAAAAAAAAAAAAAAAAAAAAAAAAAAAAAAAAAAAAAAAAAAAAAAAAAAAAAAAAAAAAAAAAAAAAAAAAAAAAAAAAAAAAAAAAAAAAAAAAAAAAAAAAAAAAAAAAAAAAAAAAAAAAAAAAAAAAAAAAAAAAAAAAAAAAAAAAAAAAAAAAAAAAAAAAAAAAAAAAAAAAAAAAAAAAAAAAAAAAAAAAAAAAAAAAAAAAAAAAAAAAAAAAAAAAAAAAAAAAAAAAAAAAAAAAAAAAAAAAAAAAAAAAAAAAAAAAAAAAAAAAAAAAAAAAAAAAAAAAAAAAAAAAAAAAAAAAAAAAAAAAAAAAAAAAAAAPvNKBD7zSiM+80o+/vNKP/7zSj/+80o//vNKP/7zSj/+80o//vNKP/7zSj/+80o//vNKP/7zSj/+80o//vNKP/7zSj/+80o//vNKP/7zSj/+80o//vNKP/7zSj/+80o//vNKP/7zSj/+80o//vNKP/7zSj/+80o//vNKP/7zSj/+80o//vNKP/7zSj/+80o//vNKP/7zSj/+80o//vNKP/7zSj/+80o//vNKP/7zSjz+80ofPvNKAgAAAAAAAAAAAAAAAAAAAAAAAAAAAAAAAAAAAAAAAAAAAAAAAAAAAAAAAAAAAAAAAAAAAAAAAAAAAAAAAAAAAAAAAAAAAAAAAAAAAAAAAAAAAAAAAAAAAAAAAAAAAAAAAAAAAAAAAAAAAAAAAAAAAAAAAAAAAAAAAAAAAAAAAAAAAAAAAAAAAAAAAAAAAAAAAAAAAAAAAAAAAAAAAAAAAAAAAAAAAAAAAAAAAAAAAAAAAAAAAAAAAAAAAAAAAAAAAAAAAAAAAAAAAAAAAAAAAAAAAAAAAAAAAAAAAAAAAAAAAAAAAAAAAAAAAAAAAAAAAAAAAAAAAAAAAAAAAAAAAAAAAAAAAAAAAAAAAAAAAAAAAAAAAAAAAAAAAAAAAAAAAAAAAAAAAAAAAAAAAAAAAAAAAAAAAAAAAAAAAAAAAAAAAAAAAAAAAAAAAAAAAAAAAD7zSgk+80os/vNKP/7zSj/+80o//vNKP/7zSj/+80o//vNKP/7zSj/+80o//vNKP/7zSj/+80o//vNKP/7zSj/+80o//vNKP/7zSj/+80o//vNKP/7zSj/+80o//vNKP/7zSj/+80o//vNKP/7zSj/+80o//vNKP/7zSj/+80o//vNKP/7zSj/+80o//vNKP/7zSj/+80o//vNKP/7zSj/+80ooPvNKBgAAAAAAAAAAAAAAAAAAAAAAAAAAAAAAAAAAAAAAAAAAAAAAAAAAAAAAAAAAAAAAAAAAAAAAAAAAAAAAAAAAAAAAAAAAAAAAAAAAAAAAAAAAAAAAAAAAAAAAAAAAAAAAAAAAAAAAAAAAAAAAAAAAAAAAAAAAAAAAAAAAAAAAAAAAAAAAAAAAAAAAAAAAAAAAAAAAAAAAAAAAAAAAAAAAAAAAAAAAAAAAAAAAAAAAAAAAAAAAAAAAAAAAAAAAAAAAAAAAAAAAAAAAAAAAAAAAAAAAAAAAAAAAAAAAAAAAAAAAAAAAAAAAAAAAAAAAAAAAAAAAAAAAAAAAAAAAAAAAAAAAAAAAAAAAAAAAAAAAAAAAAAAAAAAAAAAAAAAAAAAAAAAAAAAAAAAAAAAAAAAAAAAAAAAAAAAAAAAAAAAAAAAAAAAAAAAAAAAAAAAAAAAAAAAAAAAAAAAAAAAAAAAAAAA+80oSPvNKNf7zSj/+80o//vNKP/7zSj/+80o//vNKP/7zSj/+80o//vNKP/7zSj/+80o//vNKP/7zSj/+80o//vNKP/7zSj/+80o//vNKP/7zSj/+80o//vNKP/7zSj/+80o//vNKP/7zSj/+80o//vNKP/7zSj/+80o//vNKP/7zSj/+80o//vNKP/7zSj/+80ox/vNKDgAAAAAAAAAAAAAAAAAAAAAAAAAAAAAAAAAAAAAAAAAAAAAAAAAAAAAAAAAAAAAAAAAAAAAAAAAAAAAAAAAAAAAAAAAAAAAAAAAAAAAAAAAAAAAAAAAAAAAAAAAAAAAAAAAAAAAAAAAAAAAAAAAAAAAAAAAAAAAAAAAAAAAAAAAAAAAAAAAAAAAAAAAAAAAAAAAAAAAAAAAAAAAAAAAAAAAAAAAAAAAAAAAAAAAAAAAAAAAAAAAAAAAAAAAAAAAAAAAAAAAAAAAAAAAAAAAAAAAAAAAAAAAAAAAAAAAAAAAAAAAAAAAAAAAAAAAAAAAAAAAAAAAAAAAAAAAAAAAAAAAAAAAAAAAAAAAAAAAAAAAAAAAAAAAAAAAAAAAAAAAAAAAAAAAAAAAAAAAAAAAAAAAAAAAAAAAAAAAAAAAAAAAAAAAAAAAAAAAAAAAAAAAAAAAAAAAAAAAAAAAAAAAAAAAAAAAAAAAAAAAAAAA+80oBPvNKGz7zSjv+80o//vNKP/7zSj/+80o//vNKP/7zSj/+80o//vNKP/7zSj/+80o//vNKP/7zSj/+80o//vNKP/7zSj/+80o//vNKP/7zSj/+80o//vNKP/7zSj/+80o//vNKP/7zSj/+80o//vNKP/7zSj/+80o//vNKP/7zSj/+80o4/vNKFwAAAAAAAAAAAAAAAAAAAAAAAAAAAAAAAAAAAAAAAAAAAAAAAAAAAAAAAAAAAAAAAAAAAAAAAAAAAAAAAAAAAAAAAAAAAAAAAAAAAAAAAAAAAAAAAAAAAAAAAAAAAAAAAAAAAAAAAAAAAAAAAAAAAAAAAAAAAAAAAAAAAAAAAAAAAAAAAAAAAAAAAAAAAAAAAAAAAAAAAAAAAAAAAAAAAAAAAAAAAAAAAAAAAAAAAAAAAAAAAAAAAAAAAAAAAAAAAAAAAAAAAAAAAAAAAAAAAAAAAAAAAAAAAAAAAAAAAAAAAAAAAAAAAAAAAAAAAAAAAAAAAAAAAAAAAAAAAAAAAAAAAAAAAAAAAAAAAAAAAAAAAAAAAAAAAAAAAAAAAAAAAAAAAAAAAAAAAAAAAAAAAAAAAAAAAAAAAAAAAAAAAAAAAAAAAAAAAAAAAAAAAAAAAAAAAAAAAAAAAAAAAAAAAAAAAAAAAAAAAAAAAAAAAAAAAAAAAAAAAAAAAAAAPvNKBT7zSiY+80o+/vNKP/7zSj/+80o//vNKP/7zSj/+80o//vNKP/7zSj/+80o//vNKP/7zSj/+80o//vNKP/7zSj/+80o//vNKP/7zSj/+80o//vNKP/7zSj/+80o//vNKP/7zSj/+80o//vNKP/7zSj/+80o9/vNKID7zSgIAAAAAAAAAAAAAAAAAAAAAAAAAAAAAAAAAAAAAAAAAAAAAAAAAAAAAAAAAAAAAAAAAAAAAAAAAAAAAAAAAAAAAAAAAAAAAAAAAAAAAAAAAAAAAAAAAAAAAAAAAAAAAAAAAAAAAAAAAAAAAAAAAAAAAAAAAAAAAAAAAAAAAAAAAAAAAAAAAAAAAAAAAAAAAAAAAAAAAAAAAAAAAAAAAAAAAAAAAAAAAAAAAAAAAAAAAAAAAAAAAAAAAAAAAAAAAAAAAAAAAAAAAAAAAAAAAAAAAAAAAAAAAAAAAAAAAAAAAAAAAAAAAAAAAAAAAAAAAAAAAAAAAAAAAAAAAAAAAAAAAAAAAAAAAAAAAAAAAAAAAAAAAAAAAAAAAAAAAAAAAAAAAAAAAAAAAAAAAAAAAAAAAAAAAAAAAAAAAAAAAAAAAAAAAAAAAAAAAAAAAAAAAAAAAAAAAAAAAAAAAAAAAAAAAAAAAAAAAAAAAAAAAAAAAAAAAAAAAAAAAAAAAAAAAAAAAAAAAAAAAAD7zSgs+80ou/vNKP/7zSj/+80o//vNKP/7zSj/+80o//vNKP/7zSj/+80o//vNKP/7zSj/+80o//vNKP/7zSj/+80o//vNKP/7zSj/+80o//vNKP/7zSj/+80o//vNKP/7zSj/+80o//vNKKf7zSggAAAAAAAAAAAAAAAAAAAAAAAAAAAAAAAAAAAAAAAAAAAAAAAAAAAAAAAAAAAAAAAAAAAAAAAAAAAAAAAAAAAAAAAAAAAAAAAAAAAAAAAAAAAAAAAAAAAAAAAAAAAAAAAAAAAAAAAAAAAAAAAAAAAAAAAAAAAAAAAAAAAAAAAAAAAAAAAAAAAAAAAAAAAAAAAAAAAAAAAAAAAAAAAAAAAAAAAAAAAAAAAAAAAAAAAAAAAAAAAAAAAAAAAAAAAAAAAAAAAAAAAAAAAAAAAAAAAAAAAAAAAAAAAAAAAAAAAAAAAAAAAAAAAAAAAAAAAAAAAAAAAAAAAAAAAAAAAAAAAAAAAAAAAAAAAAAAAAAAAAAAAAAAAAAAAAAAAAAAAAAAAAAAAAAAAAAAAAAAAAAAAAAAAAAAAAAAAAAAAAAAAAAAAAAAAAAAAAAAAAAAAAAAAAAAAAAAAAAAAAAAAAAAAAAAAAAAAAAAAAAAAAAAAAAAAAAAAAAAAAAAAAAAAAAAAAAAAAAAAAAAAAAAAAAAAAAAAAAAAAAAAA+80oVPvNKNv7zSj/+80o//vNKP/7zSj/+80o//vNKP/7zSj/+80o//vNKP/7zSj/+80o//vNKP/7zSj/+80o//vNKP/7zSj/+80o//vNKP/7zSj/+80o//vNKMv7zSg8AAAAAAAAAAAAAAAAAAAAAAAAAAAAAAAAAAAAAAAAAAAAAAAAAAAAAAAAAAAAAAAAAAAAAAAAAAAAAAAAAAAAAAAAAAAAAAAAAAAAAAAAAAAAAAAAAAAAAAAAAAAAAAAAAAAAAAAAAAAAAAAAAAAAAAAAAAAAAAAAAAAAAAAAAAAAAAAAAAAAAAAAAAAAAAAAAAAAAAAAAAAAAAAAAAAAAAAAAAAAAAAAAAAAAAAAAAAAAAAAAAAAAAAAAAAAAAAAAAAAAAAAAAAAAAAAAAAAAAAAAAAAAAAAAAAAAAAAAAAAAAAAAAAAAAAAAAAAAAAAAAAAAAAAAAAAAAAAAAAAAAAAAAAAAAAAAAAAAAAAAAAAAAAAAAAAAAAAAAAAAAAAAAAAAAAAAAAAAAAAAAAAAAAAAAAAAAAAAAAAAAAAAAAAAAAAAAAAAAAAAAAAAAAAAAAAAAAAAAAAAAAAAAAAAAAAAAAAAAAAAAAAAAAAAAAAAAAAAAAAAAAAAAAAAAAAAAAAAAAAAAAAAAAAAAAAAAAAAAAAAAAAAAAAAAAAAAAAAAAA+80oCPvNKHj7zSjv+80o//vNKP/7zSj/+80o//vNKP/7zSj/+80o//vNKP/7zSj/+80o//vNKP/7zSj/+80o//vNKP/7zSj/+80o//vNKOf7zShgAAAAAAAAAAAAAAAAAAAAAAAAAAAAAAAAAAAAAAAAAAAAAAAAAAAAAAAAAAAAAAAAAAAAAAAAAAAAAAAAAAAAAAAAAAAAAAAAAAAAAAAAAAAAAAAAAAAAAAAAAAAAAAAAAAAAAAAAAAAAAAAAAAAAAAAAAAAAAAAAAAAAAAAAAAAAAAAAAAAAAAAAAAAAAAAAAAAAAAAAAAAAAAAAAAAAAAAAAAAAAAAAAAAAAAAAAAAAAAAAAAAAAAAAAAAAAAAAAAAAAAAAAAAAAAAAAAAAAAAAAAAAAAAAAAAAAAAAAAAAAAAAAAAAAAAAAAAAAAAAAAAAAAAAAAAAAAAAAAAAAAAAAAAAAAAAAAAAAAAAAAAAAAAAAAAAAAAAAAAAAAAAAAAAAAAAAAAAAAAAAAAAAAAAAAAAAAAAAAAAAAAAAAAAAAAAAAAAAAAAAAAAAAAAAAAAAAAAAAAAAAAAAAAAAAAAAAAAAAAAAAAAAAAAAAAAAAAAAAAAAAAAAAAAAAAAAAAAAAAAAAAAAAAAAAAAAAAAAAAAAAAAAAAAAAAAAAAAAAAAAAAAAAAAAAAAAAAAAAAAAPvNKBj7zSiQ+80o7/vNKP/7zSj/+80o//vNKP/7zSj/+80o//vNKP/7zSj/+80o//vNKP/7zSj/+80o//vNKOf7zSh8+80oDAAAAAAAAAAAAAAAAAAAAAAAAAAAAAAAAAAAAAAAAAAAAAAAAAAAAAAAAAAAAAAAAAAAAAAAAAAAAAAAAAAAAAAAAAAAAAAAAAAAAAAAAAAAAAAAAAAAAAAAAAAAAAAAAAAAAAAAAAAAAAAAAAAAAAAAAAAAAAAAAAAAAAAAAAAAAAAAAAAAAAAAAAAAAAAAAAAAAAAAAAAAAAAAAAAAAAAAAAAAAAAAAAAAAAAAAAAAAAAAAAAAAAAAAAAAAAAAAAAAAAAAAAAAAAAAAAAAAAAAAAAAAAAAAAAAAAAAAAAAAAAAAAAAAAAAAAAAAAAAAAAAAAAAAAAAAAAAAAAAAAAAAAAAAAAAAAAAAAAAAAAAAAAAAAAAAAAAAAAAAAAAAAAAAAAAAAAAAAAAAAAAAAAAAAAAAAAAAAAAAAAAAAAAAAAAAAAAAAAAAAAAAAAAAAAAAAAAAAAAAAAAAAAAAAAAAAAAAAAAAAAAAAAAAAAAAAAAAAAAAAAAAAAAAAAAAAAAAAAAAAAAAAAAAAAAAAAAAAAAAAAAAAAAAAAAAAAAAAAAAAAAAAAAAAAAAAAAAAAAAAAAAAAAAAAAAAAAAAD7zSgI+80oXPvNKKD7zSjb+80o//vNKP/7zSj/+80o//vNKP/7zSj/+80o0/vNKJj7zShI+80oBAAAAAAAAAAAAAAAAAAAAAAAAAAAAAAAAAAAAAAAAAAAAAAAAAAAAAAAAAAAAAAAAAAAAAAAAAAAAAAAAAAAAAAAAAAAAAAAAAAAAAAAAAAAAAAAAAAAAAAAAAAAAAAAAAAAAAAAAAAAAAAAAAAAAAAAAAAAAAAAAAAAAAAAAAAAAAAAAAAAAAAAAAAAAAAAAAAAAAAAAAAAAAAAAAAAAAAAAAAAAAAAAAAAAAAAAAAAAAAAAAAAAAAAAAAAAAAAAAAAAAAAAAAAAAAAAAAAAAAAAAAAAAAAAAAAAAAAAAAAAAAAAAAAAAAAAAAAAAAAAAAAAAAAAAAAAAAAAAAAAAAAAAAAAAAAAAAAAAAAAAAAAAAAAAAAAAAAAAAAAAAAAAAAAAAAAAAAAAAAAAAAAAAAAAAAAAAAAAAAAAAAAAAAAAAAAAAAAAAAAAAAAAAAAAAAAAAAAAAAAAAAAAAAAAAAAAAAAAAAAAAAAAAAAAAAAAAAAAAAAAAAAAAAAAAAAAAAAAAAAAAAAAAAAAAAAAAAAAAAAAAAAAAAAAAAAAAAAAAAAAAAAAAAAAAAAAAAAAAAAAAAAAAAAAAAAAAAAAAAAAAAAAAAAAAAAAAAAAAAAAAAAAAAAAD7zSgI+80oIPvNKDT7zSgs+80oIPvNKAQAAAAAAAAAAAAAAAAAAAAAAAAAAAAAAAAAAAAAAAAAAAAAAAAAAAAAAAAAAAAAAAAAAAAAAAAAAAAAAAAAAAAAAAAAAAAAAAAAAAAAAAAAAAAAAAAAAAAAAAAAAAAAAAAAAAAAAAAAAAAAAAAAAAAAAAAAAAAAAAAAAAAAAAAAAAAAAAAAAAAAAAAAAAAAAAAAAAAAAAAAAAAAAAAAAAAAAAAAAAAAAAAAAAAAAAAAAAAAAAAAAAAAAAAAAAAAAAAAAAAAAAAAAAAAAAAAAAAAAAAAAAAAAAAAAAAAAAAAAAAAAAAAAAAAAAAAAAAAAAAAAAAAAAAAAAAAAAAAAAAAAAAAAAAAAAAAAAAAAAAAAAAAAAAAAAAAAAAAAAAAAAAAAAAAAAAAAAAAAAAAAAAAAAAAAAAAAAAAAAAAAAAAAAAAAAAAAAAAAAAAAAAAAAAAAAAAAAAAAAAAAAAAAAAAAAAAAAAAAAAAAAAAAAAAAAAAAAAAAAAAAAAAAAAAAAAAAAAAAAAAAAAAAAAAAAAAAAAAAAAAAAAAAAAAAAAAAAAAAAAAAAAAAAAAAAAAAAAAAAAAAAAAAAAAAAAAAAAAAAAAAAAAAAAAAAAAAAAAAAAAAAAAAAAAAAAAAAAAAAAAAAAAAAAAAAAAAAAAAAAAAAAAAAAAAAAAAAAAAAAAAAAAAAAAAAAAAAAAAAAAAAAAAAAAAAAAAAAAAAAAAAAAAAAAAAAAAAAAAAAAAAAAAAAAAAAAAAAAAAAAAAAAAAAAAAAAAAAAAAAAAAAAAAAAAAAAAAAAAAAAAAAAAAAAAAAAAAAAAAAAAAAAAAAAAAAAAAAAAAAAAAAAAAAAAAAAAAAAAAAAAAAAAAAAAAAAAAAAAAAAAAAAAAAAAAAAAAAAAAAAAAAAAAAAAAAAAAAAAAAAAAAAAAAAAAAAAAAAAAAAAAAAAAAAAAAAAAAAAAAAAAAAAAAAAAAAAAAAAAAAAAAAAAAAAAAAAAAAAAAAAAAAAAAAAAAAAAAAAAAAAAAAAAAAAAAAAAAAAAAAAAAAAAAAAAAAAAAAAAAAAAAAAAAAAAAAAAAAAAAAAAAAAAAAAAAAAAAAAAAAAAAAAAAAAAAAAAAAAAAAAAAAAAAAAAAAAAAAAAAAAAAAAAAAAAAAAAAAAAAAAAAAAAAAAAAAAAAAAAAAAAAAAAAAAAAAAAAAAAAAAAAAAAAAAAAAAAAAAAAAAAAAAAAAAAAAAAAAAAAAAAAAAAAAAAAAAAAAAAAAAAAAAAAAAAAAAAAAAAAAAAAAAAAAAAAAAAAAAAAAAAAAAAAAAAAAAAAAAAAAAAAAAAAAAAAAAAAAAAAAAAAAAAAAAAAAAAAAAAAAAAAAAAAAAAAAAAAAAAAAAAAAAAAAAAAAAAAAAAAAAAAAAAAAAAAAAAAAAAAAAAAAAAAAAAAAAAAAAAAAAAAAAAAAAAAAAAAAAAAAAAAAAAAAAAAAAAAAAAAAAAAAAAAAAAAAAAAAAAAAAAAAAAAAAAAAAAAAAAAAAAAAAAAAAAAAAAAAAAAAAAAAAAAAAAAAAAAAAAAAAAAAAAAAAAAAAAAAAAAAAAAAAAAAAAAAAAAAAAAAAAAAAAAAAAAAAAAAAAAAAAAAAAAAAAAAAAAAAAAAAAAAAAAAAAAAAAAAAAAAAAAAAAAAAAAAAAAAAAAAAAAAAAAAAP////////////////////////////////////////////////////PP//////////////////8Dwf/////////////////8A8B/////////////////+APAH////////////////+ADwAf///////////////+AA8AB////////////////AAPAAP///////////////AADwAA///////////////AAA8AAD//////////////AAAPAAAP/////////////gAADwAAB/////////////gAAA8AAAH////////////gAAAPAAAAf///////////gAAADwAAAD///////////wAAAA8AAAAP//////////wAAAAPAAAAA//////////wAAAADwAAAAD/////////wAAAAA8AAAAAf////////4AAAAAPAAAAAB////////4AAAAADwAAAAAH///////4AAAAAA8AAAAAAf//////8AAAAAAPAAAAAAD//////8AAAAAADwAAAAAAP/////8AAAAAAA8AAAAAAA/////8AAAAAAAPAAAAAAAD////+AAAAAAADwAAAAAAAf////AAAAAAAA8AAAAAAAD////gAAAAAAAPAAAAAAAAf///wAAAAAAADwAAAAAAAD///4AAAAAAAA8AAAAAAAAf//8AAAAAAAAPAAAAAAAAD///AAAAAAAADwAAAAAAAA///gAAAAAAAA8AAAAAAAAH//4AAAAAAAAPAAAAAAAAB//+AAAAAAAADwAAAAAAAAf//AAAAAAAAA8AAAAAAAAD//wAAAAAAAAPAAAAAAAAA//8AAAAAAAADwAAAAAAAAP//AAAAAAAAA8AAAAAAAAD//wAAAAAAAAPAAAAAAAAA//8AAAAAAAADwAAAAAAAAP//AAAAAAAAA8AAAAAAAAD//wAAAAAAAAPAAAAAAAAA//8AAAAAAAADwAAAAAAAAP//AAAAAAAAA8AAAAAAAAD//wAAAAAAAAPAAAAAAAAA//8AAAAAAAADwAAAAAAAAP//AAAAAAAAA8AAAAAAAAD//wAAAAAAAAPAAAAAAAAA//8AAAAAAAADwAAAAAAAAP//AAAAAAAAA8AAAAAAAAD//wAAAAAAAAPAAAAAAAAA//8AAAAAAAADwAAAAAAAAP//AAAAAAAAB8AAAAAAAAD//wAAAAAAAAfgAAAAAAAA//8AAAAAAAAH4AAAAAAAAP//AAAAAAAAB+AAAAAAAAD//wAAAAAAAA/wAAAAAAAA//8AAAAAAAAP8AAAAAAAAP//AAAAAAAAH/gAAAAAAAD//wAAAAAAAD/8AAAAAAAA//8AAAAAAAB+fAAAAAAAAP//AAAAAAAA/D4AAAAAAAD//wAAAAAAAfgfgAAAAAAA//8AAAAAAAPwD8AAAAAAAP//AAAAAAAP4AfwAAAAAAD//wAAAAAAH8AD+AAAAAAA//8AAAAAAH+AAf4AAAAAAP//AAAAAAH+AAB/gAAAAAD//wAAAAAH+AAAH8AAAAAA//8AAAAAD/AAAA/wAAAAAP//AAAAAD/AAAAD/AAAAAD//wAAAAD/AAAAAP8AAAAA//8AAAAD/AAAAAB/gAAAAP//AAAAB/gAAAAAH+AAAAD//wAAAB/gAAAAAAf4AAAA//8AAAB/gAAAAAAB/gAAAP//AAAB/gAAAAAAAP8AAAD//wAAA/wAAAAAAAA/wAAA//8AAA/wAAAAAAAAD/AAAP//AAA/wAAAAAAAAAP8AAD//wAAf4AAAAAAAAAB/gAA//8AAf4AAAAAAAAAAH+AAP//AAf4AAAAAAAAAAAf4AD//wAf4AAAAAAAAAAAB/AA//8AP8AAAAAAAAAAAAP8AP//AP8AAAAAAAAAAAAA/wD//wP8AAAAAAAAAAAAAD/A//+P8AAAAAAAAAAAAAAf4f//n+AAAAAAAAAAAAAAB/n///+AAAAAAAAAAAAAAAH////+AAAAAAAAAAAAAAAAf///+AAAAAAAAAAAAAAAAD////AAAAAAAAAAAAAAAAAP///gAAAAAAAAAAAAAAAAD///8AAAAAAAAAAAAAAAAA////gAAAAAAAAAAAAAAAAf///8AAAAAAAAAAAAAAAAP////gAAAAAAAAAAAAAAAH////+AAAAAAAAAAAAAAAH/////4AAAAAAAAAAAAAAH//////AAAAAAAAAAAAAAD//////8AAAAAAAAAAAAAD///////wAAAAAAAAAAAAD////////AAAAAAAAAAAAD////////4AAAAAAAAAAAB/////////gAAAAAAAAAAB/////////+AAAAAAAAAAB//////////4AAAAAAAAAB///////////AAAAAAAAAA///////////8AAAAAAAAA////////////wAAAAAAAA////////////+AAAAAAAA/////////////4AAAAAAAf/////////////gAAAAAAf/////////////+AAAAAAf//////////////wAAAAAf///////////////AAAAAP///////////////8AAAAP////////////////wAAAP////////////////+AAAP/////////////////4AAH//////////////////gAH///////////////////gf////////////////////////////////////////////////////KAAAAEAAAACAAAAAAQAgAAAAAAAAQAAAAAAAAAAAAAAAAAAAAAAAAAAAAAAAAAAAAAAAAAAAAAAAAAAAAAAAAAAAAAAAAAAAAAAAAAAAAAAAAAAAAAAAAAAAAAAAAAAAAAAAAAAAAAAAAAAAAAAAAAAAAAAAAAAAAAAAAAAAAAAAAAAAAAAAAAAAAAAAAAAAAAAAAAAAAAAAAAAAAAAAAAAAAAAAAAAAAAAAAAAAAAAAAAAAAAAAAAAAAAAAAAAAAAAAAAAAAAAAAAAAAAAAAAAAAAAAAAAAAAAAAAAAAAAAAAAAAAAAAAAAAAAAAAAAAAAAAAAAAAAAAAAAAAAAAAAAAAAAAAAAAAAAAAAAAAAAAAAAAAAAAAAAAAAAAAAAAAAAAAAAAAAAAAAAAAAAAAAAAAAAAAAAAAAAAAAAAAAAAAAAAAAAAAAAAAAAAAAAAAAAAAAAAAAAAAAAAAAAAAAAAAAAAAAAAAAAAAAAAAAAAAAAAAAAAAAAAAAAAAAAAAAAAAAAAAAAAAAAAAAAAAAAAAAAAAAAV9f9FVfX/WZX1/1fAAAAAAAAAABh6/ZxYev2YWHr9hAAAAAAAAAAAAAAAAAAAAAAAAAAAAAAAAAAAAAAAAAAAAAAAAAAAAAAAAAAAAAAAAAAAAAAAAAAAAAAAAAAAAAAAAAAAAAAAAAAAAAAAAAAAAAAAAAAAAAAAAAAAAAAAAAAAAAAAAAAAAAAAAAAAAAAAAAAAAAAAAAAAAAAAAAAAAAAAAAAAAAAAAAAAAAAAAAAAAAAAAAAAAAAAAAAAAAAAAAAAAAAAAAAAAAAAAAAAAAAAAAAAAAAAAAAAAAAAAAAAAAAAAAAAAAAAAAAAAAAAAAAAAAAAABX1/0PV9f9jVfX/fZX1/3/V9f9oAAAAAAAAAAAYev2v2Hr9v9h6/bzYev2gmHr9gsAAAAAAAAAAAAAAAAAAAAAAAAAAAAAAAAAAAAAAAAAAAAAAAAAAAAAAAAAAAAAAAAAAAAAAAAAAAAAAAAAAAAAAAAAAAAAAAAAAAAAAAAAAAAAAAAAAAAAAAAAAAAAAAAAAAAAAAAAAAAAAAAAAAAAAAAAAAAAAAAAAAAAAAAAAAAAAAAAAAAAAAAAAAAAAAAAAAAAAAAAAAAAAAAAAAAAAAAAAAAAAAAAAAAAAAAAAAAAAAAAAAAAAAAAAAAAAAAAAAAAAAAAAFfX/QJX1/1nV9f96VfX/f9X1/3/V9f9/1fX/aAAAAAAAAAAAGHr9r9h6/b/Yev2/2Hr9v9h6/bjYev2W2Hr9gEAAAAAAAAAAAAAAAAAAAAAAAAAAAAAAAAAAAAAAAAAAAAAAAAAAAAAAAAAAAAAAAAAAAAAAAAAAAAAAAAAAAAAAAAAAAAAAAAAAAAAAAAAAAAAAAAAAAAAAAAAAAAAAAAAAAAAAAAAAAAAAAAAAAAAAAAAAAAAAAAAAAAAAAAAAAAAAAAAAAAAAAAAAAAAAAAAAAAAAAAAAAAAAAAAAAAAAAAAAAAAAAAAAAAAAAAAAAAAAAAAAAAAAAAAAFfX/T9X1/3PV9f9/1fX/f9X1/3/V9f9/1fX/f9X1/2gAAAAAAAAAABh6/a/Yev2/2Hr9v9h6/b/Yev2/2Hr9v9h6/bHYev2NgAAAAAAAAAAAAAAAAAAAAAAAAAAAAAAAAAAAAAAAAAAAAAAAAAAAAAAAAAAAAAAAAAAAAAAAAAAAAAAAAAAAAAAAAAAAAAAAAAAAAAAAAAAAAAAAAAAAAAAAAAAAAAAAAAAAAAAAAAAAAAAAAAAAAAAAAAAAAAAAAAAAAAAAAAAAAAAAAAAAAAAAAAAAAAAAAAAAAAAAAAAAAAAAAAAAAAAAAAAAAAAAAAAAAAAAAAAV9f9IFfX/apX1/3/V9f9/1fX/f9X1/3/V9f9/1fX/f9X1/3/V9f9oAAAAAAAAAAAYev2v2Hr9v9h6/b/Yev2/2Hr9v9h6/b/Yev2/2Hr9v5h6/ahYev2GwAAAAAAAAAAAAAAAAAAAAAAAAAAAAAAAAAAAAAAAAAAAAAAAAAAAAAAAAAAAAAAAAAAAAAAAAAAAAAAAAAAAAAAAAAAAAAAAAAAAAAAAAAAAAAAAAAAAAAAAAAAAAAAAAAAAAAAAAAAAAAAAAAAAAAAAAAAAAAAAAAAAAAAAAAAAAAAAAAAAAAAAAAAAAAAAAAAAAAAAAAAAAAAAAAAAABX1/0LV9f9hFfX/fZX1/3/V9f9/1fX/f9X1/3/V9f9/1fX/f9X1/3/V9f9/1fX/aAAAAAAAAAAAGHr9r9h6/b/Yev2/2Hr9v9h6/b/Yev2/2Hr9v9h6/b/Yev2/2Hr9vNh6/Z7Yev2CQAAAAAAAAAAAAAAAAAAAAAAAAAAAAAAAAAAAAAAAAAAAAAAAAAAAAAAAAAAAAAAAAAAAAAAAAAAAAAAAAAAAAAAAAAAAAAAAAAAAAAAAAAAAAAAAAAAAAAAAAAAAAAAAAAAAAAAAAAAAAAAAAAAAAAAAAAAAAAAAAAAAAAAAAAAAAAAAAAAAAAAAAAAAAAAAFfX/QFX1/1cV9f95FfX/f9X1/3/V9f9/1fX/f9X1/3/V9f9/1fX/f9X1/3/V9f9/1fX/f9X1/2gAAAAAAAAAABh6/a/Yev2/2Hr9v9h6/b/Yev2/2Hr9v9h6/b/Yev2/2Hr9v9h6/b/Yev2/2Hr9t9h6/ZVAAAAAAAAAAAAAAAAAAAAAAAAAAAAAAAAAAAAAAAAAAAAAAAAAAAAAAAAAAAAAAAAAAAAAAAAAAAAAAAAAAAAAAAAAAAAAAAAAAAAAAAAAAAAAAAAAAAAAAAAAAAAAAAAAAAAAAAAAAAAAAAAAAAAAAAAAAAAAAAAAAAAAAAAAAAAAAAAAAAAAFfX/TZX1/3HV9f9/1fX/f9X1/3/V9f9/1fX/f9X1/3/V9f9/1fX/f9X1/3/V9f9/0nL+v8jqvP/DpfvoAAAAAAAAAAAF8v9vzHW+v9Z6Pf/Yev2/2Hr9v9h6/b/Yev2/2Hr9v9h6/b/Yev2/2Hr9v9h6/b/Yev2/2Hr9sFh6/YxAAAAAAAAAAAAAAAAAAAAAAAAAAAAAAAAAAAAAAAAAAAAAAAAAAAAAAAAAAAAAAAAAAAAAAAAAAAAAAAAAAAAAAAAAAAAAAAAAAAAAAAAAAAAAAAAAAAAAAAAAAAAAAAAAAAAAAAAAAAAAAAAAAAAAAAAAAAAAAAAV9f9GlfX/aBX1/3+V9f9/1fX/f9X1/3/V9f9/1fX/f9X1/3/V9f9/1fX/f9X1/3/UdL8/yWr8/8BjOz/AIvs/wCL7KAAAAAAAAAAAADB/78Awf//BsT+/zbY+v9f6vb/Yev2/2Hr9v9h6/b/Yev2/2Hr9v9h6/b/Yev2/2Hr9v9h6/b/Yev2/WHr9pph6/YXAAAAAAAAAAAAAAAAAAAAAAAAAAAAAAAAAAAAAAAAAAAAAAAAAAAAAAAAAAAAAAAAAAAAAAAAAAAAAAAAAAAAAAAAAAAAAAAAAAAAAAAAAAAAAAAAAAAAAAAAAAAAAAAAAAAAAAAAAABX1/0IV9f9eVfX/fNX1/3/V9f9/1fX/f9X1/3/V9f9/1fX/f9X1/3/V9f9/1fX/f9W1v3/M7f2/waQ7f8Ai+z/AIvs/wCL7P8Ai+ygAAAAAAAAAAAAwf+/AMH//wDB//8Awf//D8f+/0Xf+f9h6/b/Yev2/2Hr9v9h6/b/Yev2/2Hr9v9h6/b/Yev2/2Hr9v9h6/b/Yev28WHr9nVh6/YGAAAAAAAAAAAAAAAAAAAAAAAAAAAAAAAAAAAAAAAAAAAAAAAAAAAAAAAAAAAAAAAAAAAAAAAAAAAAAAAAAAAAAAAAAAAAAAAAAAAAAAAAAAAAAAAAAAAAAAAAAABX1/1SV9f93lfX/f9X1/3/V9f9/1fX/f9X1/3/V9f9/1fX/f9X1/3/V9f9/1fX/f9Aw/j/D5jv/wCL7P8Ai+z/AIvs/wCL7P8Ai+z/AIvsoAAAAAAAAAAAAMH/vwDB//8Awf//AMH//wDB//8Awf//G839/1Lk9/9h6/b/Yev2/2Hr9v9h6/b/Yev2/2Hr9v9h6/b/Yev2/2Hr9v9h6/b/Yev222Hr9k8AAAAAAAAAAAAAAAAAAAAAAAAAAAAAAAAAAAAAAAAAAAAAAAAAAAAAAAAAAAAAAAAAAAAAAAAAAAAAAAAAAAAAAAAAAAAAAAAAAAAAAAAAAFfX/S5X1/2+V9f9/1fX/f9X1/3/V9f9/1fX/f9X1/3/V9f9/1fX/f9X1/3/V9f9/0vM+/8bo/H/AIvs/wCL7P8Ai+z/AIvs/wCL7P8Ai+z/AIvs/wCL7KAAAAAAAAAAAADB/78Awf//AMH//wDB//8Awf//AMH//wDB//8Cwv//KtP7/1vo9/9h6/b/Yev2/2Hr9v9h6/b/Yev2/2Hr9v9h6/b/Yev2/2Hr9v9h6/b/Yev2umHr9i0AAAAAAAAAAAAAAAAAAAAAAAAAAAAAAAAAAAAAAAAAAAAAAAAAAAAAAAAAAAAAAAAAAAAAAAAAAAAAAAAAAAAAV9f9DlfX/ZVX1/37V9f9/1fX/f9X1/3/V9f9/1fX/f9X1/3/V9f9/1fX/f9X1/3/UtP8/yiu9P8Cjez/AIvs/wCL7P8Ai+z/AIvs/wCL7P8Ai+z/AIvs/wCL7P8Ai+ygAAAAAAAAAAAAwf+/AMH//wDB//8Awf//AMH//wDB//8Awf//AMH//wDB//8HxP7/Odn6/2Dq9v9h6/b/Yev2/2Hr9v9h6/b/Yev2/2Hr9v9h6/b/Yev2/2Hr9v9h6/b7Yev2k2Hr9g0AAAAAAAAAAAAAAAAAAAAAAAAAAAAAAAAAAAAAAAAAAAAAAAAAAAAAAAAAAAAAAAAAAAAAV9f9HFfX/dhX1/3/V9f9/1fX/f9X1/3/V9f9/1fX/f9X1/3/V9f9/1fX/f9W1v3/Nrr3/wiS7v8Ai+z/AIvs/wCL7P8Ai+z/AIvs/wCL7P8Ai+z/AIvs/wCL7P8Ai+z/AIvsoAAAAAAAAAAAAMH/vwDB//8Awf//AMH//wDB//8Awf//AMH//wDB//8Awf//AMH//wDB//8RyP3/R+D4/2Hr9v9h6/b/Yev2/2Hr9v9h6/b/Yev2/2Hr9v9h6/b/Yev2/2Hr9v9h6/bXYev2HAAAAAAAAAAAAAAAAAAAAAAAAAAAAAAAAAAAAAAAAAAAAAAAAAAAAAAAAAAAV9f9D1fX/dlX1/3/V9f9/1fX/f9X1/3/V9f9/1fX/f9X1/3/V9f9/1fX/f9Dxvn/Epvw/wCL7P8Ai+z/AIvs/wCL7P8Ai+z/AIvs/wCL7P8Ai+z/AIvs/wCL7P8Ai+z/AIvs/wCL7KAAAAAAAAAAAADB/78Awf//AMH//wDB//8Awf//AMH//wDB//8Awf//AMH//wDB//8Awf//AMH//wDB//8ezvz/U+X3/2Hr9v9h6/b/Yev2/2Hr9v9h6/b/Yev2/2Hr9v9h6/b/Yev2/2Hr9thh6/YOAAAAAAAAAAAAAAAAAAAAAAAAAAAAAAAAAAAAAAAAAAAAAAAAAAAAAFfX/ZlX1/3/V9f9/1fX/f9X1/3/V9f9/1fX/f9X1/3/V9f9/03O+/8epfL/AIvs/wCL7P8Ai+z/AIvs/wCL7P8Ai+z/AIvs/wCL7P8Ai+z/AIvs/wCL7P8Ai+z/AIvs/wCL7P8Ai+ygAAAAAAAAAAAAwf+/AMH//wDB//8Awf//AMH//wDB//8Awf//AMH//wDB//8Awf//AMH//wDB//8Awf//AMH//wLC//8s1Pv/W+n3/2Hr9v9h6/b/Yev2/2Hr9v9h6/b/Yev2/2Hr9v9h6/b/Yev2mQAAAAAAAAAAAAAAAAAAAAAAAAAAAAAAAAAAAAAAAAAAAAAAAFfX/R9X1/37V9f9/1fX/f9X1/3/V9f9/1fX/f9X1/3/Vtb9/y2y9f8Dju3/AIvs/wCL7P8Ai+z/AIvs/wCL7P8Ai+z/AIvs/wCL7P8Ai+z/AIvs/wCL7P8Ai+z/AIvs/wCL7P8Ai+z/AIvsoAAAAAAAAAAAAMH/vwDB//8Awf//AMH//wDB//8Awf//AMH//wDB//8Awf//AMH//wDB//8Awf//AMH//wDB//8Awf//AMH//wnF/v892/n/Yev2/2Hr9v9h6/b/Yev2/2Hr9v9h6/b/Yev2/2Hr9vth6/YfAAAAAAAAAAAAAAAAAAAAAAAAAAAAAAAAAAAAAAAAAABX1/11V9f9/1fX/f9X1/3/V9f9/1fX/f9X1/3/Vdb9/xuj8f8Ai+z/AIvs/wCL7P8Ai+z/AIvs/wCL7P8Ai+z/AIvs/wCL7P8Ai+z/AIvs/wCL7P8Ai+z/AIvs/wCL7P8Ai+z/AIvs/wCL7KAAAAAAAAAAAADB/78Awf//AMH//wDB//8Awf//AMH//wDB//8Awf//AMH//wDB//8Awf//AMH//wDB//8Awf//AMH//wDB//8Awf//AMH//ynT+/9h6/b/Yev2/2Hr9v9h6/b/Yev2/2Hr9v9h6/b/Yev2dQAAAAAAAAAAAAAAAAAAAAAAAAAAAAAAAAAAAAAAAAAAV9f9r1fX/f9X1/3/V9f9/1fX/f9X1/3/V9f9/yiu9P8Ai+z/AIvs/wCL7P8Ai+z/AIvs/wCL7P8Ai+z/AIvs/wCL7P8Ai+z/AIvs/wCL7P8Ai+z/AIvs/wCL7P8Ai+z/AIvs/wCL7P8Ai+ygAAAAAAAAAAAAwf+/AMH//wDB//8Awf//AMH//wDB//8Awf//AMH//wDB//8Awf//AMH//wDB//8Awf//AMH//wDB//8Awf//AMH//wDB//8Awf//N9n6/2Hr9v9h6/b/Yev2/2Hr9v9h6/b/Yev2/2Hr9q8AAAAAAAAAAAAAAAAAAAAAAAAAAAAAAAAAAAAAAAAAAFfX/cpX1/3/V9f9/1fX/f9X1/3/V9f9/0zO+/8BjOz/AIvs/wCL7P8Ai+z/AIvs/wCL7P8Ai+z/AIvs/wCL7P8Ai+z/AIvs/wCL7P8Ai+z/AIvs/wCL7P8Ai+z/AIvs/wCL7P8Ai+z/AIvsoAAAAAAAAAAAAMH/vwDB//8Awf//AMH//wDB//8Awf//AMH//wDB//8Awf//AMH//wDB//8Awf//AMH//wDB//8Awf//AMH//wDB//8Awf//AMH//wXD//9b6Pf/Yev2/2Hr9v9h6/b/Yev2/2Hr9v9h6/bLAAAAAAAAAAAAAAAAAAAAAAAAAAAAAAAAAAAAAAAAAABX1/3PV9f9/1fX/f9X1/3/V9f9/1fX/f8us/X/AIvs/wCL7P8Ai+z/AIvs/wCL7P8Ai+z/AIvs/wCL7P8Ai+z/AIvs/wCL7P8Ai+z/AIvs/wCL7P8Ai+z/AIvs/wCL7P8Ai+z/AIvs/wCL7KAAAAAAAAAAAADB/78Awf//AMH//wDB//8Awf//AMH//wDB//8Awf//AMH//wDB//8Awf//AMH//wDB//8Awf//AMH//wDB//8Awf//AMH//wDB//8Awf//O9v6/2Hr9v9h6/b/Yev2/2Hr9v9h6/b/Yev2zwAAAAAAAAAAAAAAAAAAAAAAAAAAAAAAAAAAAAAAAAAAV9f9z1fX/f9X1/3/V9f9/1fX/f9X1/3/HKPx/wCL7P8Ai+z/AIvs/wCL7P8Ai+z/AIvs/wCL7P8Ai+z/AIvs/wCL7P8Ai+z/AIvs/wCL7P8Ai+z/AIvs/wCL7P8Ai+z/AIvs/wCL7P8Ai+ygAAAAAAAAAAAAwf+/AMH//wDB//8Awf//AMH//wDB//8Awf//AMH//wDB//8Awf//AMH//wDB//8Awf//AMH//wDB//8Awf//AMH//wDB//8Awf//AMH//yXR/P9h6/b/Yev2/2Hr9v9h6/b/Yev2/2Hr9s8AAAAAAAAAAAAAAAAAAAAAAAAAAAAAAAAAAAAAAAAAAFfX/c9X1/3/V9f9/1fX/f9X1/3/V9f9/xae8P8Ai+z/AIvs/wCL7P8Ai+z/AIvs/wCL7P8Ai+z/AIvs/wCL7P8Ai+z/AIvs/wCL7P8Ai+z/AIvs/wCL7P8Ai+z/AIvs/wCL7P8Ai+z/AIvsoAAAAAAAAAAAAMH/vwDB//8Awf//AMH//wDB//8Awf//AMH//wDB//8Awf//AMH//wDB//8Awf//AMH//wDB//8Awf//AMH//wDB//8Awf//AMH//wDB//8ezvz/Yev2/2Hr9v9h6/b/Yev2/2Hr9v9h6/bPAAAAAAAAAAAAAAAAAAAAAAAAAAAAAAAAAAAAAAAAAABX1/3PV9f9/1fX/f9X1/3/V9f9/1fX/f8WnvD/AIvs/wCL7P8Ai+z/AIvs/wCL7P8Ai+z/AIvs/wCL7P8Ai+z/AIvs/wCL7P8Ai+z/AIvs/wCL7P8Ai+z/AIvs/wCL7P8Ai+z/AIvs/wCL7KAAAAAAAAAAAADB/78Awf//AMH//wDB//8Awf//AMH//wDB//8Awf//AMH//wDB//8Awf//AMH//wDB//8Awf//AMH//wDB//8Awf//AMH//wDB//8Awf//Hs78/2Hr9v9h6/b/Yev2/2Hr9v9h6/b/Yev2zwAAAAAAAAAAAAAAAAAAAAAAAAAAAAAAAAAAAAAAAAAAV9f9z1fX/f9X1/3/V9f9/1fX/f9X1/3/Fp7w/wCL7P8Ai+z/AIvs/wCL7P8Ai+z/AIvs/wCL7P8Ai+z/AIvs/wCL7P8Ai+z/AIvs/wCL7P8Ai+z/AIvs/wCL7P8Ai+z/AIvs/wCL7P8Ai+ygAAAAAAAAAAAAwf+/AMH//wDB//8Awf//AMH//wDB//8Awf//AMH//wDB//8Awf//AMH//wDB//8Awf//AMH//wDB//8Awf//AMH//wDB//8Awf//AMH//x7O/P9h6/b/Yev2/2Hr9v9h6/b/Yev2/2Hr9s8AAAAAAAAAAAAAAAAAAAAAAAAAAAAAAAAAAAAAAAAAAFfX/c9X1/3/V9f9/1fX/f9X1/3/V9f9/xae8P8Ai+z/AIvs/wCL7P8Ai+z/AIvs/wCL7P8Ai+z/AIvs/wCL7P8Ai+z/AIvs/wCL7P8Ai+z/AIvs/wCL7P8Ai+z/AIvs/wCL7P8Ai+z/AIvsngAAAAAAAAAAAMH/tgDB//8Awf//AMH//wDB//8Awf//AMH//wDB//8Awf//AMH//wDB//8Awf//AMH//wDB//8Awf//AMH//wDB//8Awf//AMH//wDB//8ezvz/Yev2/2Hr9v9h6/b/Yev2/2Hr9v9h6/bPAAAAAAAAAAAAAAAAAAAAAAAAAAAAAAAAAAAAAAAAAABX1/3PV9f9/1fX/f9X1/3/V9f9/1fX/f8WnvD/AIvs/wCL7P8Ai+z/AIvs/wCL7P8Ai+z/AIvs/wCL7P8Ai+z/AIvs/wCL7P8Ai+z/AIvs/wCL7P8Ai+z/AIvs/wCL7P8Ai+z/AIvs/wCL7IQAAAAAAAAAAADB/5sAwf//AMH//wDB//8Awf//AMH//wDB//8Awf//AMH//wDB//8Awf//AMH//wDB//8Awf//AMH//wDB//8Awf//AMH//wDB//8Awf//Hs78/2Hr9v9h6/b/Yev2/2Hr9v9h6/b/Yev2zwAAAAAAAAAAAAAAAAAAAAAAAAAAAAAAAAAAAAAAAAAAV9f9z1fX/f9X1/3/V9f9/1fX/f9X1/3/Fp7w/wCL7P8Ai+z/AIvs/wCL7P8Ai+z/AIvs/wCL7P8Ai+z/AIvs/wCL7P8Ai+z/AIvs/wCL7P8Ai+z/AIvs/wCL7P8Ai+z/AIvs/wCL7P8Ai+xKAAAAAAAAAAAAwf9hAMH//wDB//8Awf//AMH//wDB//8Awf//AMH//wDB//8Awf//AMH//wDB//8Awf//AMH//wDB//8Awf//AMH//wDB//8Awf//AMH//x7O/P9h6/b/Yev2/2Hr9v9h6/b/Yev2/2Hr9s8AAAAAAAAAAAAAAAAAAAAAAAAAAAAAAAAAAAAAAAAAAFfX/c9X1/3/V9f9/1fX/f9X1/3/V9f9/xae8P8Ai+z/AIvs/wCL7P8Ai+z/AIvs/wCL7P8Ai+z/AIvs/wCL7P8Ai+z/AIvs/wCL7P8Ai+z/AIvs/wCL7P8Ai+z/AIvs/wCL7P8Ai+zhAIvsBQAAAAAAAAAAAMH/DwDB/+8Awf//AMH//wDB//8Awf//AMH//wDB//8Awf//AMH//wDB//8Awf//AMH//wDB//8Awf//AMH//wDB//8Awf//AMH//wDB//8ezvz/Yev2/2Hr9v9h6/b/Yev2/2Hr9v9h6/bPAAAAAAAAAAAAAAAAAAAAAAAAAAAAAAAAAAAAAAAAAABX1/3PV9f9/1fX/f9X1/3/V9f9/1fX/f8WnvD/AIvs/wCL7P8Ai+z/AIvs/wCL7P8Ai+z/AIvs/wCL7P8Ai+z/AIvs/wCL7P8Ai+z/AIvs/wCL7P8Ai+z/AIvs/wCL7P8Ai+z/AIvsUQAAAAAAAAAAAAAAAAAAAAAAwf9rAMH//wDB//8Awf//AMH//wDB//8Awf//AMH//wDB//8Awf//AMH//wDB//8Awf//AMH//wDB//8Awf//AMH//wDB//8Awf//Hs78/2Hr9v9h6/b/Yev2/2Hr9v9h6/b/Yev2zwAAAAAAAAAAAAAAAAAAAAAAAAAAAAAAAAAAAAAAAAAAV9f9z1fX/f9X1/3/V9f9/1fX/f9X1/3/Fp7w/wCL7P8Ai+z/AIvs/wCL7P8Ai+z/AIvs/wCL7P8Ai+z/AIvs/wCL7P8Ai+z/AIvs/wCL7P8Ai+z/AIvs/wCL7P8Ai+z/AIvsggAAAAAAAAAAeZhDGnmYQw4AAAAAAAAAAADB/5YAwf//AMH//wDB//8Awf//AMH//wDB//8Awf//AMH//wDB//8Awf//AMH//wDB//8Awf//AMH//wDB//8Awf//AMH//x7O/P9h6/b/Yev2/2Hr9v9h6/b/Yev2/2Hr9s8AAAAAAAAAAAAAAAAAAAAAAAAAAAAAAAAAAAAAAAAAAFfX/c9X1/3/V9f9/1fX/f9X1/3/V9f9/xae8P8Ai+z/AIvs/wCL7P8Ai+z/AIvs/wCL7P8Ai+z/AIvs/wCL7P8Ai+z/AIvs/wCL7P8Ai+z/AIvs/wCL7P8Ai+z6AIvsbQAAAAAAAAAAeZhDBHmYQ7x5mEOmeZhDAQAAAAAAwf8BAMH/hADB//4Awf//AMH//wDB//8Awf//AMH//wDB//8Awf//AMH//wDB//8Awf//AMH//wDB//8Awf//AMH//wDB//8ezvz/Yev2/2Hr9v9h6/b/Yev2/2Hr9v9h6/bPAAAAAAAAAAAAAAAAAAAAAAAAAAAAAAAAAAAAAAAAAABX1/3PV9f9/1fX/f9X1/3/V9f9/1fX/f8WnvD/AIvs/wCL7P8Ai+z/AIvs/wCL7P8Ai+z/AIvs/wCL7P8Ai+z/AIvs/wCL7P8Ai+z/AIvs/wCL7P8Ai+zDAIvsMQAAAAAAAAAAeZhDBnmYQ6R5mEP/eZhD/3mYQ5V5mEMBAAAAAAAAAAAAwf89AMH/zwDB//8Awf//AMH//wDB//8Awf//AMH//wDB//8Awf//AMH//wDB//8Awf//AMH//wDB//8Awf//Hs78/2Hr9v9h6/b/Yev2/2Hr9v9h6/b/Yev2zwAAAAAAAAAAAAAAAAAAAAAAAAAAAAAAAAAAAAAAAAAAV9f9z1fX/f9X1/3/V9f9/1fX/f9X1/3/Fp7w/wCL7P8Ai+z/AIvs/wCL7P8Ai+z/AIvs/wCL7P8Ai+z/AIvs/wCL7P8Ai+z/AIvs/wCL7OEAi+xYAIvsAQAAAAAAAAAAeZhDGXmYQ755mEP/eZhD/3mYQ/95mEP/eZhDr3mYQxEAAAAAAAAAAADB/wIAwf9mAMH/6QDB//8Awf//AMH//wDB//8Awf//AMH//wDB//8Awf//AMH//wDB//8Awf//AMH//x7O/P9h6/b/Yev2/2Hr9v9h6/b/Yev2/2Hr9s8AAAAAAAAAAAAAAAAAAAAAAAAAAAAAAAAAAAAAAAAAAFfX/c9X1/3/V9f9/1fX/f9X1/3/V9f9/xae8P8Ai+z/AIvs/wCL7P8Ai+z/AIvs/wCL7P8Ai+z/AIvs/wCL7P8Ai+z/AIvs9QCL7IAAi+wJAAAAAAAAAAB5mEMCeZhDZXmYQ+x5mEP/eZhD/3mYQ/95mEP/eZhD/3mYQ/95mEPkeZhDV3mYQwEAAAAAAAAAAADB/w8Awf+NAMH/+QDB//8Awf//AMH//wDB//8Awf//AMH//wDB//8Awf//AMH//wDB//8ezvz/Yev2/2Hr9v9h6/b/Yev2/2Hr9v9h6/bPAAAAAAAAAAAAAAAAAAAAAAAAAAAAAAAAAAAAAAAAAABX1/3PV9f9/1fX/f9X1/3/V9f9/1fX/f8WnvD/AIvs/wCL7P8Ai+z/AIvs/wCL7P8Ai+z/AIvs/wCL7P8Ai+z+AIvspgCL7B0AAAAAAAAAAAAAAAB5mEM+eZhDznmYQ/95mEP/eZhD/3mYQ/95mEP/eZhD/3mYQ/95mEP/eZhD/3mYQ/95mEPCeZhDMgAAAAAAAAAAAAAAAADB/yYAwf+0AMH//wDB//8Awf//AMH//wDB//8Awf//AMH//wDB//8Awf//Hs78/2Hr9v9h6/b/Yev2/2Hr9v9h6/b/Yev2zwAAAAAAAAAAAAAAAAAAAAAAAAAAAAAAAAAAAAAAAAAAV9f9z1fX/f9X1/3/V9f9/1fX/f9X1/3/Fp7w/wCL7P8Ai+z/AIvs/wCL7P8Ai+z/AIvs/wCL7P8Ai+zLAIvsOwAAAAAAAAAAAAAAAHmYQyB5mEOoeZhD/3mYQ/95mEP/eZhD/3mYQ/95mEP/eZhD/3mYQ/95mEP/eZhD/3mYQ/95mEP/eZhD/3mYQ/15mEOaeZhDFwAAAAAAAAAAAAAAAADB/0gAwf/WAMH//wDB//8Awf//AMH//wDB//8Awf//AMH//x7O/P9h6/b/Yev2/2Hr9v9h6/b/Yev2/2Hr9s8AAAAAAAAAAAAAAAAAAAAAAAAAAAAAAAAAAAAAAAAAAFfX/c9X1/3/V9f9/1fX/f9X1/3/V9f9/xae8P8Ai+z/AIvs/wCL7P8Ai+z/AIvs/wCL7OcAi+xiAIvsAgAAAAAAAAAAeZhDC3mYQ4J5mEP2eZhD/3mYQ/95mEP/eZhD/3mYQ/95mEP/eZhD/3mYQ/95mEP/eZhD/3mYQ/95mEP/eZhD/3mYQ/95mEP/eZhD/3mYQ/B5mEN1eZhDBgAAAAAAAAAAAMH/BADB/3AAwf/uAMH//wDB//8Awf//AMH//wDB//8ezvz/Yev2/2Hr9v9h6/b/Yev2/2Hr9v9h6/bPAAAAAAAAAAAAAAAAAAAAAAAAAAAAAAAAAAAAAAAAAABX1/3PV9f9/1fX/f9X1/3/V9f9/1fX/f8WnvD/AIvs/wCL7P8Ai+z/AIvs+ACL7IkAi+wOAAAAAAAAAAB5mEMBeZhDW3mYQ+N5mEP/eZhD/3mYQ/95mEP/eZhD/3mYQ/95mEP/eZhD/3mYQ/95mEP/eZhD/3mYQ/95mEP/eZhD/3mYQ/95mEP/eZhD/3mYQ/95mEP/eZhD/3mYQ9l5mENNAAAAAAAAAAAAAAAAAMH/FADB/5YAwf/7AMH//wDB//8Awf//Hs78/2Hr9v9h6/b/Yev2/2Hr9v9h6/b/Yev2zwAAAAAAAAAAAAAAAAAAAAAAAAAAAAAAAAAAAAAAAAAAV9f9z1fX/f9X1/3/V9f9/1fX/f9X1/3/Fp7w/wCL7P8Ai+z/AIvsrwCL7CQAAAAAAAAAAAAAAAB5mEM2eZhDxXmYQ/95mEP/eZhD/3mYQ/95mEP/eZhD/3mYQ/95mEP/eZhD/3mYQ/95mEP/eZhD/3mYQ/95mEP/eZhD/3mYQ/95mEP/eZhD/3mYQ/95mEP/eZhD/3mYQ/95mEP/eZhD/3mYQ7h5mEMqAAAAAAAAAAAAAAAAAMH/LgDB/70Awf//AMH//x7O/P9h6/b/Yev2/2Hr9v9h6/b/Yev2/2Hr9s8AAAAAAAAAAAAAAAAAAAAAAAAAAAAAAAAAAAAAAAAAAFfX/c9X1/3/V9f9/1fX/f9X1/3/V9f9/x+m8v8Ai+zTAIvsRQAAAAAAAAAAAAAAAHmYQxl5mEOfeZhD/XmYQ/95mEP/eZhD/3mYQ/95mEP/eZhD/3mYQ/95mEP/eZhD/3mYQ/95mEP/eZhD/3mYQ/95mEP/eZhD/3mYQ/95mEP/eZhD/3mYQ/95mEP/eZhD/3mYQ/95mEP/eZhD/3mYQ/95mEP/eZhD+3mYQ5F5mEMRAAAAAAAAAAAAAAAAAMH/UgDB/90p0/v/Yev2/2Hr9v9h6/b/Yev2/2Hr9v9h6/bPAAAAAAAAAAAAAAAAAAAAAAAAAAAAAAAAAAAAAAAAAABX1/3PV9f9/1fX/f9X1/3/V9f9/1fX/e07vvdrAIvsBAAAAAAAAAAAeZhDB3mYQ3l5mEPyeZhD/3mYQ/95mEP/eZhD/3mYQ/95mEP/eZhD/3mYQ/95mEP/eZhD/3mYQ/95mEP/eZhD/3mYQ/95mEP/eZhD/3mYQ/95mEP/eZhD/3mYQ/95mEP/eZhD/3mYQ/95mEP/eZhD/3mYQ/95mEP/eZhD/3mYQ/95mEP/eZhD7HmYQ2p5mEMEAAAAAAAAAAAAwf8IR+D4eWHr9vJh6/b/Yev2/2Hr9v9h6/b/Yev2zwAAAAAAAAAAAAAAAAAAAAAAAAAAAAAAAAAAAAAAAAAAV9f9x1fX/f9X1/3/V9f9+1fX/ZFX1/0SAAAAAAAAAAAAAAAAeZhDUXmYQ915mEP/eZhD/3mYQ/95mEP/eZhD/3mYQ/95mEP/eZhD/3mYQ/95mEP/eZhD/3mYQ/95mEP/eZhD/3mYQ/95mEP/eZhD/3mYQ/95mEP/eZhD/3mYQ/95mEP/eZhD/3mYQ/95mEP/eZhD/3mYQ/95mEP/eZhD/3mYQ/95mEP/eZhD/3mYQ/95mEP/eZhD0nmYQ0MAAAAAAAAAAAAAAABh6/YaYev2n2Hr9v5h6/b/Yev2/2Hr9sgAAAAAAAAAAAAAAAAAAAAAAAAAAAAAAAAAAAAAAAAAAFfX/aVX1/3/V9f9uFfX/SsAAAAAAAAAAAAAAADnxSwteplDvXmYQ/95mEP/eZhD/3mYQ/95mEP/eZhD/3mYQ/95mEP/eZhD/3mYQ/95mEP/eZhD/3mYQ/95mEP/eZhD/3mYQ/95mEP/eZhD/3mYQ/95mEP/eZhD/3mYQ/95mEP/eZhD/3mYQ/95mEP/eZhD/3mYQ/95mEP/eZhD/3mYQ/95mEP/eZhD/3mYQ/95mEP/eZhD/3mYQ/95mEP/e5lDr+zHKyIAAAAAAAAAAAAAAABh6/Y2Yev2xmHr9v9h6/alAAAAAAAAAAAAAAAAAAAAAAAAAAAAAAAAAAAAAAAAAABX1/1LV9f9TgAAAAAAAAAAAAAAAPvNKBP7zSiW+80o+8e4M/97mUP/eZhD/3mYQ/95mEP/eZhD/3mYQ/95mEP/eZhD/3mYQ/95mEP/eZhD/3mYQ/95mEP/eZhD/3mYQ/95mEP/eZhD/3mYQ/95mEP/eZhD/3mYQ/95mEP/eZhD/3mYQ/95mEP/eZhD/3mYQ/95mEP/eZhD/3mYQ/95mEP/eZhD/3mYQ/95mEP/eZhD/3mYQ/95mEP/e5lD/8e4M//7zSj4+80oiPvNKA0AAAAAAAAAAGHr9gFh6/ZbYev2UAAAAAAAAAAAAAAAAAAAAAAAAAAAAAAAAAAAAAAAAAAAAAAAAAAAAAAAAAAA+80oBPvNKG/7zSju+80o//vNKP/7zSj/38Iu/5OjPv95mEP/eZhD/3mYQ/95mEP/eZhD/3mYQ/95mEP/eZhD/3mYQ/95mEP/eZhD/3mYQ/95mEP/eZhD/3mYQ/95mEP/eZhD/3mYQ/95mEP/eZhD/3mYQ/95mEP/eZhD/3mYQ/95mEP/eZhD/3mYQ/95mEP/eZhD/3mYQ/95mEP/eZhD/3mYQ/95mEP/lKM9/9/CLv/7zSj/+80o//vNKP/7zSjn+80oYPvNKAIAAAAAAAAAAAAAAAAAAAAAAAAAAAAAAAAAAAAAAAAAAAAAAAAAAAAAAAAAAAAAAAAAAAAA+80oR/vNKNb7zSj/+80o//vNKP/7zSj/+80o//vNKP/6zSj/yrky/4WdQf95mEP/eZhD/3mYQ/95mEP/eZhD/3mYQ/95mEP/eZhD/3mYQ/95mEP/eZhD/3mYQ/95mEP/eZhD/3mYQ/95mEP/eZhD/3mYQ/95mEP/eZhD/3mYQ/95mEP/eZhD/3mYQ/95mEP/eZhD/3mYQ/95mEP/eZhD/3mYQ/+GnUD/y7ky//vNKP/7zSj/+80o//vNKP/7zSj/+80o//vNKP/7zSjK+80oOgAAAAAAAAAAAAAAAAAAAAAAAAAAAAAAAAAAAAAAAAAAAAAAAAAAAAAAAAAA+80oAvvNKLn7zSj/+80o//vNKP/7zSj/+80o//vNKP/7zSj/+80o//vNKP/0yin/tbE3/32ZQv95mEP/eZhD/3mYQ/95mEP/eZhD/3mYQ/95mEP/eZhD/3mYQ/95mEP/eZhD/3mYQ/95mEP/eZhD/3mYQ/95mEP/eZhD/3mYQ/95mEP/eZhD/3mYQ/95mEP/eZhD/3mYQ/95mEP/eZhD/32aQv+4sjb/9csp//vNKP/7zSj/+80o//vNKP/7zSj/+80o//vNKP/7zSj/+80o//vNKLgAAAAAAAAAAAAAAAAAAAAAAAAAAAAAAAAAAAAAAAAAAAAAAAAAAAAAAAAAAAAAAAD7zSgK+80otfvNKP/7zSj/+80o//vNKP/7zSj/+80o//vNKP/7zSj/+80o//vNKP/pxiz/oqk7/3mYQ/95mEP/eZhD/3mYQ/95mEP/eZhD/3mYQ/95mEP/eZhD/3mYQ/95mEP/eZhD/3mYQ/95mEP/eZhD/3mYQ/95mEP/eZhD/3mYQ/95mEP/eZhD/3mYQ/95mEP/eZhD/6SqOv/qxiz/+80o//vNKP/7zSj/+80o//vNKP/7zSj/+80o//vNKP/7zSj/+80o//vNKLX7zSgKAAAAAAAAAAAAAAAAAAAAAAAAAAAAAAAAAAAAAAAAAAAAAAAAAAAAAAAAAAAAAAAAAAAAAPvNKAL7zShq+80o7PvNKP/7zSj/+80o//vNKP/7zSj/+80o//vNKP/7zSj/+80o//vNKP/Zvy//kKE+/3mYQ/95mEP/eZhD/3mYQ/95mEP/eZhD/3mYQ/95mEP/eZhD/3mYQ/95mEP/eZhD/3mYQ/95mEP/eZhD/3mYQ/95mEP/eZhD/3mYQ/95mEP/kaI+/9vAL//7zSj/+80o//vNKP/7zSj/+80o//vNKP/7zSj/+80o//vNKP/7zSj/+80o6vvNKGj7zSgBAAAAAAAAAAAAAAAAAAAAAAAAAAAAAAAAAAAAAAAAAAAAAAAAAAAAAAAAAAAAAAAAAAAAAAAAAAAAAAAAAAAAAPvNKBL7zSiR+80o+/vNKP/7zSj/+80o//vNKP/7zSj/+80o//vNKP/7zSj/+80o//nMKP/FtzP/g5xB/3mYQ/95mEP/eZhD/3mYQ/95mEP/eZhD/3mYQ/95mEP/eZhD/3mYQ/95mEP/eZhD/3mYQ/95mEP/eZhD/3mYQ/+EnUH/yLgz//rNKP/7zSj/+80o//vNKP/7zSj/+80o//vNKP/7zSj/+80o//vNKP/7zSj6+80okPvNKBAAAAAAAAAAAAAAAAAAAAAAAAAAAAAAAAAAAAAAAAAAAAAAAAAAAAAAAAAAAAAAAAAAAAAAAAAAAAAAAAAAAAAAAAAAAAAAAAAAAAAAAAAAAPvNKCv7zSi4+80o//vNKP/7zSj/+80o//vNKP/7zSj/+80o//vNKP/7zSj/+80o//LJKv+xrzf/e5lD/3mYQ/95mEP/eZhD/3mYQ/95mEP/eZhD/3mYQ/95mEP/eZhD/3mYQ/95mEP/eZhD/3yZQv+0sDf/88oq//vNKP/7zSj/+80o//vNKP/7zSj/+80o//vNKP/7zSj/+80o//vNKP/7zSi1+80oJwAAAAAAAAAAAAAAAAAAAAAAAAAAAAAAAAAAAAAAAAAAAAAAAAAAAAAAAAAAAAAAAAAAAAAAAAAAAAAAAAAAAAAAAAAAAAAAAAAAAAAAAAAAAAAAAAAAAAAAAAAAAAAAAPvNKE77zSja+80o//vNKP/7zSj/+80o//vNKP/7zSj/+80o//vNKP/7zSj/+80o/+XELf+dpzz/eZhD/3mYQ/95mEP/eZhD/3mYQ/95mEP/eZhD/3mYQ/95mEP/eZhD/6GoO//oxSz/+80o//vNKP/7zSj/+80o//vNKP/7zSj/+80o//vNKP/7zSj/+80o//vNKNb7zShJAAAAAAAAAAAAAAAAAAAAAAAAAAAAAAAAAAAAAAAAAAAAAAAAAAAAAAAAAAAAAAAAAAAAAAAAAAAAAAAAAAAAAAAAAAAAAAAAAAAAAAAAAAAAAAAAAAAAAAAAAAAAAAAAAAAAAAAAAAAAAAAA+80oBvvNKHX7zSjx+80o//vNKP/7zSj/+80o//vNKP/7zSj/+80o//vNKP/7zSj/+80o/9O9MP+MoD//eZhD/3mYQ/95mEP/eZhD/3mYQ/95mEP/j6E+/9i/L//7zSj/+80o//vNKP/7zSj/+80o//vNKP/7zSj/+80o//vNKP/7zSj/+80o7vvNKHD7zSgEAAAAAAAAAAAAAAAAAAAAAAAAAAAAAAAAAAAAAAAAAAAAAAAAAAAAAAAAAAAAAAAAAAAAAAAAAAAAAAAAAAAAAAAAAAAAAAAAAAAAAAAAAAAAAAAAAAAAAAAAAAAAAAAAAAAAAAAAAAAAAAAAAAAAAAAAAAAAAAAA+80oF/vNKJv7zSj9+80o//vNKP/7zSj/+80o//vNKP/7zSj/+80o//vNKP/7zSj/+Mwp/826Mv+mqjr/lKM9/5WjPf+oqzn/0Lwx//nMKP/7zSj/+80o//vNKP/7zSj/+80o//vNKP/7zSj/+80o//vNKP/7zSj7+80olfvNKBMAAAAAAAAAAAAAAAAAAAAAAAAAAAAAAAAAAAAAAAAAAAAAAAAAAAAAAAAAAAAAAAAAAAAAAAAAAAAAAAAAAAAAAAAAAAAAAAAAAAAAAAAAAAAAAAAAAAAAAAAAAAAAAAAAAAAAAAAAAAAAAAAAAAAAAAAAAAAAAAAAAAAAAAAAAAAAAAAAAAAA+80oMvvNKML7zSj/+80o//vNKP/7zSj/+80o//vNKP/7zSj/+80o//vNKP/7zSj/+80o//vNKP/7zSj/+80o//vNKP/7zSj/+80o//vNKP/7zSj/+80o//vNKP/7zSj/+80o//vNKP/7zSi6+80oLQAAAAAAAAAAAAAAAAAAAAAAAAAAAAAAAAAAAAAAAAAAAAAAAAAAAAAAAAAAAAAAAAAAAAAAAAAAAAAAAAAAAAAAAAAAAAAAAAAAAAAAAAAAAAAAAAAAAAAAAAAAAAAAAAAAAAAAAAAAAAAAAAAAAAAAAAAAAAAAAAAAAAAAAAAAAAAAAAAAAAAAAAAAAAAAAAAAAAD7zSgB+80oV/vNKOH7zSj/+80o//vNKP/7zSj/+80o//vNKP/7zSj/+80o//vNKP/7zSj/+80o//vNKP/7zSj/+80o//vNKP/7zSj/+80o//vNKP/7zSj/+80o//vNKNv7zShQAAAAAAAAAAAAAAAAAAAAAAAAAAAAAAAAAAAAAAAAAAAAAAAAAAAAAAAAAAAAAAAAAAAAAAAAAAAAAAAAAAAAAAAAAAAAAAAAAAAAAAAAAAAAAAAAAAAAAAAAAAAAAAAAAAAAAAAAAAAAAAAAAAAAAAAAAAAAAAAAAAAAAAAAAAAAAAAAAAAAAAAAAAAAAAAAAAAAAAAAAAAAAAAAAAAAAAAAAAD7zSgJ+80of/vNKPX7zSj/+80o//vNKP/7zSj/+80o//vNKP/7zSj/+80o//vNKP/7zSj/+80o//vNKP/7zSj/+80o//vNKP/7zSj/+80o8fvNKHb7zSgGAAAAAAAAAAAAAAAAAAAAAAAAAAAAAAAAAAAAAAAAAAAAAAAAAAAAAAAAAAAAAAAAAAAAAAAAAAAAAAAAAAAAAAAAAAAAAAAAAAAAAAAAAAAAAAAAAAAAAAAAAAAAAAAAAAAAAAAAAAAAAAAAAAAAAAAAAAAAAAAAAAAAAAAAAAAAAAAAAAAAAAAAAAAAAAAAAAAAAAAAAAAAAAAAAAAAAAAAAAAAAAAAAAAAAAAAAAD7zSgc+80opvvNKP77zSj/+80o//vNKP/7zSj/+80o//vNKP/7zSj/+80o//vNKP/7zSj/+80o//vNKP/7zSj9+80omvvNKBcAAAAAAAAAAAAAAAAAAAAAAAAAAAAAAAAAAAAAAAAAAAAAAAAAAAAAAAAAAAAAAAAAAAAAAAAAAAAAAAAAAAAAAAAAAAAAAAAAAAAAAAAAAAAAAAAAAAAAAAAAAAAAAAAAAAAAAAAAAAAAAAAAAAAAAAAAAAAAAAAAAAAAAAAAAAAAAAAAAAAAAAAAAAAAAAAAAAAAAAAAAAAAAAAAAAAAAAAAAAAAAAAAAAAAAAAAAAAAAAAAAAAAAAAAAAAAAAD7zSg6+80oy/vNKP/7zSj/+80o//vNKP/7zSj/+80o//vNKP/7zSj/+80o//vNKP/7zSjB+80oMgAAAAAAAAAAAAAAAAAAAAAAAAAAAAAAAAAAAAAAAAAAAAAAAAAAAAAAAAAAAAAAAAAAAAAAAAAAAAAAAAAAAAAAAAAAAAAAAAAAAAAAAAAAAAAAAAAAAAAAAAAAAAAAAAAAAAAAAAAAAAAAAAAAAAAAAAAAAAAAAAAAAAAAAAAAAAAAAAAAAAAAAAAAAAAAAAAAAAAAAAAAAAAAAAAAAAAAAAAAAAAAAAAAAAAAAAAAAAAAAAAAAAAAAAAAAAAAAAAAAAAAAAAAAAAAAPvNKAL7zShg+80o3/vNKP/7zSj/+80o//vNKP/7zSj/+80o//vNKNj7zShVAAAAAAAAAAAAAAAAAAAAAAAAAAAAAAAAAAAAAAAAAAAAAAAAAAAAAAAAAAAAAAAAAAAAAAAAAAAAAAAAAAAAAAAAAAAAAAAAAAAAAAAAAAAAAAAAAAAAAAAAAAAAAAAAAAAAAAAAAAAAAAAAAAAAAAAAAAAAAAAAAAAAAAAAAAAAAAAAAAAAAAAAAAAAAAAAAAAAAAAAAAAAAAAAAAAAAAAAAAAAAAAAAAAAAAAAAAAAAAAAAAAAAAAAAAAAAAAAAAAAAAAAAAAAAAAAAAAAAAAAAAAAAAAAAAAAAPvNKAL7zSg/+80oefvNKJX7zSiT+80odvvNKDj7zSgBAAAAAAAAAAAAAAAAAAAAAAAAAAAAAAAAAAAAAAAAAAAAAAAAAAAAAAAAAAAAAAAAAAAAAAAAAAAAAAAAAAAAAAAAAAAAAAAAAAAAAAAAAAAAAAAAAAAAAAAAAAAAAAAAAAAAAAAAAAAAAAAAAAAAAAAAAAAAAAAAAAAAAAAAAAAAAAAAAAAAAAAAAAAAAAAAAAAAAAAAAAAAAAAAAAAAAAAAAAAAAAAAAAAAAAAAAAAAAAAAAAAAAAAAAAAAAAAAAAAAAAAAAAAAAAAAAAAAAAAAAAAAAAAAAAAAAAAAAAAAAAAAAAAAAAAAAAAAAAAAAAAAAAAAAAAAAAAAAAAAAAAAAAAAAAAAAAAAAAAAAAAAAAAAAAAAAAAAAAAAAAAAAAAAAAAAAAAAAAAAAAAAAAAAAAAAAAAAAAAAAAAAAAAAAAAAAAAAAAAAAAAAAAAAAAAAAAAAAAAAAAAAAAAAAAAAAAAAAAAAAAAAAAAAAAD///////////////GP////////wYP///////8BgP///////gGAf//////4AYAf/////+ABgAf/////gAGAA/////8AAYAA/////AABgAA////wAAGAAA///+AAAYAAB///gAABgAAB//4AAAGAAAB//AAAAYAAAD/4AAABgAAAH/gAAAGAAAAf8AAAAYAAAA/wAAABgAAAD/AAAAGAAAAP8AAAAYAAAA/wAAABgAAAD/AAAAGAAAAP8AAAAYAAAA/wAAABgAAAD/AAAAGAAAAP8AAAAYAAAA/wAAABgAAAD/AAAAGAAAAP8AAAAYAAAA/wAAADwAAAD/AAAAZgAAAP8AAADCAAAA/wAAAYGAAAD/AAADAMAAAP8AAAwAMAAA/wAAOAAcAAD/AADgAAcAAP8AAYAAAYAA/wAGAAAA4AD/ABwAAAA4AP8AcAAAAA4A/wDAAAAAAwD/A4AAAAABwP8OAAAAAABw/zgAAAAAABj/4AAAAAAAB//AAAAAAAAD/4AAAAAAAAP/wAAAAAAAA//gAAAAAAAH//gAAAAAAB///gAAAAAAf///gAAAAAH////AAAAAA/////AAAAAP/////AAAAD/////+AAAA//////+AAAH//////+AAB///////+AAf///////8AH////////8A///////////////ygAAAAwAAAAYAAAAAEAIAAAAAAAACQAAAAAAAAAAAAAAAAAAAAAAAAAAAAAAAAAAAAAAAAAAAAAAAAAAAAAAAAAAAAAAAAAAAAAAAAAAAAAAAAAAAAAAAAAAAAAAAAAAAAAAAAAAAAAAAAAAAAAAAAAAAAAAAAAAAAAAAAAAAAAV9f9A1fX/QBh6/YBYev2AwAAAAAAAAAAAAAAAAAAAAAAAAAAAAAAAAAAAAAAAAAAAAAAAAAAAAAAAAAAAAAAAAAAAAAAAAAAAAAAAAAAAAAAAAAAAAAAAAAAAAAAAAAAAAAAAAAAAAAAAAAAAAAAAAAAAAAAAAAAAAAAAAAAAAAAAAAAAAAAAAAAAAAAAAAAAAAAAAAAAAAAAAAAAAAAAAAAAAAAAAAAAAAAAAAAAAAAAAAAAAAAAFfX/SFX1/2VV9f90VfX/Qhh6/YPYev23WHr9o9h6/YcAAAAAAAAAAAAAAAAAAAAAAAAAAAAAAAAAAAAAAAAAAAAAAAAAAAAAAAAAAAAAAAAAAAAAAAAAAAAAAAAAAAAAAAAAAAAAAAAAAAAAAAAAAAAAAAAAAAAAAAAAAAAAAAAAAAAAAAAAAAAAAAAAAAAAAAAAAAAAAAAAAAAAAAAAAAAAAAAAAAAAAAAAAAAAAAAAAAAAAAAAABX1/0MV9f9g1fX/fRX1/3/V9f971fX/Qhh6/YQYev2/2Hr9v9h6/bxYev2e2Hr9gkAAAAAAAAAAAAAAAAAAAAAAAAAAAAAAAAAAAAAAAAAAAAAAAAAAAAAAAAAAAAAAAAAAAAAAAAAAAAAAAAAAAAAAAAAAAAAAAAAAAAAAAAAAAAAAAAAAAAAAAAAAAAAAAAAAAAAAAAAAAAAAAAAAAAAAAAAAAAAAAAAAAAAAAAAAAAAAAAAAAAAV9f9A1fX/VxX1/3kV9f9/1fX/f9X1/3/V9f971fX/Qhh6/YQYev2/2Hr9v9h6/b/Yev2/2Hr9uBh6/ZVYev2AgAAAAAAAAAAAAAAAAAAAAAAAAAAAAAAAAAAAAAAAAAAAAAAAAAAAAAAAAAAAAAAAAAAAAAAAAAAAAAAAAAAAAAAAAAAAAAAAAAAAAAAAAAAAAAAAAAAAAAAAAAAAAAAAAAAAAAAAAAAAAAAAAAAAAAAAAAAAAAAAAAAAABX1/05V9f9xVfX/f9X1/3/V9f9/1fX/f9X1/3/V9f971fX/Qhh6/YQYev2/2Hr9v9h6/b/Yev2/2Hr9v9h6/b/Yev2v2Hr9jMAAAAAAAAAAAAAAAAAAAAAAAAAAAAAAAAAAAAAAAAAAAAAAAAAAAAAAAAAAAAAAAAAAAAAAAAAAAAAAAAAAAAAAAAAAAAAAAAAAAAAAAAAAAAAAAAAAAAAAAAAAAAAAAAAAAAAAAAAAAAAAAAAAAAAV9f9GlfX/aBX1/38V9f9/1fX/f9X1/3/V9f9/1fX/f9X1/3/V9f971fX/Qhh6/YQYev2/2Hr9v9h6/b/Yev2/2Hr9v9h6/b/Yev2/2Hr9vth6/abYev2FwAAAAAAAAAAAAAAAAAAAAAAAAAAAAAAAAAAAAAAAAAAAAAAAAAAAAAAAAAAAAAAAAAAAAAAAAAAAAAAAAAAAAAAAAAAAAAAAAAAAAAAAAAAAAAAAAAAAAAAAAAAAAAAAFfX/QpX1/16V9f981fX/f9X1/3/V9f9/1fX/f9X1/3/V9f9/1XV/f8yt/b/EZrv7wiS7ggOx/4QGcz9/0Hd+f9g6/b/Yev2/2Hr9v9h6/b/Yev2/2Hr9v9h6/b/Yev28GHr9nZh6/YIAAAAAAAAAAAAAAAAAAAAAAAAAAAAAAAAAAAAAAAAAAAAAAAAAAAAAAAAAAAAAAAAAAAAAAAAAAAAAAAAAAAAAAAAAAAAAAAAAAAAAAAAAABX1/0CV9f9U1fX/dtX1/3/V9f9/1fX/f9X1/3/V9f9/1fX/f9X1/3/PsH4/w+Y7/8Ai+z/AIvs7wCL7AgAwf8QAMH//wDB//8YzP3/TeL4/2Hr9v9h6/b/Yev2/2Hr9v9h6/b/Yev2/2Hr9v9h6/bZYev2UGHr9gEAAAAAAAAAAAAAAAAAAAAAAAAAAAAAAAAAAAAAAAAAAAAAAAAAAAAAAAAAAAAAAAAAAAAAAAAAAAAAAAAAAAAAAAAAAFfX/S5X1/29V9f9/lfX/f9X1/3/V9f9/1fX/f9X1/3/V9f9/0rM+v8aovH/AIvs/wCL7P8Ai+z/AIvs7wCL7AgAwf8QAMH//wDB//8Awf//AsL//ybR/P9Y5/f/Yev2/2Hr9v9h6/b/Yev2/2Hr9v9h6/b/Yev2/mHr9rth6/YsAAAAAAAAAAAAAAAAAAAAAAAAAAAAAAAAAAAAAAAAAAAAAAAAAAAAAAAAAAAAAAAAAAAAAAAAAABX1/0WV9f9l1fX/fxX1/3/V9f9/1fX/f9X1/3/V9f9/1fX/f9R0vz/J630/wKN7P8Ai+z/AIvs/wCL7P8Ai+z/AIvs7wCL7AgAwf8QAMH//wDB//8Awf//AMH//wDB//8Fw/7/NNj6/17q9v9h6/b/Yev2/2Hr9v9h6/b/Yev2/2Hr9v9h6/b7Yev2lWHr9hYAAAAAAAAAAAAAAAAAAAAAAAAAAAAAAAAAAAAAAAAAAAAAAAAAAAAAAAAAAFfX/VRX1/3sV9f9/1fX/f9X1/3/V9f9/1fX/f9X1/3/Vdb9/zW59v8Iku7/AIvs/wCL7P8Ai+z/AIvs/wCL7P8Ai+z/AIvs7wCL7AgAwf8QAMH//wDB//8Awf//AMH//wDB//8Awf//AMH//w7H/v9D3vn/YOv2/2Hr9v9h6/b/Yev2/2Hr9v9h6/b/Yev2/2Hr9uxh6/ZTAAAAAAAAAAAAAAAAAAAAAAAAAAAAAAAAAAAAAAAAAAAAAAAAV9f9VVfX/fpX1/3/V9f9/1fX/f9X1/3/V9f9/1fX/f9BxPn/EZrv/wCL7P8Ai+z/AIvs/wCL7P8Ai+z/AIvs/wCL7P8Ai+z/AIvs7wCL7AgAwf8QAMH//wDB//8Awf//AMH//wDB//8Awf//AMH//wDB//8Awf//Gsz9/1Dk+P9h6/b/Yev2/2Hr9v9h6/b/Yev2/2Hr9v9h6/b6Yev2VAAAAAAAAAAAAAAAAAAAAAAAAAAAAAAAAAAAAABX1/0WV9f97lfX/f9X1/3/V9f9/1fX/f9X1/3/TM37/x2k8v8Ai+z/AIvs/wCL7P8Ai+z/AIvs/wCL7P8Ai+z/AIvs/wCL7P8Ai+z/AIvs7wCL7AgAwf8QAMH//wDB//8Awf//AMH//wDB//8Awf//AMH//wDB//8Awf//AMH//wHC//8o0vv/Wef3/2Hr9v9h6/b/Yev2/2Hr9v9h6/b/Yev27mHr9hYAAAAAAAAAAAAAAAAAAAAAAAAAAAAAAABX1/14V9f9/1fX/f9X1/3/V9f9/1fX/f81ufb/BI7t/wCL7P8Ai+z/AIvs/wCL7P8Ai+z/AIvs/wCL7P8Ai+z/AIvs/wCL7P8Ai+z/AIvs7wCL7AgAwf8QAMH//wDB//8Awf//AMH//wDB//8Awf//AMH//wDB//8Awf//AMH//wDB//8Awf//CMT+/0Le+f9h6/b/Yev2/2Hr9v9h6/b/Yev2/2Hr9ngAAAAAAAAAAAAAAAAAAAAAAAAAAAAAAABX1/29V9f9/1fX/f9X1/3/V9f9/zy/+P8BjOz/AIvs/wCL7P8Ai+z/AIvs/wCL7P8Ai+z/AIvs/wCL7P8Ai+z/AIvs/wCL7P8Ai+z/AIvs7wCL7AgAwf8QAMH//wDB//8Awf//AMH//wDB//8Awf//AMH//wDB//8Awf//AMH//wDB//8Awf//AMH//wLC//9J4fj/Yev2/2Hr9v9h6/b/Yev2/2Hr9r0AAAAAAAAAAAAAAAAAAAAAAAAAAAAAAABX1/3YV9f9/1fX/f9X1/3/Vdb9/wyV7v8Ai+z/AIvs/wCL7P8Ai+z/AIvs/wCL7P8Ai+z/AIvs/wCL7P8Ai+z/AIvs/wCL7P8Ai+z/AIvs7wCL7AgAwf8QAMH//wDB//8Awf//AMH//wDB//8Awf//AMH//wDB//8Awf//AMH//wDB//8Awf//AMH//wDB//8Tyf3/YOv2/2Hr9v9h6/b/Yev2/2Hr9tkAAAAAAAAAAAAAAAAAAAAAAAAAAAAAAABX1/3bV9f9/1fX/f9X1/3/Rsj6/wCL7P8Ai+z/AIvs/wCL7P8Ai+z/AIvs/wCL7P8Ai+z/AIvs/wCL7P8Ai+z/AIvs/wCL7P8Ai+z/AIvs7wCL7AgAwf8QAMH//wDB//8Awf//AMH//wDB//8Awf//AMH//wDB//8Awf//AMH//wDB//8Awf//AMH//wDB//8Bwf//U+X3/2Hr9v9h6/b/Yev2/2Hr9tsAAAAAAAAAAAAAAAAAAAAAAAAAAAAAAABX1/3bV9f9/1fX/f9X1/3/PL/4/wCL7P8Ai+z/AIvs/wCL7P8Ai+z/AIvs/wCL7P8Ai+z/AIvs/wCL7P8Ai+z/AIvs/wCL7P8Ai+z/AIvs7wCL7AgAwf8QAMH//wDB//8Awf//AMH//wDB//8Awf//AMH//wDB//8Awf//AMH//wDB//8Awf//AMH//wDB//8Awf//SOD4/2Hr9v9h6/b/Yev2/2Hr9tsAAAAAAAAAAAAAAAAAAAAAAAAAAAAAAABX1/3bV9f9/1fX/f9X1/3/PL/4/wCL7P8Ai+z/AIvs/wCL7P8Ai+z/AIvs/wCL7P8Ai+z/AIvs/wCL7P8Ai+z/AIvs/wCL7P8Ai+z/AIvs7wCL7AgAwf8QAMH//wDB//8Awf//AMH//wDB//8Awf//AMH//wDB//8Awf//AMH//wDB//8Awf//AMH//wDB//8Awf//R+D4/2Hr9v9h6/b/Yev2/2Hr9tsAAAAAAAAAAAAAAAAAAAAAAAAAAAAAAABX1/3bV9f9/1fX/f9X1/3/PL/4/wCL7P8Ai+z/AIvs/wCL7P8Ai+z/AIvs/wCL7P8Ai+z/AIvs/wCL7P8Ai+z/AIvs/wCL7P8Ai+z/AIvs7wCL7AgAwf8PAMH//gDB//8Awf//AMH//wDB//8Awf//AMH//wDB//8Awf//AMH//wDB//8Awf//AMH//wDB//8Awf//R+D4/2Hr9v9h6/b/Yev2/2Hr9tsAAAAAAAAAAAAAAAAAAAAAAAAAAAAAAABX1/3bV9f9/1fX/f9X1/3/PL/4/wCL7P8Ai+z/AIvs/wCL7P8Ai+z/AIvs/wCL7P8Ai+z/AIvs/wCL7P8Ai+z/AIvs/wCL7P8Ai+z/AIvs4wCL7AMAwf8IAMH/8ADB//8Awf//AMH//wDB//8Awf//AMH//wDB//8Awf//AMH//wDB//8Awf//AMH//wDB//8Awf//R+D4/2Hr9v9h6/b/Yev2/2Hr9tsAAAAAAAAAAAAAAAAAAAAAAAAAAAAAAABX1/3bV9f9/1fX/f9X1/3/PL/4/wCL7P8Ai+z/AIvs/wCL7P8Ai+z/AIvs/wCL7P8Ai+z/AIvs/wCL7P8Ai+z/AIvs/wCL7P8Ai+z/AIvsqwAAAAAAAAAAAMH/vQDB//8Awf//AMH//wDB//8Awf//AMH//wDB//8Awf//AMH//wDB//8Awf//AMH//wDB//8Awf//R+D4/2Hr9v9h6/b/Yev2/2Hr9tsAAAAAAAAAAAAAAAAAAAAAAAAAAAAAAABX1/3bV9f9/1fX/f9X1/3/PL/4/wCL7P8Ai+z/AIvs/wCL7P8Ai+z/AIvs/wCL7P8Ai+z/AIvs/wCL7P8Ai+z/AIvs/wCL7P8Ai+z7AIvsPAAAAAAAAAAAAMH/TADB//0Awf//AMH//wDB//8Awf//AMH//wDB//8Awf//AMH//wDB//8Awf//AMH//wDB//8Awf//R+D4/2Hr9v9h6/b/Yev2/2Hr9tsAAAAAAAAAAAAAAAAAAAAAAAAAAAAAAABX1/3bV9f9/1fX/f9X1/3/PL/4/wCL7P8Ai+z/AIvs/wCL7P8Ai+z/AIvs/wCL7P8Ai+z/AIvs/wCL7P8Ai+z/AIvs/wCL7P8Ai+x9AIvsAHmYQw95mEMIAMH/AQDB/40Awf//AMH//wDB//8Awf//AMH//wDB//8Awf//AMH//wDB//8Awf//AMH//wDB//8Awf//R+D4/2Hr9v9h6/b/Yev2/2Hr9tsAAAAAAAAAAAAAAAAAAAAAAAAAAAAAAABX1/3bV9f9/1fX/f9X1/3/PL/4/wCL7P8Ai+z/AIvs/wCL7P8Ai+z/AIvs/wCL7P8Ai+z/AIvs/wCL7P8Ai+z/AIvs9QCL7GsAAAAAeZhDBHmYQ6l5mEOZeZhDAgDB/wEAwf98AMH/+ADB//8Awf//AMH//wDB//8Awf//AMH//wDB//8Awf//AMH//wDB//8Awf//R+D4/2Hr9v9h6/b/Yev2/2Hr9tsAAAAAAAAAAAAAAAAAAAAAAAAAAAAAAABX1/3bV9f9/1fX/f9X1/3/PL/4/wCL7P8Ai+z/AIvs/wCL7P8Ai+z/AIvs/wCL7P8Ai+z/AIvs/wCL7P4Ai+yuAIvsJQAAAAB5mEMKeZhDonmYQ/95mEP/eZhDlXmYQwcAAAAAAMH/LQDB/7cAwf//AMH//wDB//8Awf//AMH//wDB//8Awf//AMH//wDB//8Awf//R+D4/2Hr9v9h6/b/Yev2/2Hr9tsAAAAAAAAAAAAAAAAAAAAAAAAAAAAAAABX1/3bV9f9/1fX/f9X1/3/PL/4/wCL7P8Ai+z/AIvs/wCL7P8Ai+z/AIvs/wCL7P8Ai+z/AIvs0gCL7EQAi+wBAAAAAHmYQzp5mEPReZhD/3mYQ/95mEP/eZhD/3mYQ8h5mEMxAAAAAADB/wIAwf9OAMH/2QDB//8Awf//AMH//wDB//8Awf//AMH//wDB//8Awf//R+D4/2Hr9v9h6/b/Yev2/2Hr9tsAAAAAAAAAAAAAAAAAAAAAAAAAAAAAAABX1/3bV9f9/1fX/f9X1/3/PL/4/wCL7P8Ai+z/AIvs/wCL7P8Ai+z/AIvs/wCL7OoAi+xqAIvsBAAAAAB5mEMfeZhDpXmYQ/55mEP/eZhD/3mYQ/95mEP/eZhD/3mYQ/95mEP8eZhDm3mYQxgAAAAAAMH/BwDB/3QAwf/vAMH//wDB//8Awf//AMH//wDB//8Awf//R+D4/2Hr9v9h6/b/Yev2/2Hr9tsAAAAAAAAAAAAAAAAAAAAAAAAAAAAAAABX1/3bV9f9/1fX/f9X1/3/PL/4/wCL7P8Ai+z/AIvs/wCL7P8Ai+z4AIvskQCL7BQAAAAAeZhDC3mYQ315mEPyeZhD/3mYQ/95mEP/eZhD/3mYQ/95mEP/eZhD/3mYQ/95mEP/eZhD/3mYQ+55mENzeZhDCAAAAAAAwf8ZAMH/mwDB//sAwf//AMH//wDB//8Awf//R+D4/2Hr9v9h6/b/Yev2/2Hr9tsAAAAAAAAAAAAAAAAAAAAAAAAAAAAAAABX1/3bV9f9/1fX/f9X1/3/PL/4/wCL7P8Ai+z/AIvs/wCL7LgAi+wsAAAAAHmYQwF5mENXeZhD3nmYQ/95mEP/eZhD/3mYQ/95mEP/eZhD/3mYQ/95mEP/eZhD/3mYQ/95mEP/eZhD/3mYQ/95mEP/eZhD13mYQ0wAAAAAAMH/AADB/zMAwf/CAMH//wDB//8Awf//R+D4/2Hr9v9h6/b/Yev2/2Hr9tsAAAAAAAAAAAAAAAAAAAAAAAAAAAAAAABX1/3bV9f9/1fX/f9X1/3/PcD4/wCL7P8Ai+zYAIvsTQCL7AF5mEMAeZhDNHmYQ8F5mEP/eZhD/3mYQ/95mEP/eZhD/3mYQ/95mEP/eZhD/3mYQ/95mEP/eZhD/3mYQ/95mEP/eZhD/3mYQ/95mEP/eZhD/3mYQ/95mEO3eZhDK3mYQwAAwf8BAMH/VwDB/94Awf//SOD4/2Hr9v9h6/b/Yev2/2Hr9tsAAAAAAAAAAAAAAAAAAAAAAAAAAAAAAABX1/3bV9f9/1fX/f9X1/3/Ssv67gCL7HQAi+wIAAAAAHmYQxh5mEObeZhD+3mYQ/95mEP/eZhD/3mYQ/95mEP/eZhD/3mYQ/95mEP/eZhD/3mYQ/95mEP/eZhD/3mYQ/95mEP/eZhD/3mYQ/95mEP/eZhD/3mYQ/95mEP/eZhD+HmYQ5F5mEMTAAAAAADB/wsBwv9/Vub38mHr9v9h6/b/Yev2/2Hr9tsAAAAAAAAAAAAAAAAAAAAAAAAAAAAAAABX1/3XV9f9/1fX/f1X1/2aV9f9GQAAAAB5mEMGeZhDdHmYQ+55mEP/eZhD/3mYQ/95mEP/eZhD/3mYQ/95mEP/eZhD/3mYQ/95mEP/eZhD/3mYQ/95mEP/eZhD/3mYQ/95mEP/eZhD/3mYQ/95mEP/eZhD/3mYQ/95mEP/eZhD/3mYQ/95mEPpeZhDaXmYQwQAAAAAYev2H2Hr9qRh6/b+Yev2/2Hr9tcAAAAAAAAAAAAAAAAAAAAAAAAAAAAAAABX1/2zV9f9wFfX/TIAAAAA+80oAvTKKU2CnEHaeZhD/3mYQ/95mEP/eZhD/3mYQ/95mEP/eZhD/3mYQ/95mEP/eZhD/3mYQ/95mEP/eZhD/3mYQ/95mEP/eZhD/3mYQ/95mEP/eZhD/3mYQ/95mEP/eZhD/3mYQ/95mEP/eZhD/3mYQ/95mEP/eZhD/4KcQdL3yylD+80oAQAAAABh6/Y7Yev2yWHr9rMAAAAAAAAAAAAAAAAAAAAAAAAAAAAAAABX1/0bV9f9AgAAAAD7zSgs+80ot/vNKP7fwi7/jaA//3mYQ/95mEP/eZhD/3mYQ/95mEP/eZhD/3mYQ/95mEP/eZhD/3mYQ/95mEP/eZhD/3mYQ/95mEP/eZhD/3mYQ/95mEP/eZhD/3mYQ/95mEP/eZhD/3mYQ/95mEP/eZhD/3mYQ/95mEP/jaA//+DCLv/7zSj++80orfvNKCUAAAAAYev2BGHr9iAAAAAAAAAAAAAAAAAAAAAAAAAAAAAAAAAAAAAA+80oEvvNKJH7zSj5+80o//vNKP/7zSj/9ssp/7+1NP+Am0L/eZhD/3mYQ/95mEP/eZhD/3mYQ/95mEP/eZhD/3mYQ/95mEP/eZhD/3mYQ/95mEP/eZhD/3mYQ/95mEP/eZhD/3mYQ/95mEP/eZhD/3mYQ/95mEP/eZhD/4CbQf/AtTT/98sp//vNKP/7zSj/+80o//vNKPb7zSiG+80oDQAAAAAAAAAAAAAAAAAAAAAAAAAAAAAAAAAAAAAAAAAA+80oO/vNKPL7zSj/+80o//vNKP/7zSj/+80o//vNKP/vyCv/q6w5/3uZQ/95mEP/eZhD/3mYQ/95mEP/eZhD/3mYQ/95mEP/eZhD/3mYQ/95mEP/eZhD/3mYQ/95mEP/eZhD/3mYQ/95mEP/eZhD/3mYQ/97mUP/rK04/+/IKv/7zSj/+80o//vNKP/7zSj/+80o//vNKP/7zSjy+80oOQAAAAAAAAAAAAAAAAAAAAAAAAAAAAAAAAAAAAAAAAAAAAAAAPvNKDj7zSjZ+80o//vNKP/7zSj/+80o//vNKP/7zSj/+80o/+DCLv+YpT3/eZhD/3mYQ/95mEP/eZhD/3mYQ/95mEP/eZhD/3mYQ/95mEP/eZhD/3mYQ/95mEP/eZhD/3mYQ/95mEP/eZhD/5qlPP/hwy3/+80o//vNKP/7zSj/+80o//vNKP/7zSj/+80o//vNKNj7zSg4AAAAAAAAAAAAAAAAAAAAAAAAAAAAAAAAAAAAAAAAAAAAAAAAAAAAAAAAAAD7zSgJ+80odvvNKPH7zSj/+80o//vNKP/7zSj/+80o//vNKP/5zCj/zrsx/4ieQP95mEP/eZhD/3mYQ/95mEP/eZhD/3mYQ/95mEP/eZhD/3mYQ/95mEP/eZhD/3mYQ/+Kn0D/0Lsx//rNKP/7zSj/+80o//vNKP/7zSj/+80o//vNKP/7zSjw+80odPvNKAgAAAAAAAAAAAAAAAAAAAAAAAAAAAAAAAAAAAAAAAAAAAAAAAAAAAAAAAAAAAAAAAAAAAAAAAAAAPvNKBj7zSie+80o+/vNKP/7zSj/+80o//vNKP/7zSj/+80o//bLKf+6sjb/f5pC/3mYQ/95mEP/eZhD/3mYQ/95mEP/eZhD/3mYQ/95mEP/gJtB/7yzNf/3yyn/+80o//vNKP/7zSj/+80o//vNKP/7zSj/+80o+vvNKJv7zSgWAAAAAAAAAAAAAAAAAAAAAAAAAAAAAAAAAAAAAAAAAAAAAAAAAAAAAAAAAAAAAAAAAAAAAAAAAAAAAAAAAAAAAAAAAAD7zSgA+80oNvvNKMH7zSj/+80o//vNKP/7zSj/+80o//vNKP/7zSj/68Yr/6aqOv96mEP/eZhD/3mYQ/95mEP/eZhD/3uZQ/+qrDn/7Mcr//vNKP/7zSj/+80o//vNKP/7zSj/+80o//vNKP/7zSi++80oMgAAAAAAAAAAAAAAAAAAAAAAAAAAAAAAAAAAAAAAAAAAAAAAAAAAAAAAAAAAAAAAAAAAAAAAAAAAAAAAAAAAAAAAAAAAAAAAAAAAAAAAAAAAAAAAAPvNKAL7zShZ+80o4fvNKP/7zSj/+80o//vNKP/7zSj/+80o//vNKP/dwS7/qKs5/4+hPv+QoT7/qqw5/+DCLv/7zSj/+80o//vNKP/7zSj/+80o//vNKP/7zSj/+80o3vvNKFT7zSgCAAAAAAAAAAAAAAAAAAAAAAAAAAAAAAAAAAAAAAAAAAAAAAAAAAAAAAAAAAAAAAAAAAAAAAAAAAAAAAAAAAAAAAAAAAAAAAAAAAAAAAAAAAAAAAAAAAAAAAAAAAAAAAAA+80oCvvNKH/7zSjz+80o//vNKP/7zSj/+80o//vNKP/7zSj/+80o//vNKP/7zSj/+80o//vNKP/7zSj/+80o//vNKP/7zSj/+80o//vNKPL7zSh5+80oCQAAAAAAAAAAAAAAAAAAAAAAAAAAAAAAAAAAAAAAAAAAAAAAAAAAAAAAAAAAAAAAAAAAAAAAAAAAAAAAAAAAAAAAAAAAAAAAAAAAAAAAAAAAAAAAAAAAAAAAAAAAAAAAAAAAAAAAAAAAAAAAAAAAAAD7zSgg+80opvvNKP37zSj/+80o//vNKP/7zSj/+80o//vNKP/7zSj/+80o//vNKP/7zSj/+80o//vNKP/7zSj8+80ooPvNKBwAAAAAAAAAAAAAAAAAAAAAAAAAAAAAAAAAAAAAAAAAAAAAAAAAAAAAAAAAAAAAAAAAAAAAAAAAAAAAAAAAAAAAAAAAAAAAAAAAAAAAAAAAAAAAAAAAAAAAAAAAAAAAAAAAAAAAAAAAAAAAAAAAAAAAAAAAAAAAAAAAAAAA+80oAfvNKD37zSjN+80o//vNKP/7zSj/+80o//vNKP/7zSj/+80o//vNKP/7zSj/+80o//vNKMX7zSg3+80oAAAAAAAAAAAAAAAAAAAAAAAAAAAAAAAAAAAAAAAAAAAAAAAAAAAAAAAAAAAAAAAAAAAAAAAAAAAAAAAAAAAAAAAAAAAAAAAAAAAAAAAAAAAAAAAAAAAAAAAAAAAAAAAAAAAAAAAAAAAAAAAAAAAAAAAAAAAAAAAAAAAAAAAAAAAAAAAAAAAAAAD7zSgC+80oY/vNKOX7zSj/+80o//vNKP/7zSj/+80o//vNKP/7zSjg+80oW/vNKAIAAAAAAAAAAAAAAAAAAAAAAAAAAAAAAAAAAAAAAAAAAAAAAAAAAAAAAAAAAAAAAAAAAAAAAAAAAAAAAAAAAAAAAAAAAAAAAAAAAAAAAAAAAAAAAAAAAAAAAAAAAAAAAAAAAAAAAAAAAAAAAAAAAAAAAAAAAAAAAAAAAAAAAAAAAAAAAAAAAAAAAAAAAAAAAAAAAAAAAAAAAPvNKA/7zSh2+80oxvvNKOj7zSjn+80ow/vNKHD7zSgMAAAAAAAAAAAAAAAAAAAAAAAAAAAAAAAAAAAAAAAAAAAAAAAAAAAAAAAAAAAAAAAAAAAAAAAAAAAAAAAAAAAAAAAAAAAAAAAAAAAAAAAAAAAAAAAAAAAAAAAAAAAAAAAAAAAAAAAAAAAAAAAAAAAAAAAAAAAAAAAAAAAAAAAAAAAAAAAAAAAAAAAAAAAAAAAAAAAAAAAAAAAAAAAAAAAAAAAAAAAAAAAAAAAAAPvNKAT7zSgEAAAAAAAAAAAAAAAAAAAAAAAAAAAAAAAAAAAAAAAAAAAAAAAAAAAAAAAAAAAAAAAAAAAAAAAAAAAAAAAAAAAAAAAAAAAAAAAAAAAAAAAAAAAAAAAAAAAAAAAAAAD///w///8AAP//8A///wAA///AA///AAD//wAA//8AAP/+AAB//wAA//gAAB//AAD/4AAAB/8AAP+AAAAB/wAA/wAAAAD/AAD8AAAAAD8AAPgAAAAAHwAA8AAAAAAPAADgAAAAAAcAAOAAAAAABwAA4AAAAAAHAADgAAAAAAcAAOAAAAAABwAA4AAAAAAHAADgAAAAAAcAAOAAAAAABwAA4AAAAAAHAADgAAGAAAcAAOAAAYAABwAA4AAAAAAHAADgAAQAAAcAAOAACBAABwAA4AAQCAAHAADgAEACAAcAAOABAACABwAA4AQAAEAHAADgAAAAAAcAAOAgAAAEBwAA4IAAAAEHAADiAAAAAEcAAOQAAAAAJwAA8AAAAAAPAADwAAAAAA8AAPgAAAAAHwAA/AAAAAA/AAD/AAAAAP8AAP+AAAAD/wAA/+AAAAf/AAD/+AAAH/8AAP/+AAB//wAA//8AAP//AAD//8AD//8AAP//8A///wAA///+f///AAAoAAAAKAAAAFAAAAABACAAAAAAAAAZAAAAAAAAAAAAAAAAAAAAAAAAAAAAAAAAAAAAAAAAAAAAAAAAAAAAAAAAAAAAAAAAAAAAAAAAAAAAAAAAAAAAAAAAAAAAAAAAAAAAAAAAAAAAAAAAAAAAAAAAV9f9DVfX/QVh6/YIYev2DAAAAAAAAAAAAAAAAAAAAAAAAAAAAAAAAAAAAAAAAAAAAAAAAAAAAAAAAAAAAAAAAAAAAAAAAAAAAAAAAAAAAAAAAAAAAAAAAAAAAAAAAAAAAAAAAAAAAAAAAAAAAAAAAAAAAAAAAAAAAAAAAAAAAAAAAAAAAAAAAAAAAAAAAAAAAAAAAAAAAABX1/0eV9f9oFfX/fVX1/0kYev2OGHr9vNh6/aaYev2GgAAAAAAAAAAAAAAAAAAAAAAAAAAAAAAAAAAAAAAAAAAAAAAAAAAAAAAAAAAAAAAAAAAAAAAAAAAAAAAAAAAAAAAAAAAAAAAAAAAAAAAAAAAAAAAAAAAAAAAAAAAAAAAAAAAAAAAAAAAAAAAAAAAAAAAAAAAAAAAAFfX/QtX1/1/V9f99FfX/f9X1/3/V9f9JGHr9jhh6/b/Yev2/2Hr9vFh6/Z5Yev2CAAAAAAAAAAAAAAAAAAAAAAAAAAAAAAAAAAAAAAAAAAAAAAAAAAAAAAAAAAAAAAAAAAAAAAAAAAAAAAAAAAAAAAAAAAAAAAAAAAAAAAAAAAAAAAAAAAAAAAAAAAAAAAAAAAAAAAAAAAAV9f9AlfX/VhX1/3gV9f9/1fX/f9X1/3/V9f9/1fX/SRh6/Y4Yev2/2Hr9v9h6/b/Yev2/2Hr9txh6/ZTYev2AQAAAAAAAAAAAAAAAAAAAAAAAAAAAAAAAAAAAAAAAAAAAAAAAAAAAAAAAAAAAAAAAAAAAAAAAAAAAAAAAAAAAAAAAAAAAAAAAAAAAAAAAAAAAAAAAAAAAAAAAAAAV9f9MlfX/cFX1/3/V9f9/1fX/f9X1/3/V9f9/1fX/f9X1/0kYev2OGHr9v9h6/b/Yev2/2Hr9v9h6/b/Yev2/2Hr9r1h6/YvAAAAAAAAAAAAAAAAAAAAAAAAAAAAAAAAAAAAAAAAAAAAAAAAAAAAAAAAAAAAAAAAAAAAAAAAAAAAAAAAAAAAAAAAAAAAAAAAAAAAAAAAAABX1/0ZV9f9nVfX/f1X1/3/V9f9/1fX/f9X1/3/V9f9/z7B+P8VnfD/B5HtJAzG/jgdzvz/TOL4/2Hr9v9h6/b/Yev2/2Hr9v9h6/b/Yev2/GHr9plh6/YWAAAAAAAAAAAAAAAAAAAAAAAAAAAAAAAAAAAAAAAAAAAAAAAAAAAAAAAAAAAAAAAAAAAAAAAAAAAAAAAAAAAAAFfX/QhX1/11V9f971fX/f9X1/3/V9f9/1fX/f9X1/3/Scv6/xmh8f8Ai+z/AIvs/wCL7CQAwf84AMH//wHB//8k0fz/Vub3/2Hr9v9h6/b/Yev2/2Hr9v9h6/b/Yev27mHr9nJh6/YHAAAAAAAAAAAAAAAAAAAAAAAAAAAAAAAAAAAAAAAAAAAAAAAAAAAAAAAAAAAAAAAAV9f9AVfX/U5X1/3ZV9f9/1fX/f9X1/3/V9f9/1fX/f9R0vz/J630/wKN7P8Ai+z/AIvs/wCL7P8Ai+wkAMH/OADB//8Awf//AMH//wXD//8y1/r/Xen2/2Hr9v9h6/b/Yev2/2Hr9v9h6/b/Yev22GHr9kxh6/YBAAAAAAAAAAAAAAAAAAAAAAAAAAAAAAAAAAAAAAAAAAAAAAAAV9f9IFfX/bhX1/3/V9f9/1fX/f9X1/3/V9f9/1XW/f80uPb/CJLt/wCL7P8Ai+z/AIvs/wCL7P8Ai+z/AIvsJADB/zgAwf//AMH//wDB//8Awf//AMH//w3H/v9B3fn/YOv2/2Hr9v9h6/b/Yev2/2Hr9v9h6/b/Yev2t2Hr9h8AAAAAAAAAAAAAAAAAAAAAAAAAAAAAAAAAAAAAV9f9IFfX/eNX1/3/V9f9/1fX/f9X1/3/V9f9/0HE+f8Rme//AIvs/wCL7P8Ai+z/AIvs/wCL7P8Ai+z/AIvs/wCL7CQAwf84AMH//wDB//8Awf//AMH//wDB//8Awf//AMH//xjM/f9O4/j/Yev2/2Hr9v9h6/b/Yev2/2Hr9v9h6/bjYev2IAAAAAAAAAAAAAAAAAAAAAAAAAAAV9f9AVfX/bhX1/3/V9f9/1fX/f9X1/3/S837/x2k8v8Ai+z/AIvs/wCL7P8Ai+z/AIvs/wCL7P8Ai+z/AIvs/wCL7P8Ai+wkAMH/OADB//8Awf//AMH//wDB//8Awf//AMH//wDB//8Awf//AcH//ybS+/9Y5/f/Yev2/2Hr9v9h6/b/Yev2/2Hr9rhh6/YBAAAAAAAAAAAAAAAAAAAAAFfX/SRX1/3+V9f9/1fX/f9X1/3/PsH4/wSP7f8Ai+z/AIvs/wCL7P8Ai+z/AIvs/wCL7P8Ai+z/AIvs/wCL7P8Ai+z/AIvsJADB/zgAwf//AMH//wDB//8Awf//AMH//wDB//8Awf//AMH//wDB//8Awf//CMT+/0vh+P9h6/b/Yev2/2Hr9v9h6/b+Yev2JAAAAAAAAAAAAAAAAAAAAABX1/1XV9f9/1fX/f9X1/3/T9D8/waQ7f8Ai+z/AIvs/wCL7P8Ai+z/AIvs/wCL7P8Ai+z/AIvs/wCL7P8Ai+z/AIvs/wCL7CQAwf84AMH//wDB//8Awf//AMH//wDB//8Awf//AMH//wDB//8Awf//AMH//wDB//8Kxf7/XOn3/2Hr9v9h6/b/Yev2/2Hr9lcAAAAAAAAAAAAAAAAAAAAAV9f9YlfX/f9X1/3/V9f9/zG29v8Ai+z/AIvs/wCL7P8Ai+z/AIvs/wCL7P8Ai+z/AIvs/wCL7P8Ai+z/AIvs/wCL7P8Ai+wkAMH/OADB//8Awf//AMH//wDB//8Awf//AMH//wDB//8Awf//AMH//wDB//8Awf//AMH//zzb+f9h6/b/Yev2/2Hr9v9h6/ZiAAAAAAAAAAAAAAAAAAAAAFfX/WJX1/3/V9f9/1fX/f8kq/P/AIvs/wCL7P8Ai+z/AIvs/wCL7P8Ai+z/AIvs/wCL7P8Ai+z/AIvs/wCL7P8Ai+z/AIvsJADB/zgAwf//AMH//wDB//8Awf//AMH//wDB//8Awf//AMH//wDB//8Awf//AMH//wDB//8s1Pv/Yev2/2Hr9v9h6/b/Yev2YgAAAAAAAAAAAAAAAAAAAABX1/1iV9f9/1fX/f9X1/3/I6rz/wCL7P8Ai+z/AIvs/wCL7P8Ai+z/AIvs/wCL7P8Ai+z/AIvs/wCL7P8Ai+z/AIvs/wCL7CQAwf84AMH//wDB//8Awf//AMH//wDB//8Awf//AMH//wDB//8Awf//AMH//wDB//8Awf//K9T7/2Hr9v9h6/b/Yev2/2Hr9mIAAAAAAAAAAAAAAAAAAAAAV9f9YlfX/f9X1/3/V9f9/yOq8/8Ai+z/AIvs/wCL7P8Ai+z/AIvs/wCL7P8Ai+z/AIvs/wCL7P8Ai+z/AIvs/wCL7P8Ai+wiAMH/MwDB//8Awf//AMH//wDB//8Awf//AMH//wDB//8Awf//AMH//wDB//8Awf//AMH//yvU+/9h6/b/Yev2/2Hr9v9h6/ZiAAAAAAAAAAAAAAAAAAAAAFfX/WJX1/3/V9f9/1fX/f8jqvP/AIvs/wCL7P8Ai+z/AIvs/wCL7P8Ai+z/AIvs/wCL7P8Ai+z/AIvs/wCL7P8Ai+z1AIvsCwDB/xQAwf/7AMH//wDB//8Awf//AMH//wDB//8Awf//AMH//wDB//8Awf//AMH//wDB//8r1Pv/Yev2/2Hr9v9h6/b/Yev2YgAAAAAAAAAAAAAAAAAAAABX1/1iV9f9/1fX/f9X1/3/I6rz/wCL7P8Ai+z/AIvs/wCL7P8Ai+z/AIvs/wCL7P8Ai+z/AIvs/wCL7P8Ai+z/AIvspQAAAAAAwf8AAMH/tQDB//8Awf//AMH//wDB//8Awf//AMH//wDB//8Awf//AMH//wDB//8Awf//K9T7/2Hr9v9h6/b/Yev2/2Hr9mIAAAAAAAAAAAAAAAAAAAAAV9f9YlfX/f9X1/3/V9f9/yOq8/8Ai+z/AIvs/wCL7P8Ai+z/AIvs/wCL7P8Ai+z/AIvs/wCL7P8Ai+z/AIvs4ACL7Bl5mEMKeZhDBQDB/yIAwf/mAMH//wDB//8Awf//AMH//wDB//8Awf//AMH//wDB//8Awf//AMH//yvU+/9h6/b/Yev2/2Hr9v9h6/ZiAAAAAAAAAAAAAAAAAAAAAFfX/WJX1/3/V9f9/1fX/f8jqvP/AIvs/wCL7P8Ai+z/AIvs/wCL7P8Ai+z/AIvs/wCL7P8Ai+z/AIvswQCL7Bx5mEMDeZhDoHmYQ5N5mEMCAMH/JADB/8kAwf//AMH//wDB//8Awf//AMH//wDB//8Awf//AMH//wDB//8r1Pv/Yev2/2Hr9v9h6/b/Yev2YgAAAAAAAAAAAAAAAAAAAABX1/1iV9f9/1fX/f9X1/3/I6rz/wCL7P8Ai+z/AIvs/wCL7P8Ai+z/AIvs/wCL7P8Ai+ziAIvsWwCL7AN5mEMOeZhDpnmYQ/95mEP/eZhDnHmYQwsAwf8EAMH/YwDB/+cAwf//AMH//wDB//8Awf//AMH//wDB//8Awf//K9T7/2Hr9v9h6/b/Yev2/2Hr9mIAAAAAAAAAAAAAAAAAAAAAV9f9YlfX/f9X1/3/V9f9/yOq8/8Ai+z/AIvs/wCL7P8Ai+z/AIvs/wCL7PUAi+yCAIvsDHmYQwJ5mENZeZhD4XmYQ/95mEP/eZhD/3mYQ/95mEPceZhDUXmYQwEAwf8QAMH/igDB//gAwf//AMH//wDB//8Awf//AMH//yvU+/9h6/b/Yev2/2Hr9v9h6/ZiAAAAAAAAAAAAAAAAAAAAAFfX/WJX1/3/V9f9/1fX/f8jqvP/AIvs/wCL7P8Ai+z/AIvs/QCL7KkAi+wgAAAAAHmYQzV5mEPDeZhD/3mYQ/95mEP/eZhD/3mYQ/95mEP/eZhD/3mYQ/95mEO7eZhDLgAAAAAAwf8mAMH/sQDB//4Awf//AMH//wDB//8r1Pv/Yev2/2Hr9v9h6/b/Yev2YgAAAAAAAAAAAAAAAAAAAABX1/1iV9f9/1fX/f9X1/3/I6rz/wCL7P8Ai+z/AIvszgCL7D8Ai+wAeZhDGXmYQ555mEP7eZhD/3mYQ/95mEP/eZhD/3mYQ/95mEP/eZhD/3mYQ/95mEP/eZhD/3mYQ/p5mEOVeZhDFADB/wEAwf9HAMH/1QDB//8Awf//K9T7/2Hr9v9h6/b/Yev2/2Hr9mIAAAAAAAAAAAAAAAAAAAAAV9f9YlfX/f9X1/3/V9f9/yWr8/8Ai+znAIvsZQCL7AN5mEMJeZhDd3mYQ/F5mEP/eZhD/3mYQ/95mEP/eZhD/3mYQ/95mEP/eZhD/3mYQ/95mEP/eZhD/3mYQ/95mEP/eZhD/3mYQ+15mENueZhDBgDB/wUAwf9tAMH/7C3V+/9h6/b/Yev2/2Hr9v9h6/ZiAAAAAAAAAAAAAAAAAAAAAFfX/WJX1/3/V9f9/1fX/fg6vveMAIvsEXmYQwF5mENQeZhD2nmYQ/95mEP/eZhD/3mYQ/95mEP/eZhD/3mYQ/95mEP/eZhD/3mYQ/95mEP/eZhD/3mYQ/95mEP/eZhD/3mYQ/95mEP/eZhD/3mYQ9R5mENHeZhDAADB/xRE3/mVYev2+mHr9v9h6/b/Yev2YgAAAAAAAAAAAAAAAAAAAABX1/1TV9f9/lfX/bNX1/0mAAAAAIWdQS15mEO7eZhD/nmYQ/95mEP/eZhD/3mYQ/95mEP/eZhD/3mYQ/95mEP/eZhD/3mYQ/95mEP/eZhD/3mYQ/95mEP/eZhD/3mYQ/95mEP/eZhD/3mYQ/95mEP/eZhD/nmYQ7KDnEEmYev2AGHr9i1h6/a7Yev2/2Hr9lQAAAAAAAAAAAAAAAAAAAAAV9f9F1fX/UhX1/0A+80oFfvNKJTmxCz6i58//3mYQ/95mEP/eZhD/3mYQ/95mEP/eZhD/3mYQ/95mEP/eZhD/3mYQ/95mEP/eZhD/3mYQ/95mEP/eZhD/3mYQ/95mEP/eZhD/3mYQ/95mEP/eZhD/3mYQ/+Lnz//5sQs+PvNKIv7zSgQYev2AWHr9lBh6/YYAAAAAAAAAAAAAAAAAAAAAAAAAAD7zSgF+80obPvNKOz7zSj/+80o//XKKf+6sjb/fppC/3mYQ/95mEP/eZhD/3mYQ/95mEP/eZhD/3mYQ/95mEP/eZhD/3mYQ/95mEP/eZhD/3mYQ/95mEP/eZhD/3mYQ/95mEP/eZhD/36aQv+6szX/9csp//vNKP/7zSj/+80o5/vNKGT7zSgDAAAAAAAAAAAAAAAAAAAAAAAAAAAAAAAA+80oE/vNKNP7zSj/+80o//vNKP/7zSj/+80o/+vHK/+mqjr/ephD/3mYQ/95mEP/eZhD/3mYQ/95mEP/eZhD/3mYQ/95mEP/eZhD/3mYQ/95mEP/eZhD/3mYQ/95mEP/eplD/6erOv/sxyv/+80o//vNKP/7zSj/+80o//vNKP/7zSjT+80oEgAAAAAAAAAAAAAAAAAAAAAAAAAAAAAAAAAAAAD7zSgS+80onvvNKPz7zSj/+80o//vNKP/7zSj/+80o/9vAL/+Toz7/eZhD/3mYQ/95mEP/eZhD/3mYQ/95mEP/eZhD/3mYQ/95mEP/eZhD/3mYQ/95mEP/lKM9/93BLv/7zSj/+80o//vNKP/7zSj/+80o//vNKPz7zSic+80oEgAAAAAAAAAAAAAAAAAAAAAAAAAAAAAAAAAAAAAAAAAAAAAAAPvNKAD7zSg1+80oxPvNKP/7zSj/+80o//vNKP/7zSj/+cwo/8m4Mv+FnUD/eZhD/3mYQ/95mEP/eZhD/3mYQ/95mEP/eZhD/3mYQ/+GnUD/y7ky//rMKP/7zSj/+80o//vNKP/7zSj/+80o//vNKMH7zSg0+80oAAAAAAAAAAAAAAAAAAAAAAAAAAAAAAAAAAAAAAAAAAAAAAAAAAAAAAAAAAAAAAAAAPvNKAL7zSha+80o4fvNKP/7zSj/+80o//vNKP/7zSj/88oq/7WwN/99mkL/eZhD/3mYQ/95mEP/eZhD/36aQv+3sTb/9Mop//vNKP/7zSj/+80o//vNKP/7zSj/+80o3vvNKFf7zSgBAAAAAAAAAAAAAAAAAAAAAAAAAAAAAAAAAAAAAAAAAAAAAAAAAAAAAAAAAAAAAAAAAAAAAAAAAAAAAAAAAAAAAPvNKAv7zSiB+80o9fvNKP/7zSj/+80o//vNKP/7zSj/6MUs/6ytOf+NoD//jaA//62tOP/pxiz/+80o//vNKP/7zSj/+80o//vNKP/7zSj0+80offvNKAoAAAAAAAAAAAAAAAAAAAAAAAAAAAAAAAAAAAAAAAAAAAAAAAAAAAAAAAAAAAAAAAAAAAAAAAAAAAAAAAAAAAAAAAAAAAAAAAAAAAAAAAAAAPvNKB77zSio+80o/fvNKP/7zSj/+80o//vNKP/7zSj/+80o//vNKP/7zSj/+80o//vNKP/7zSj/+80o//vNKPz7zSij+80oHAAAAAAAAAAAAAAAAAAAAAAAAAAAAAAAAAAAAAAAAAAAAAAAAAAAAAAAAAAAAAAAAAAAAAAAAAAAAAAAAAAAAAAAAAAAAAAAAAAAAAAAAAAAAAAAAAAAAAAAAAAA+80oAPvNKD77zSjM+80o//vNKP/7zSj/+80o//vNKP/7zSj/+80o//vNKP/7zSj/+80o//vNKMf7zSg5+80oAAAAAAAAAAAAAAAAAAAAAAAAAAAAAAAAAAAAAAAAAAAAAAAAAAAAAAAAAAAAAAAAAAAAAAAAAAAAAAAAAAAAAAAAAAAAAAAAAAAAAAAAAAAAAAAAAAAAAAAAAAAAAAAAAAAAAAAAAAAA+80oA/vNKGT7zSjn+80o//vNKP/7zSj/+80o//vNKP/7zSj/+80o4/vNKF37zSgCAAAAAAAAAAAAAAAAAAAAAAAAAAAAAAAAAAAAAAAAAAAAAAAAAAAAAAAAAAAAAAAAAAAAAAAAAAAAAAAAAAAAAAAAAAAAAAAAAAAAAAAAAAAAAAAAAAAAAAAAAAAAAAAAAAAAAAAAAAAAAAAAAAAAAAAAAAAAAAAA+80oD/vNKIb7zSjl+80o//vNKP/7zSji+80of/vNKAwAAAAAAAAAAAAAAAAAAAAAAAAAAAAAAAAAAAAAAAAAAAAAAAAAAAAAAAAAAAAAAAAAAAAAAAAAAAAAAAAAAAAAAAAAAAAAAAAAAAAAAAAAAAAAAAAAAAAAAAAAAAAAAAAAAAAAAAAAAAAAAAAAAAAAAAAAAAAAAAAAAAAAAAAAAAAAAAAAAAAA+80oBPvNKBn7zSgY+80oAwAAAAAAAAAAAAAAAAAAAAAAAAAAAAAAAAAAAAAAAAAAAAAAAAAAAAAAAAAAAAAAAAAAAAAAAAAAAAAAAAAAAAAAAAAAAAAAAP//w///AAAA//8A//8AAAD//AA//wAAAP/wAA//AAAA/+AAB/8AAAD/gAAB/wAAAP4AAAB/AAAA+AAAAB8AAADwAAAADwAAAOAAAAAHAAAAwAAAAAMAAADAAAAAAwAAAMAAAAADAAAAwAAAAAMAAADAAAAAAwAAAMAAAAADAAAAwAAAAAMAAADAAAAAAwAAAMAAEAADAAAAwAAAAAMAAADAAAAAAwAAAMAAAAADAAAAwAAAAAMAAADABAAgAwAAAMAAAAADAAAAwAAAAAMAAADAAAAAAwAAAMIAAAADAAAAwAAAAAMAAADgAAAABwAAAOAAAAAHAAAA8AAAAA8AAAD4AAAAHwAAAP4AAAB/AAAA/4AAAf8AAAD/4AAH/wAAAP/wAA//AAAA//wAP/8AAAD//wD//wAAAP//w///AAAAKAAAACAAAABAAAAAAQAgAAAAAAAAEAAAAAAAAAAAAAAAAAAAAAAAAAAAAAAAAAAAAAAAAAAAAAAAAAAAAAAAAAAAAAAAAAAAAAAAAAAAAAAAAAAAAAAAAAAAAAAAAAAAV9f9H1fX/Rhh6/YcYev2HAAAAAAAAAAAAAAAAAAAAAAAAAAAAAAAAAAAAAAAAAAAAAAAAAAAAAAAAAAAAAAAAAAAAAAAAAAAAAAAAAAAAAAAAAAAAAAAAAAAAAAAAAAAAAAAAAAAAAAAAAAAAAAAAAAAAAAAAAAAV9f9GlfX/aFX1/39V9f9UGHr9mBh6/b8Yev2nGHr9hcAAAAAAAAAAAAAAAAAAAAAAAAAAAAAAAAAAAAAAAAAAAAAAAAAAAAAAAAAAAAAAAAAAAAAAAAAAAAAAAAAAAAAAAAAAAAAAAAAAAAAAAAAAAAAAAAAAAAAV9f9CFfX/XpX1/3zV9f9/1fX/f9X1/1QYev2YGHr9v9h6/b/Yev28WHr9nVh6/YHAAAAAAAAAAAAAAAAAAAAAAAAAAAAAAAAAAAAAAAAAAAAAAAAAAAAAAAAAAAAAAAAAAAAAAAAAAAAAAAAAAAAAAAAAAAAAAAAV9f9AFfX/VNX1/3eV9f9/1fX/f9X1/3/V9f9/1fX/VBh6/ZgYev2/2Hr9v9h6/b/Yev2/2Hr9tth6/ZPAAAAAAAAAAAAAAAAAAAAAAAAAAAAAAAAAAAAAAAAAAAAAAAAAAAAAAAAAAAAAAAAAAAAAAAAAAAAAAAAAAAAAFfX/S9X1/2/V9f9/1fX/f9X1/3/V9f9/0nL+v8bo/H/B5HtUAzG/mAk0fz/Vub3/2Hr9v9h6/b/Yev2/2Hr9v9h6/a8Yev2LAAAAAAAAAAAAAAAAAAAAAAAAAAAAAAAAAAAAAAAAAAAAAAAAAAAAAAAAAAAAAAAAFfX/RRX1/2XV9f9/FfX/f9X1/3/V9f9/1HS/P8mrPP/Aozs/wCL7P8Ai+xQAMH/YADB//8Ew///MNb7/13p9v9h6/b/Yev2/2Hr9v9h6/b8Yev2lWHr9hQAAAAAAAAAAAAAAAAAAAAAAAAAAAAAAAAAAAAAAAAAAFfX/QNX1/1wV9f971fX/f9X1/3/V9f9/1bW/f8zuPb/B5Ht/wCL7P8Ai+z/AIvs/wCL7FAAwf9gAMH//wDB//8Awf//C8b+/z/c+f9h6/b/Yev2/2Hr9v9h6/b/Yev27mHr9m9h6/YDAAAAAAAAAAAAAAAAAAAAAAAAAABX1/0EV9f9s1fX/f9X1/3/V9f9/1fX/f9Bw/n/D5nv/wCL7P8Ai+z/AIvs/wCL7P8Ai+z/AIvsUADB/2AAwf//AMH//wDB//8Awf//AMH//xbK/f9N4vj/Yev2/2Hr9v9h6/b/Yev2/2Hr9rNh6/YDAAAAAAAAAAAAAAAAAAAAAFfX/W1X1/3/V9f9/1fX/f9Mzvv/HKPx/wCL7P8Ai+z/AIvs/wCL7P8Ai+z/AIvs/wCL7P8Ai+xQAMH/YADB//8Awf//AMH//wDB//8Awf//AMH//wHB//8k0fz/WOf3/2Hr9v9h6/b/Yev2/2Hr9m0AAAAAAAAAAAAAAAAAAAAAV9f9yFfX/f9X1/3/S8z7/weR7f8Ai+z/AIvs/wCL7P8Ai+z/AIvs/wCL7P8Ai+z/AIvs/wCL7FAAwf9gAMH//wDB//8Awf//AMH//wDB//8Awf//AMH//wDB//8Kxf7/Vub3/2Hr9v9h6/b/Yev2yAAAAAAAAAAAAAAAAAAAAABX1/3mV9f9/1fX/f8fpvL/AIvs/wCL7P8Ai+z/AIvs/wCL7P8Ai+z/AIvs/wCL7P8Ai+z/AIvsUADB/2AAwf//AMH//wDB//8Awf//AMH//wDB//8Awf//AMH//wDB//8n0vv/Yev2/2Hr9v9h6/bmAAAAAAAAAAAAAAAAAAAAAFfX/edX1/3/V9f9/wyW7v8Ai+z/AIvs/wCL7P8Ai+z/AIvs/wCL7P8Ai+z/AIvs/wCL7P8Ai+xQAMH/YADB//8Awf//AMH//wDB//8Awf//AMH//wDB//8Awf//AMH//xHI/f9h6/b/Yev2/2Hr9ucAAAAAAAAAAAAAAAAAAAAAV9f951fX/f9X1/3/C5Xu/wCL7P8Ai+z/AIvs/wCL7P8Ai+z/AIvs/wCL7P8Ai+z/AIvs/wCL7FAAwf9gAMH//wDB//8Awf//AMH//wDB//8Awf//AMH//wDB//8Awf//D8j+/2Hr9v9h6/b/Yev25wAAAAAAAAAAAAAAAAAAAABX1/3nV9f9/1fX/f8Lle7/AIvs/wCL7P8Ai+z/AIvs/wCL7P8Ai+z/AIvs/wCL7P8Ai+z/AIvsSADB/1QAwf//AMH//wDB//8Awf//AMH//wDB//8Awf//AMH//wDB//8PyP7/Yev2/2Hr9v9h6/bnAAAAAAAAAAAAAAAAAAAAAFfX/edX1/3/V9f9/wuV7v8Ai+z/AIvs/wCL7P8Ai+z/AIvs/wCL7P8Ai+z/AIvs/wCL7PgAi+wUAMH/HADB//sAwf//AMH//wDB//8Awf//AMH//wDB//8Awf//AMH//w/I/v9h6/b/Yev2/2Hr9ucAAAAAAAAAAAAAAAAAAAAAV9f951fX/f9X1/3/C5Xu/wCL7P8Ai+z/AIvs/wCL7P8Ai+z/AIvs/wCL7P8Ai+z/AIvsdHmYQwZ5mEMDAMH/gADB//8Awf//AMH//wDB//8Awf//AMH//wDB//8Awf//D8j+/2Hr9v9h6/b/Yev25wAAAAAAAAAAAAAAAAAAAABX1/3nV9f9/1fX/f8Lle7/AIvs/wCL7P8Ai+z/AIvs/wCL7P8Ai+z/AIvs8ACL7GZ5mEMCeZhDmXmYQ489raEBAMH/cADB//MAwf//AMH//wDB//8Awf//AMH//wDB//8PyP7/Yev2/2Hr9v9h6/bnAAAAAAAAAAAAAAAAAAAAAFfX/edX1/3/V9f9/wuV7v8Ai+z/AIvs/wCL7P8Ai+z/AIvs/QCL7JoAi+wWeZhDGnmYQ7F5mEP/eZhD/3mYQ6l5mEMWAMH/GgDB/6EAwf/+AMH//wDB//8Awf//AMH//w/I/v9h6/b/Yev2/2Hr9ucAAAAAAAAAAAAAAAAAAAAAV9f951fX/f9X1/3/C5Xu/wCL7P8Ai+z/AIvs/wCL7MEAi+wxeZhDCHmYQ3l5mEPzeZhD/3mYQ/95mEP/eZhD/3mYQ/B5mENyeZhDBgDB/zcAwf/HAMH//wDB//8Awf//D8j+/2Hr9v9h6/b/Yev25wAAAAAAAAAAAAAAAAAAAABX1/3nV9f9/1fX/f8Lle7/AIvs/wCL7OAAi+xWKI+0AXmYQ1J5mEPdeZhD/3mYQ/95mEP/eZhD/3mYQ/95mEP/eZhD/3mYQ/95mEPZeZhDSwDB/wEAwf9cAMH/5ADB//8PyP7/Yev2/2Hr9v9h6/bnAAAAAAAAAAAAAAAAAAAAAFfX/edX1/3/V9f9/w6X7/QAi+x9AIvsCXmYQy55mEO+eZhD/3mYQ/95mEP/eZhD/3mYQ/95mEP/eZhD/3mYQ/95mEP/eZhD/3mYQ/95mEP/eZhDt3mYQykAwf8LAMH/gxPJ/fdh6/b/Yev2/2Hr9ucAAAAAAAAAAAAAAAAAAAAAV9f95VfX/f5X1/2kObz3HHmYQxR5mEOXeZhD/HmYQ/95mEP/eZhD/3mYQ/95mEP/eZhD/3mYQ/95mEP/eZhD/3mYQ/95mEP/eZhD/3mYQ/95mEP/eZhD+nmYQ5B5mEMRQ975IGHr9qth6/b/Yev25QAAAAAAAAAAAAAAAAAAAABX1/2PV9f9OfvNKAX5zChwjqE/73mYQ/95mEP/eZhD/3mYQ/95mEP/eZhD/3mYQ/95mEP/eZhD/3mYQ/95mEP/eZhD/3mYQ/95mEP/eZhD/3mYQ/95mEP/eZhD/4+hPuv6zSho+80oA2Hr9j9h6/aUAAAAAAAAAAAAAAAAAAAAAAAAAAD7zShI+80o1/vNKP/0yin/tLA3/3yZQv95mEP/eZhD/3mYQ/95mEP/eZhD/3mYQ/95mEP/eZhD/3mYQ/95mEP/eZhD/3mYQ/95mEP/eZhD/3yZQv+1sDf/9Mop//vNKP/7zSjR+80oQgAAAAAAAAAAAAAAAAAAAAAAAAAA+80oAfvNKJ77zSj/+80o//vNKP/7zSj/6MUs/6CoO/95mEP/eZhD/3mYQ/95mEP/eZhD/3mYQ/95mEP/eZhD/3mYQ/95mEP/eZhD/3mYQ/+hqDv/6cYs//vNKP/7zSj/+80o//vNKP/7zSieAAAAAAAAAAAAAAAAAAAAAAAAAAAAAAAA+80oAfvNKFr7zSjj+80o//vNKP/7zSj/+80o/9e+L/+OoT//eZhD/3mYQ/95mEP/eZhD/3mYQ/95mEP/eZhD/3mYQ/+PoT7/2L8v//vNKP/7zSj/+80o//vNKP/7zSji+80oWPvNKAAAAAAAAAAAAAAAAAAAAAAAAAAAAAAAAAAAAAAAAAAAAPvNKAv7zSiB+80o9vvNKP/7zSj/+80o//nMKP/DtjT/gpxB/3mYQ/95mEP/eZhD/3mYQ/+DnEH/xbcz//nMKP/7zSj/+80o//vNKP/7zSj1+80of/vNKAoAAAAAAAAAAAAAAAAAAAAAAAAAAAAAAAAAAAAAAAAAAAAAAAAAAAAAAAAAAAAAAAD7zSgf+80oqfvNKP/7zSj/+80o//vNKP/xySr/s7A3/4ufP/+MoD//tLA3//LJKv/7zSj/+80o//vNKP/7zSj++80opfvNKB0AAAAAAAAAAAAAAAAAAAAAAAAAAAAAAAAAAAAAAAAAAAAAAAAAAAAAAAAAAAAAAAAAAAAAAAAAAAAAAAAAAAAA+80oPfvNKM37zSj/+80o//vNKP/7zSj/+80o//vNKP/7zSj/+80o//vNKP/7zSj/+80oyvvNKDoAAAAAAAAAAAAAAAAAAAAAAAAAAAAAAAAAAAAAAAAAAAAAAAAAAAAAAAAAAAAAAAAAAAAAAAAAAAAAAAAAAAAAAAAAAAAAAAAAAAAA+80oAvvNKGT7zSjp+80o//vNKP/7zSj/+80o//vNKP/7zSj/+80o5fvNKF/7zSgCAAAAAAAAAAAAAAAAAAAAAAAAAAAAAAAAAAAAAAAAAAAAAAAAAAAAAAAAAAAAAAAAAAAAAAAAAAAAAAAAAAAAAAAAAAAAAAAAAAAAAAAAAAAAAAAAAAAAAPvNKA77zSiL+80o9/vNKP/7zSj/+80o9fvNKIX7zSgMAAAAAAAAAAAAAAAAAAAAAAAAAAAAAAAAAAAAAAAAAAAAAAAAAAAAAAAAAAAAAAAAAAAAAAAAAAAAAAAAAAAAAAAAAAAAAAAAAAAAAAAAAAAAAAAAAAAAAAAAAAAAAAAAAAAAAAAAAAD7zSgQ+80oQ/vNKEL7zSgOAAAAAAAAAAAAAAAAAAAAAAAAAAAAAAAAAAAAAAAAAAAAAAAAAAAAAAAAAAAAAAAAAAAAAAAAAAD//D////AP///AA///AAH//gAAf/gAAB/gAAAHwAAAA8AAAAPAAAADwAAAA8AAAAPAAAADwAAAA8AAAAPAAAADwAAAA8AAAAPAAAADwAAAA8AAAAPAAAADwAAAA+AAAAfAAAAH4AAAB/gAAB/+AAB//4AB///AA///8A////w//ygAAAAYAAAAMAAAAAEAIAAAAAAAAAkAAAAAAAAAAAAAAAAAAAAAAAAAAAAAAAAAAAAAAAAAAAAAAAAAAAAAAAAAAAAAAAAAAAAAAAAAAAAAV9f9LlfX/Tdh6/Y8Yev2KwAAAAAAAAAAAAAAAAAAAAAAAAAAAAAAAAAAAAAAAAAAAAAAAAAAAAAAAAAAAAAAAAAAAAAAAAAAAAAAAAAAAAAAAAAAAAAAAFfX/RhX1/2dV9f9/FfX/Xxh6/aHYev2/GHr9plh6/YWAAAAAAAAAAAAAAAAAAAAAAAAAAAAAAAAAAAAAAAAAAAAAAAAAAAAAAAAAAAAAAAAAAAAAAAAAABX1/0HV9f9dVfX/fBX1/3/V9f9/1fX/Xxh6/aHYev2/2Hr9v9h6/bvYev2cmHr9gYAAAAAAAAAAAAAAAAAAAAAAAAAAAAAAAAAAAAAAAAAAAAAAAAAAAAAV9f9AFfX/U5X1/3bV9f9/1fX/f9R0fz/Jazz/wiS7nwMxv6HLtX7/1zp9v9h6/b/Yev2/2Hr9tlh6/ZMYev2AAAAAAAAAAAAAAAAAAAAAAAAAAAAAAAAAAAAAABX1/0rV9f9ulfX/f9X1/3/Vtb9/zO39v8Hke3/AIvs/wCL7HwAwf+HAMH//wrF/v892/n/YOv2/2Hr9v9h6/b/Yev2uGHr9isAAAAAAAAAAAAAAAAAAAAAAAAAAFfX/WlX1/36V9f9/1fX/f9Aw/j/D5jv/wCL7P8Ai+z/AIvs/wCL7HwAwf+HAMH//wDB//8Awf//FMr9/0vh+P9h6/b/Yev2/2Hr9vph6/ZoAAAAAAAAAAAAAAAAV9f9JFfX/ftX1/3/TtD7/xuj8f8Ai+z/AIvs/wCL7P8Ai+z/AIvs/wCL7HwAwf+HAMH//wDB//8Awf//AMH//wDB//8i0Pz/Wej3/2Hr9v9h6/b7Yev2JAAAAAAAAAAAV9f9ZVfX/f9X1/3/Epvw/wCL7P8Ai+z/AIvs/wCL7P8Ai+z/AIvs/wCL7HwAwf+HAMH//wDB//8Awf//AMH//wDB//8Awf//GMv9/2Hr9v9h6/b/Yev2ZQAAAAAAAAAAV9f9blfX/f9Mzfv/AIvs/wCL7P8Ai+z/AIvs/wCL7P8Ai+z/AIvs/wCL7HwAwf+HAMH//wDB//8Awf//AMH//wDB//8Awf//AMH//1fn9/9h6/b/Yev2bgAAAAAAAAAAV9f9blfX/f9Jy/r/AIvs/wCL7P8Ai+z/AIvs/wCL7P8Ai+z/AIvs/wCL7HwAwf+HAMH//wDB//8Awf//AMH//wDB//8Awf//AMH//1Tl9/9h6/b/Yev2bgAAAAAAAAAAV9f9blfX/f9Jy/r/AIvs/wCL7P8Ai+z/AIvs/wCL7P8Ai+z/AIvs/wCL7GQAwf9tAMH//wDB//8Awf//AMH//wDB//8Awf//AMH//1Tl9/9h6/b/Yev2bgAAAAAAAAAAV9f9blfX/f9Jy/r/AIvs/wCL7P8Ai+z/AIvs/wCL7P8Ai+z/AIvs3hiOyxMLve4VAMH/4gDB//8Awf//AMH//wDB//8Awf//AMH//1Tl9/9h6/b/Yev2bgAAAAAAAAAAV9f9blfX/f9Jy/r/AIvs/wCL7P8Ai+z/AIvs/wCL7P8Ai+yyC4zdHXmYQ5N5mEOMB7/1IQDB/7cAwf//AMH//wDB//8Awf//AMH//1Tl9/9h6/b/Yev2bgAAAAAAAAAAV9f9blfX/f9Jy/r/AIvs/wCL7P8Ai+z/AIvs1ACL7Ed5mEQxeZhDwnmYQ/95mEP/eZhDvXiYRS0Awf9LAMH/2ADB//8Awf//AMH//1Tl9/9h6/b/Yev2bgAAAAAAAAAAV9f9blfX/f9Jy/r/AIvs/wCL7O0Ai+xtYpZjG3mYQ5l5mEP8eZhD/3mYQ/95mEP/eZhD/3mYQ/t5mEOUW6JyGQDB/3IAwf/wAMH//1Tl9/9h6/b/Yev2bgAAAAAAAAAAV9f9blfX/f9Nzvv7AIvslR2Owxl5mENyeZhD8HmYQ/95mEP/eZhD/3mYQ/95mEP/eZhD/3mYQ/95mEP/eZhD7XmYQ20Vut4bAMH/mljn9/xh6/b/Yev2bgAAAAAAAAAAV9f9YlfX/btY1/stn6c7S3mYQ9h5mEP/eZhD/3mYQ/95mEP/eZhD/3mYQ/95mEP/eZhD/3mYQ/95mEP/eZhD/3mYQ/95mEPUnqc7RmLr9TFh6/bAYev2YwAAAAAAAAAAV9f9B/nNKyn7zSi39Mop/6+uOP97mUP/eZhD/3mYQ/95mEP/eZhD/3mYQ/95mEP/eZhD/3mYQ/95mEP/eZhD/3uZQ/+vrjj/9Mop//vNKLL3zi0mYev2CAAAAAAAAAAAAAAAAPvNKFn7zSj2+80o//vNKP/kxC3/m6Y8/3mYQ/95mEP/eZhD/3mYQ/95mEP/eZhD/3mYQ/95mEP/nKY8/+TELf/7zSj/+80o//vNKPX7zShZAAAAAAAAAAAAAAAAAAAAAAAAAAD7zSgg+80oqfvNKP77zSj/+80o/9K8Mf+Lnz//eZhD/3mYQ/95mEP/eZhD/4ygP//TvTD/+80o//vNKP/7zSj++80oqPvNKB8AAAAAAAAAAAAAAAAAAAAAAAAAAAAAAAAAAAAA+80oAPvNKD77zSjO+80o//vNKP/3yyn/vrQ1/4qfP/+Lnz//wLU0//fMKf/7zSj/+80o//vNKMz7zSg9AAAAAAAAAAAAAAAAAAAAAAAAAAAAAAAAAAAAAAAAAAAAAAAAAAAAAAAAAAD7zSgD+80oZfvNKOj7zSj/+80o//vNKP/7zSj/+80o//vNKP/7zSjm+80oYvvNKAIAAAAAAAAAAAAAAAAAAAAAAAAAAAAAAAAAAAAAAAAAAAAAAAAAAAAAAAAAAAAAAAAAAAAAAAAAAPvNKA/7zSiM+80o+PvNKP/7zSj/+80o9/vNKIj7zSgOAAAAAAAAAAAAAAAAAAAAAAAAAAAAAAAAAAAAAAAAAAAAAAAAAAAAAAAAAAAAAAAAAAAAAAAAAAAAAAAAAAAAAAAAAAAAAAAA+80oIfvNKGz7zShr+80oHwAAAAAAAAAAAAAAAAAAAAAAAAAAAAAAAAAAAAAAAAAAAAAAAAAAAAD/w/8A/wD/APwAPwDwAA8A4AAHAMAAAwCAAAEAgAABAIAAAQCAAAEAgAABAIAAAQCAAAEAgAABAIAAAQCAAAEAgAABAIAAAQDAAAMA4AAHAPAAHwD8AD8A/wD/AP/D/wAoAAAAFAAAACgAAAABACAAAAAAAEAGAAAAAAAAAAAAAAAAAAAAAAAAAAAAAAAAAAAAAAAAAAAAAAAAAAAAAAAAAAAAAAAAAABX1/0wV9f9S2Hr9lBh6/YtAAAAAAAAAAAAAAAAAAAAAAAAAAAAAAAAAAAAAAAAAAAAAAAAAAAAAAAAAAAAAAAAAAAAAAAAAABX1/0WV9f9mlfX/fxX1/2RYev2m2Hr9vth6/aXYev2FQAAAAAAAAAAAAAAAAAAAAAAAAAAAAAAAAAAAAAAAAAAAAAAAAAAAABX1/0GV9f9c1fX/fBX1/3/UdH8/zW59pE+3PmbXOn2/2Hr9v9h6/buYev2cWHr9gYAAAAAAAAAAAAAAAAAAAAAAAAAAAAAAABX1/0AV9f9TFfX/dlX1/3/Vtb9/zK39v8Gke3/AIvskQDB/5sJxf7/PNv5/2Dr9v9h6/b/Yev212Hr9kth6/YAAAAAAAAAAAAAAAAAV9f9CFfX/a5X1/3/V9f9/z/C+P8PmO//AIvs/wCL7P8Ai+yRAMH/mwDB//8Awf//E8n9/0rh+P9h6/b/Yev2/2Hr9q5h6/YIAAAAAAAAAABX1/13V9f9/1HS/P8bo/H/AIvs/wCL7P8Ai+z/AIvs/wCL7JEAwf+bAMH//wDB//8Awf//AMH//yHP/P9b6ff/Yev2/2Hr9ncAAAAAAAAAAFfX/a5X1/3/Iqjz/wCL7P8Ai+z/AIvs/wCL7P8Ai+z/AIvskQDB/5sAwf//AMH//wDB//8Awf//AMH//yjS+/9h6/b/Yev2rgAAAAAAAAAAV9f9sFfX/f8Sm+//AIvs/wCL7P8Ai+z/AIvs/wCL7P8Ai+yRAMH/mwDB//8Awf//AMH//wDB//8Awf//Fsr9/2Hr9v9h6/awAAAAAAAAAABX1/2wV9f9/xKa7/8Ai+z/AIvs/wCL7P8Ai+z/AIvs/wCL7IgAwf+QAMH//wDB//8Awf//AMH//wDB//8Wyv3/Yev2/2Hr9rAAAAAAAAAAAFfX/bBX1/3/Eprv/wCL7P8Ai+z/AIvs/wCL7P8Ai+z3BozjMgPA+jcAwf/5AMH//wDB//8Awf//AMH//xbK/f9h6/b/Yev2sAAAAAAAAAAAV9f9sFfX/f8Smu//AIvs/wCL7P8Ai+z/AIvszweM4jt5mEOSeZhDjAW/9z8Awf/SAMH//wDB//8Awf//Fsr9/2Hr9v9h6/awAAAAAAAAAABX1/2wV9f9/xKa7/8Ai+z/AIvs6QCL7GZzl0tCeZhDznmYQ/95mEP/eZhDy3GbTz8Awf9qAMH/6wDB//8Wyv3/Yev2/2Hr9rAAAAAAAAAAAFfX/bBX1/3/Epvw+QCL7I1RlHsweZhDqnmYQ/55mEP/eZhD/3mYQ/95mEP/eZhD/nmYQ6VLqIsvAMH/kRbL/fph6/b/Yev2sAAAAAAAAAAAV9f9rFfX/bRGss0zeZhDgnmYQ/Z5mEP/eZhD/3mYQ/95mEP/eZhD/3mYQ/95mEP/eZhD/3mYQ/R5mEN+Sc/XNGHr9rhh6/atAAAAAAAAAABf1/MZ+80oW/XLKeOtrTj/ephD/3mYQ/95mEP/eZhD/3mYQ/95mEP/eZhD/3mYQ/95mEP/eplD/62tOP/1yyng+80pV2Xq8RsAAAAAAAAAAPvNKAX7zSig+80o/vvNKP/iwy3/mKU8/3mYQ/95mEP/eZhD/3mYQ/95mEP/eZhD/5mlPP/iwy3/+80o//vNKP77zSig+80oBAAAAAAAAAAAAAAAAPvNKAD7zSg/+80ozvvNKP/7zSj/z7sx/4meQP95mEP/eZhD/4qfQP/QuzH/+80o//vNKP/7zSjN+80oPvvNKAAAAAAAAAAAAAAAAAAAAAAAAAAAAAAAAAD7zSgD+80oZfvNKOn7zSj/9ssp/8y6Mv/MujL/98sp//vNKP/7zSjn+80oY/vNKAMAAAAAAAAAAAAAAAAAAAAAAAAAAAAAAAAAAAAAAAAAAAAAAAAAAAAA+80oEPvNKIz7zSj5+80o//vNKP/7zSj4+80oifvNKA4AAAAAAAAAAAAAAAAAAAAAAAAAAAAAAAAAAAAAAAAAAAAAAAAAAAAAAAAAAAAAAAAAAAAAAAAAAPvNKCX7zSiA+80of/vNKCMAAAAAAAAAAAAAAAAAAAAAAAAAAAAAAAAAAAAAAAAAAP8P8AD8A/AA8ADwAMAAMACAABAAgAAQAIAAEACAABAAgAAQAIAAEACAABAAgAAQAIAAEACAABAAgAAQAIAAEADAADAA8ADwAPwD8AD/D/AAKAAAABAAAAAgAAAAAQAgAAAAAAAABAAAAAAAAAAAAAAAAAAAAAAAAAAAAAAAAAAAAAAAAAAAAAAAAAAAAAAAAFfX/S9X1/1hYev2ZWHr9i0AAAAAAAAAAAAAAAAAAAAAAAAAAAAAAAAAAAAAAAAAAAAAAAAAAAAAV9f9FVfX/ZhX1/38V9f9p2Hr9q9h6/b8Yev2lWHr9hQAAAAAAAAAAAAAAAAAAAAAAAAAAAAAAABX1/0FV9f9cVfX/e9W1v3/Mrf2/wuV7qcPx/6vO9r6/2Dr9v9h6/buYev2b2Hr9gUAAAAAAAAAAAAAAABX1/0vV9f911fX/f8/wvj/Dpjv/wCL7P8Ai+ynAMH/rwDB//8Syf3/SeH4/2Hr9v9h6/bXYev2LgAAAAAAAAAAV9f9zVTU/P8co/H/AIvs/wCL7P8Ai+z/AIvspwDB/68Awf//AMH//wDB//8i0Pz/Xur2/2Hr9s0AAAAAAAAAAFfX/fM2uvf/AIvs/wCL7P8Ai+z/AIvs/wCL7KcAwf+vAMH//wDB//8Awf//AMH//z7c+f9h6/bzAAAAAAAAAABX1/3zMbb2/wCL7P8Ai+z/AIvs/wCL7P8Ai+ymAMH/rQDB//8Awf//AMH//wDB//842fr/Yev28wAAAAAAAAAAV9f98zG29v8Ai+z/AIvs/wCL7P8Ai+z/AovpYQHB/WcAwf//AMH//wDB//8Awf//ONn6/2Hr9vMAAAAAAAAAAFfX/fMxtvb/AIvs/wCL7P8Ai+zlCIzhYXmYQ5J5mEOOB7/1ZQDB/+cAwf//AMH//zjZ+v9h6/bzAAAAAAAAAABX1/3zMbb2/wCL7PcAi+yGaZZaWnmYQ9t5mEP/eZhD/3mYQ9hmnmBYAMH/iQDB//g42fr/Yev28wAAAAAAAAAAV9f98jy/+K1Eko1MeZhDunmYQ/95mEP/eZhD/3mYQ/95mEP/eZhD/3mYQ7ZAq5xMRN/5sGHr9vMAAAAAAAAAAIPUxET7zSiSrK04+3qYQ/95mEP/eZhD/3mYQ/95mEP/eZhD/3mYQ/96mEP/ra04+vvNKI+F5MVFAAAAAAAAAAD7zSgo+80oz/vNKP/gwi7/lqQ9/3mYQ/95mEP/eZhD/3mYQ/+WpD3/4MIu//vNKP/7zSjO+80oJwAAAAAAAAAAAAAAAPvNKAP7zShl+80o6frNKP/MujL/jKA//42gP//NujL/+80o//vNKOj7zShk+80oAgAAAAAAAAAAAAAAAAAAAAAAAAAAAAAAAPvNKA/7zSiN+80o+fvNKP/7zSj/+80o+fvNKIv7zSgOAAAAAAAAAAAAAAAAAAAAAAAAAAAAAAAAAAAAAAAAAAAAAAAAAAAAAPvNKCb7zSiS+80okfvNKCQAAAAAAAAAAAAAAAAAAAAAAAAAAAAAAAD8PwAA8A8AAMADAACAAQAAgAEAAIABAACAAQAAgAEAAIABAACAAQAAgAEAAIABAACAAQAAwAMAAPAPAAD8PwAA" vertex="1" parent="1">
          <mxGeometry x="597" y="584" width="50" height="50" as="geometry" />
        </mxCell>
        <mxCell id="a0I209Xn2IAU2qN7jM_M-10" value="AppX" style="rounded=1;whiteSpace=wrap;html=1;fontSize=21;align=center;" vertex="1" parent="1">
          <mxGeometry x="582" y="521" width="80" height="48" as="geometry" />
        </mxCell>
        <mxCell id="a0I209Xn2IAU2qN7jM_M-11" value="" style="endArrow=none;html=1;fontSize=21;" edge="1" parent="1">
          <mxGeometry width="50" height="50" relative="1" as="geometry">
            <mxPoint x="547" y="684" as="sourcePoint" />
            <mxPoint x="597" y="634" as="targetPoint" />
          </mxGeometry>
        </mxCell>
        <mxCell id="a0I209Xn2IAU2qN7jM_M-12" value="Balena&lt;br&gt;Supervisor" style="text;html=1;align=center;verticalAlign=middle;resizable=0;points=[];autosize=1;fontSize=21;" vertex="1" parent="1">
          <mxGeometry x="450" y="670" width="120" height="60" as="geometry" />
        </mxCell>
        <mxCell id="a0I209Xn2IAU2qN7jM_M-19" style="rounded=0;orthogonalLoop=1;jettySize=auto;html=1;exitX=1;exitY=0.5;exitDx=0;exitDy=0;entryX=0;entryY=0.5;entryDx=0;entryDy=0;fontSize=20;startArrow=classic;startFill=1;" edge="1" parent="1" source="a0I209Xn2IAU2qN7jM_M-14" target="a0I209Xn2IAU2qN7jM_M-9">
          <mxGeometry relative="1" as="geometry" />
        </mxCell>
        <mxCell id="a0I209Xn2IAU2qN7jM_M-14" value="Trust&amp;nbsp;Agent" style="rounded=1;whiteSpace=wrap;html=1;fillColor=#dae8fc;strokeColor=#6c8ebf;fontSize=20;" vertex="1" parent="1">
          <mxGeometry x="320" y="521.5" width="150" height="51" as="geometry" />
        </mxCell>
        <mxCell id="a0I209Xn2IAU2qN7jM_M-23" style="edgeStyle=none;rounded=0;orthogonalLoop=1;jettySize=auto;html=1;exitX=1;exitY=0.75;exitDx=0;exitDy=0;fontSize=20;" edge="1" parent="1">
          <mxGeometry relative="1" as="geometry">
            <mxPoint x="455" y="260" as="sourcePoint" />
            <mxPoint x="455" y="260" as="targetPoint" />
          </mxGeometry>
        </mxCell>
        <mxCell id="a0I209Xn2IAU2qN7jM_M-26" style="edgeStyle=none;rounded=0;orthogonalLoop=1;jettySize=auto;html=1;exitX=0.5;exitY=1;exitDx=0;exitDy=0;entryX=0.5;entryY=0;entryDx=0;entryDy=0;fontSize=20;startArrow=classic;startFill=1;endArrow=none;endFill=0;" edge="1" parent="1" source="a0I209Xn2IAU2qN7jM_M-25" target="a0I209Xn2IAU2qN7jM_M-14">
          <mxGeometry relative="1" as="geometry">
            <mxPoint x="419.5" y="271" as="sourcePoint" />
            <mxPoint x="419.5" y="521.5" as="targetPoint" />
          </mxGeometry>
        </mxCell>
        <mxCell id="a0I209Xn2IAU2qN7jM_M-30" style="edgeStyle=orthogonalEdgeStyle;rounded=0;orthogonalLoop=1;jettySize=auto;html=1;exitX=1;exitY=0.5;exitDx=0;exitDy=0;entryX=0.5;entryY=0;entryDx=0;entryDy=0;startArrow=none;startFill=0;endArrow=classic;endFill=1;fontSize=20;" edge="1" parent="1" source="a0I209Xn2IAU2qN7jM_M-25" target="a0I209Xn2IAU2qN7jM_M-29">
          <mxGeometry relative="1" as="geometry" />
        </mxCell>
        <mxCell id="a0I209Xn2IAU2qN7jM_M-25" value="Verifier" style="rounded=1;whiteSpace=wrap;html=1;fillColor=#dae8fc;strokeColor=#6c8ebf;fontSize=20;" vertex="1" parent="1">
          <mxGeometry x="320" y="220" width="150" height="51" as="geometry" />
        </mxCell>
        <mxCell id="a0I209Xn2IAU2qN7jM_M-35" style="edgeStyle=orthogonalEdgeStyle;rounded=0;orthogonalLoop=1;jettySize=auto;html=1;exitX=0.5;exitY=1;exitDx=0;exitDy=0;entryX=1;entryY=0.5;entryDx=0;entryDy=0;startArrow=none;startFill=0;endArrow=classic;endFill=1;fontSize=20;" edge="1" parent="1" source="a0I209Xn2IAU2qN7jM_M-29" target="a0I209Xn2IAU2qN7jM_M-9">
          <mxGeometry relative="1" as="geometry" />
        </mxCell>
        <mxCell id="a0I209Xn2IAU2qN7jM_M-36" style="edgeStyle=orthogonalEdgeStyle;rounded=0;orthogonalLoop=1;jettySize=auto;html=1;exitX=1;exitY=0.5;exitDx=0;exitDy=0;entryX=0.971;entryY=0.65;entryDx=0;entryDy=0;entryPerimeter=0;startArrow=none;startFill=0;endArrow=classic;endFill=1;fontSize=20;" edge="1" parent="1" source="a0I209Xn2IAU2qN7jM_M-29" target="a0I209Xn2IAU2qN7jM_M-32">
          <mxGeometry relative="1" as="geometry" />
        </mxCell>
        <mxCell id="a0I209Xn2IAU2qN7jM_M-29" value="Remediation&lt;br&gt;Engine" style="rounded=1;whiteSpace=wrap;html=1;fillColor=#dae8fc;strokeColor=#6c8ebf;fontSize=20;" vertex="1" parent="1">
          <mxGeometry x="500" y="275" width="140" height="90" as="geometry" />
        </mxCell>
        <mxCell id="a0I209Xn2IAU2qN7jM_M-34" style="edgeStyle=orthogonalEdgeStyle;rounded=0;orthogonalLoop=1;jettySize=auto;html=1;exitX=0.5;exitY=0;exitDx=0;exitDy=0;entryX=0;entryY=0.5;entryDx=0;entryDy=0;startArrow=none;startFill=0;endArrow=classic;endFill=1;fontSize=20;" edge="1" parent="1" source="a0I209Xn2IAU2qN7jM_M-31" target="a0I209Xn2IAU2qN7jM_M-25">
          <mxGeometry relative="1" as="geometry" />
        </mxCell>
        <mxCell id="a0I209Xn2IAU2qN7jM_M-31" value="git repo +&lt;br&gt;local&lt;br&gt;builder" style="rounded=1;whiteSpace=wrap;html=1;fontSize=20;align=center;" vertex="1" parent="1">
          <mxGeometry x="182" y="290" width="110" height="80" as="geometry" />
        </mxCell>
        <mxCell id="a0I209Xn2IAU2qN7jM_M-33" value="cloud services" style="text;html=1;align=center;verticalAlign=middle;resizable=0;points=[];autosize=1;fontSize=20;" vertex="1" parent="1">
          <mxGeometry x="143" y="197" width="140" height="30" as="geometry" />
        </mxCell>
        <mxCell id="a0I209Xn2IAU2qN7jM_M-37" style="edgeStyle=orthogonalEdgeStyle;rounded=0;orthogonalLoop=1;jettySize=auto;html=1;exitX=1;exitY=0.5;exitDx=0;exitDy=0;entryX=0.971;entryY=0.65;entryDx=0;entryDy=0;entryPerimeter=0;startArrow=none;startFill=0;endArrow=classic;endFill=1;fontSize=20;" edge="1" parent="1">
          <mxGeometry relative="1" as="geometry">
            <mxPoint x="143" y="329.5" as="sourcePoint" />
            <mxPoint x="182.76000000000022" y="329.5" as="targetPoint" />
          </mxGeometry>
        </mxCell>
        <mxCell id="a0I209Xn2IAU2qN7jM_M-40" value="local build&lt;br&gt;hash" style="text;html=1;align=center;verticalAlign=middle;resizable=0;points=[];autosize=1;fontSize=15;" vertex="1" parent="1">
          <mxGeometry x="154" y="236" width="80" height="40" as="geometry" />
        </mxCell>
        <mxCell id="a0I209Xn2IAU2qN7jM_M-41" value="notify event" style="text;html=1;align=center;verticalAlign=middle;resizable=0;points=[];autosize=1;fontSize=15;" vertex="1" parent="1">
          <mxGeometry x="477" y="223" width="90" height="20" as="geometry" />
        </mxCell>
        <mxCell id="a0I209Xn2IAU2qN7jM_M-42" value="log" style="text;html=1;align=center;verticalAlign=middle;resizable=0;points=[];autosize=1;fontSize=15;" vertex="1" parent="1">
          <mxGeometry x="640" y="295" width="40" height="20" as="geometry" />
        </mxCell>
        <mxCell id="a0I209Xn2IAU2qN7jM_M-43" value="rm contanier" style="text;html=1;align=center;verticalAlign=middle;resizable=0;points=[];autosize=1;fontSize=15;" vertex="1" parent="1">
          <mxGeometry x="572" y="440" width="100" height="20" as="geometry" />
        </mxCell>
        <mxCell id="a0I209Xn2IAU2qN7jM_M-44" value="HMAC(a_key, build_hash)" style="text;html=1;align=center;verticalAlign=middle;resizable=0;points=[];autosize=1;fontSize=15;rotation=-90;" vertex="1" parent="1">
          <mxGeometry x="283" y="380" width="190" height="20" as="geometry" />
        </mxCell>
        <mxCell id="a0I209Xn2IAU2qN7jM_M-45" value="get_hash &lt;br&gt;current appX" style="text;html=1;align=center;verticalAlign=middle;resizable=0;points=[];autosize=1;fontSize=15;rotation=30;" vertex="1" parent="1">
          <mxGeometry x="487" y="532.5" width="100" height="40" as="geometry" />
        </mxCell>
      </root>
    </mxGraphModel>
  </diagram>
</mxfile>
